G04*
G04 #@! TF.GenerationSoftware,Altium Limited,Altium Designer,24.0.1 (36)*
G04*
G04 Layer_Physical_Order=2*
G04 Layer_Color=16711680*
%FSLAX44Y44*%
%MOMM*%
G71*
G04*
G04 #@! TF.SameCoordinates,71F2B9B8-5446-4F90-8F71-DE05B1429098*
G04*
G04*
G04 #@! TF.FilePolarity,Positive*
G04*
G01*
G75*
%ADD16R,0.8000X0.7000*%
%ADD19R,1.7200X1.0800*%
%ADD51C,2.9210*%
%ADD52C,0.8128*%
%ADD53C,0.7000*%
%ADD54C,1.5080*%
%ADD55R,1.5080X1.5080*%
%ADD56O,2.6416X1.3208*%
%ADD57R,2.6416X1.3208*%
%ADD58C,2.1000*%
%ADD59R,2.1000X2.1000*%
%ADD60R,2.1000X2.1000*%
%ADD61C,1.5000*%
%ADD62R,1.5000X1.5000*%
%ADD63C,6.0000*%
%ADD64C,1.4980*%
%ADD65R,1.4980X1.4980*%
%ADD66R,1.5300X1.5300*%
%ADD67C,1.5300*%
%ADD68C,0.8585*%
G04:AMPARAMS|DCode=69|XSize=1.97mm|YSize=0.6mm|CornerRadius=0.075mm|HoleSize=0mm|Usage=FLASHONLY|Rotation=270.000|XOffset=0mm|YOffset=0mm|HoleType=Round|Shape=RoundedRectangle|*
%AMROUNDEDRECTD69*
21,1,1.9700,0.4500,0,0,270.0*
21,1,1.8200,0.6000,0,0,270.0*
1,1,0.1500,-0.2250,-0.9100*
1,1,0.1500,-0.2250,0.9100*
1,1,0.1500,0.2250,0.9100*
1,1,0.1500,0.2250,-0.9100*
%
%ADD69ROUNDEDRECTD69*%
%ADD70C,2.2860*%
%ADD71C,0.6000*%
G36*
X886938Y986348D02*
X887036Y986382D01*
X887131Y986342D01*
X894882D01*
X895129Y985097D01*
X890034Y982986D01*
X880880Y973833D01*
X875926Y961873D01*
Y948928D01*
X880880Y936968D01*
X890034Y927814D01*
X901994Y922860D01*
X914939D01*
X926899Y927814D01*
X936052Y936968D01*
X941006Y948928D01*
Y961873D01*
X936052Y973833D01*
X926899Y982986D01*
X921803Y985097D01*
X922051Y986342D01*
X932050D01*
X932050Y985757D01*
X932051Y985757D01*
X933321Y986343D01*
X966367D01*
X967260Y985441D01*
X967257Y985036D01*
X967294Y985020D01*
X968564Y985505D01*
X975718Y984081D01*
X982860Y979310D01*
X987632Y972168D01*
X989054Y965014D01*
X988570Y963744D01*
X988586Y963707D01*
X988991Y963710D01*
X989602Y963104D01*
X989893Y962474D01*
X989893Y900140D01*
X989893Y86788D01*
X989893Y24649D01*
X989307D01*
X987632Y16225D01*
X982860Y9083D01*
X975718Y4311D01*
X967294Y2635D01*
Y2050D01*
X932051D01*
X932051Y2050D01*
X932051Y2636D01*
X932050Y2636D01*
X932050Y2050D01*
X883875D01*
X883522Y2432D01*
X883059Y2979D01*
X883032Y3245D01*
X883032Y3246D01*
X883032Y3246D01*
X883032Y3246D01*
X882857Y3318D01*
X882726Y3372D01*
X881523Y3210D01*
X877272Y4056D01*
X871218Y8102D01*
X867172Y14156D01*
X865751Y21298D01*
X865780Y21440D01*
X865790Y21491D01*
X865798Y21530D01*
X865808Y21582D01*
X865944Y22264D01*
X866028Y22686D01*
X866028Y22686D01*
X866027Y22686D01*
X865166Y23509D01*
X865166Y35395D01*
X865198Y35539D01*
X865200Y35544D01*
X866433Y36665D01*
X866488Y36665D01*
X866488Y36666D01*
X866475Y36699D01*
X866467Y36718D01*
X866318Y36716D01*
X865358Y37137D01*
X865200Y37936D01*
X863283Y47568D01*
X857109Y56810D01*
X847868Y62984D01*
X837904Y64966D01*
X837757Y65091D01*
X837055Y65925D01*
X837001Y66084D01*
X837001Y66174D01*
X836965Y66189D01*
X836964Y66189D01*
Y66035D01*
X836304Y65105D01*
X836139Y64940D01*
X835840Y64867D01*
X708086D01*
X707977Y940543D01*
X708875Y941441D01*
X838283D01*
Y941156D01*
X849185Y943324D01*
X858427Y949499D01*
X864602Y958741D01*
X866518Y968373D01*
X866615Y968861D01*
X866664Y968902D01*
X867483Y969532D01*
X867702Y969607D01*
X867792Y969606D01*
X867807Y969643D01*
X867807Y969643D01*
X867627Y969643D01*
X866643Y970116D01*
X866485Y970767D01*
Y976557D01*
X866722D01*
X869688Y983716D01*
X875536Y986139D01*
X876620Y985691D01*
X876847Y985597D01*
X876885Y985613D01*
X876881Y985985D01*
X877790Y986852D01*
X877827Y986860D01*
X886938Y986348D01*
D02*
G37*
G36*
X79214Y986084D02*
X79214Y986084D01*
X79849Y985145D01*
X79848Y985036D01*
X79886Y985020D01*
X79886Y985092D01*
X81156Y985940D01*
X90402Y982110D01*
X94236Y972855D01*
X94649Y971756D01*
X94895Y971106D01*
X94998Y970187D01*
X94979Y969769D01*
X94948Y969472D01*
X94921Y969271D01*
X94946Y969211D01*
X95405Y968103D01*
X95407Y968097D01*
X95520Y967824D01*
X95840Y967052D01*
X95860Y967004D01*
X96664Y966077D01*
X98123Y958741D01*
X104298Y949499D01*
X113540Y943324D01*
X123172Y941408D01*
X124414Y941161D01*
X124405Y940134D01*
X124442Y940119D01*
X124442Y941168D01*
X125566Y941441D01*
X687524Y941441D01*
X687821Y845382D01*
X686648Y844894D01*
X632143Y899399D01*
X627089Y901493D01*
X275553D01*
X270498Y899399D01*
X230936Y859837D01*
X220544D01*
Y885558D01*
X204573D01*
X193018Y897113D01*
X187963Y899207D01*
X62701D01*
X57646Y897113D01*
X55553Y892059D01*
Y831519D01*
X33516Y809483D01*
X31423Y804429D01*
Y590973D01*
X33516Y585919D01*
X126672Y492762D01*
Y483750D01*
X128766Y478696D01*
X133821Y476602D01*
X139848D01*
X146485Y473853D01*
X159693D01*
X166692Y476752D01*
X169591Y483750D01*
X166692Y490749D01*
X159693Y493648D01*
X146485D01*
X142025Y491800D01*
X140969Y492506D01*
Y495723D01*
X138875Y500778D01*
X50337Y589316D01*
X50863Y590586D01*
X52287D01*
X53049Y590271D01*
X53810Y590586D01*
X55879D01*
X57341Y592049D01*
X58103Y592364D01*
X76442Y610703D01*
X77712Y610177D01*
Y608848D01*
X77397Y608087D01*
X77712Y607325D01*
Y605257D01*
X79175Y603794D01*
X79490Y603032D01*
X102227Y580296D01*
X107281Y578202D01*
X139848D01*
X146485Y575453D01*
X159693D01*
X166692Y578352D01*
X169591Y585350D01*
X166692Y592349D01*
X159693Y595248D01*
X146485D01*
X139847Y592498D01*
X110242D01*
X89599Y613141D01*
X88837Y613457D01*
X87375Y614919D01*
X85306D01*
X84545Y615235D01*
X83783Y614919D01*
X82454D01*
X81928Y616189D01*
X94741Y629002D01*
X139848D01*
X146485Y626253D01*
X159693D01*
X166330Y629002D01*
X195660D01*
X200714Y631096D01*
X208979Y639361D01*
X209295Y640123D01*
X210757Y641585D01*
Y643654D01*
X211073Y644415D01*
X210757Y645177D01*
Y647245D01*
X209295Y648708D01*
X208979Y649470D01*
X208218Y649785D01*
X206755Y651248D01*
X204686D01*
X203925Y651563D01*
X203163Y651248D01*
X201094D01*
X199632Y649785D01*
X198870Y649470D01*
X192699Y643298D01*
X166331D01*
X159693Y646048D01*
X146485D01*
X139847Y643298D01*
X91780D01*
X86726Y641205D01*
X47994Y602473D01*
X47761Y601909D01*
X46954Y601464D01*
X45719Y602107D01*
Y730784D01*
X46989Y731310D01*
X52196Y726103D01*
X60505D01*
X66381Y731978D01*
Y740287D01*
X60505Y746163D01*
X52196D01*
X46989Y740955D01*
X45719Y741481D01*
Y795944D01*
X46989Y796470D01*
X51836Y791622D01*
X60145D01*
X66020Y797498D01*
Y805807D01*
X60145Y811683D01*
X57593D01*
X57107Y812856D01*
X67755Y823504D01*
X69849Y828559D01*
Y859478D01*
X82876D01*
X94719Y847634D01*
X99774Y845540D01*
X148041D01*
X148568Y844270D01*
X126988Y822691D01*
X124895Y817637D01*
Y662820D01*
X126988Y657766D01*
X128258Y656496D01*
X133313Y654402D01*
X139848D01*
X146485Y651653D01*
X159693D01*
X166692Y654552D01*
X169591Y661550D01*
X166692Y668549D01*
X159693Y671448D01*
X146485D01*
X140461Y668952D01*
X139191Y669701D01*
Y678700D01*
X140461Y679548D01*
X146485Y677053D01*
X159693D01*
X166330Y679802D01*
X190971D01*
X191732Y680117D01*
X193801D01*
X195264Y681580D01*
X196025Y681896D01*
X196341Y682657D01*
X197803Y684120D01*
Y686188D01*
X198119Y686950D01*
X197803Y687712D01*
Y689780D01*
X196341Y691243D01*
X196025Y692005D01*
X195264Y692320D01*
X193801Y693783D01*
X191732D01*
X190971Y694098D01*
X166331D01*
X159693Y696848D01*
X146485D01*
X140461Y694352D01*
X139191Y695201D01*
Y704100D01*
X140461Y704948D01*
X146485Y702453D01*
X159693D01*
X166330Y705202D01*
X191225D01*
X196279Y707296D01*
X214532Y725548D01*
X216541Y730398D01*
X222685Y727853D01*
X235893D01*
X242892Y730752D01*
X245791Y737750D01*
X242892Y744749D01*
X235893Y747648D01*
X222685D01*
X217681Y745575D01*
X216625Y746281D01*
Y754620D01*
X217681Y755326D01*
X222685Y753253D01*
X235893D01*
X242892Y756152D01*
X245791Y763150D01*
X242892Y770149D01*
X235893Y773048D01*
X222685D01*
X217681Y770975D01*
X216625Y771681D01*
Y780020D01*
X217681Y780726D01*
X222685Y778653D01*
X235893D01*
X242892Y781552D01*
X245083Y786843D01*
X246329Y787091D01*
X248239Y785181D01*
Y665240D01*
X250333Y660186D01*
X339935Y570583D01*
X339269Y569453D01*
X337528D01*
X336767Y569769D01*
X271489D01*
X266434Y567675D01*
X241065Y542306D01*
X235893Y544448D01*
X222685D01*
X215687Y541549D01*
X212788Y534550D01*
X215687Y527552D01*
X222685Y524653D01*
X235893D01*
X242530Y527402D01*
X243418D01*
X248473Y529496D01*
X274450Y555472D01*
X336767D01*
X337528Y555788D01*
X339597D01*
X341059Y557251D01*
X341821Y557566D01*
X342137Y558328D01*
X343599Y559790D01*
Y561859D01*
X343915Y562621D01*
X343599Y563382D01*
Y565123D01*
X344729Y565789D01*
X383157Y527362D01*
Y519455D01*
X381887Y519203D01*
X381221Y520809D01*
X380718Y521017D01*
X380693Y521078D01*
X356881Y544890D01*
X355730Y547671D01*
X350675Y549764D01*
X284189D01*
X279134Y547671D01*
X245246Y513783D01*
X243838Y513864D01*
X242892Y516149D01*
X235893Y519048D01*
X222685D01*
X216047Y516298D01*
X213192D01*
X208138Y514205D01*
X194182Y500249D01*
X192912Y500775D01*
Y536927D01*
X208787Y552802D01*
X216048D01*
X222685Y550053D01*
X235893D01*
X242892Y552952D01*
X245791Y559950D01*
X242892Y566949D01*
X235893Y569848D01*
X222685D01*
X216047Y567098D01*
X205826D01*
X200772Y565005D01*
X180709Y544942D01*
X178615Y539888D01*
Y467664D01*
X170314Y459363D01*
X169069Y459611D01*
X166692Y465349D01*
X159693Y468248D01*
X146485D01*
X139487Y465349D01*
X137071Y459516D01*
X135573Y459218D01*
X106679Y488111D01*
Y507249D01*
X104585Y512303D01*
X72581Y544307D01*
X67527Y546401D01*
X47144D01*
X42089Y544307D01*
X27332Y529550D01*
X26862Y529203D01*
X26353Y528872D01*
X26030Y528700D01*
X25977Y528680D01*
X25862Y528663D01*
X25743Y528592D01*
X25702Y528577D01*
X25675Y528552D01*
X25561Y528484D01*
X21964D01*
X15995Y522514D01*
Y514073D01*
X21964Y508104D01*
X30405D01*
X36375Y514073D01*
Y517670D01*
X36443Y517784D01*
X36468Y517811D01*
X36483Y517852D01*
X36554Y517971D01*
X36571Y518086D01*
X36591Y518139D01*
X36764Y518462D01*
X37036Y518882D01*
X38026Y520026D01*
X50104Y532104D01*
X64566D01*
X92382Y504288D01*
Y485151D01*
X94476Y480096D01*
X134344Y440229D01*
X133818Y438959D01*
X90228D01*
X62841Y466346D01*
X62494Y466816D01*
X62164Y467325D01*
X61991Y467648D01*
X61971Y467701D01*
X61954Y467817D01*
X61883Y467935D01*
X61868Y467976D01*
X61843Y468004D01*
X61775Y468117D01*
Y471714D01*
X55806Y477684D01*
X47364D01*
X41395Y471714D01*
Y463273D01*
X47364Y457304D01*
X50961D01*
X51075Y457236D01*
X51102Y457210D01*
X51143Y457195D01*
X51262Y457124D01*
X51377Y457107D01*
X51430Y457087D01*
X51753Y456915D01*
X52173Y456642D01*
X53317Y455652D01*
X82213Y426756D01*
X87268Y424663D01*
X122311D01*
X123208Y423763D01*
X123042Y360437D01*
X121868Y359953D01*
X31239Y450581D01*
X30477Y450897D01*
X29015Y452359D01*
X26946D01*
X26185Y452675D01*
X25423Y452359D01*
X23354D01*
X21892Y450897D01*
X21130Y450581D01*
X20815Y449819D01*
X19352Y448357D01*
Y446288D01*
X19037Y445527D01*
X19352Y444765D01*
Y442696D01*
X20815Y441234D01*
X21130Y440472D01*
X197152Y264450D01*
X202207Y262356D01*
X216371D01*
X217132Y262672D01*
X219201D01*
X220664Y264135D01*
X221425Y264450D01*
X221741Y265212D01*
X223203Y266674D01*
Y268743D01*
X223519Y269505D01*
X223203Y270266D01*
Y272335D01*
X221741Y273797D01*
X221425Y274559D01*
X220664Y274875D01*
X219201Y276337D01*
X217132D01*
X216371Y276653D01*
X205167D01*
X177288Y304533D01*
X177774Y305706D01*
X221922D01*
X223867Y306511D01*
X224672Y308455D01*
Y331027D01*
X226120Y334524D01*
X229618Y335973D01*
X275263D01*
X277207Y336778D01*
X278012Y338722D01*
Y384367D01*
X278118Y384623D01*
Y385170D01*
X278327Y385675D01*
Y386605D01*
X278985Y387262D01*
X279194Y387768D01*
X279557Y388130D01*
X280062Y388340D01*
X280719Y388997D01*
X281649D01*
X282154Y389206D01*
X282667D01*
X283172Y388997D01*
X284102D01*
X284759Y388340D01*
X285265Y388130D01*
X285651Y387744D01*
X285908Y387637D01*
X367034Y306511D01*
X368978Y305706D01*
X368978Y305706D01*
X374186D01*
X374691Y305915D01*
X375238D01*
X375625Y306302D01*
X376130Y306511D01*
X376339Y307016D01*
X376726Y307403D01*
X377212Y308576D01*
Y309123D01*
X377421Y309628D01*
X377212Y310134D01*
Y310681D01*
X376825Y311067D01*
X376616Y311572D01*
X279407Y408781D01*
X278479Y409166D01*
X277566Y409585D01*
X276880Y409610D01*
X276859Y409625D01*
Y496922D01*
X299477Y519540D01*
X319216D01*
X319922Y518484D01*
X319842Y518291D01*
Y510461D01*
X325653D01*
Y509191D01*
X326923D01*
Y496530D01*
X327903D01*
X329308Y497112D01*
X330027Y496035D01*
X311633Y477641D01*
X311361Y477528D01*
X310305Y478234D01*
Y485898D01*
X304966D01*
X303765Y486396D01*
X297528D01*
X296054Y487006D01*
X291000Y484913D01*
X288906Y479858D01*
Y423817D01*
X291000Y418762D01*
X403099Y306662D01*
X403861Y306347D01*
X405324Y304884D01*
X407392D01*
X408154Y304569D01*
X408916Y304884D01*
X410984D01*
X412086Y305987D01*
X413221Y306511D01*
X413727Y306302D01*
X414113Y305915D01*
X414660Y305915D01*
X415165Y305706D01*
X467404D01*
X467909Y305915D01*
X468456Y305915D01*
X469348Y306511D01*
X470731Y307132D01*
X475197Y305282D01*
X529713D01*
X529966Y304013D01*
X526251Y302474D01*
X520180Y296403D01*
X518087Y291349D01*
Y145775D01*
X520180Y140720D01*
X540511Y120390D01*
Y117723D01*
X539337Y117237D01*
X539241Y117333D01*
X537172D01*
X536411Y117649D01*
X535649Y117333D01*
X533581D01*
X532118Y115871D01*
X531356Y115555D01*
X531041Y114794D01*
X529578Y113331D01*
Y111262D01*
X529263Y110501D01*
Y89959D01*
X531356Y84904D01*
X533306Y84096D01*
X533059Y82851D01*
X413134D01*
X364935Y131049D01*
X364174Y131365D01*
X362711Y132827D01*
X360642D01*
X359881Y133143D01*
X359119Y132827D01*
X357051D01*
X355588Y131365D01*
X354826Y131049D01*
X354511Y130288D01*
X353048Y128825D01*
Y126756D01*
X352733Y125995D01*
X353048Y125233D01*
Y123165D01*
X354511Y121702D01*
X354826Y120940D01*
X405118Y70648D01*
X410173Y68555D01*
X644615D01*
X645376Y68870D01*
X647445D01*
X648907Y70333D01*
X649669Y70648D01*
X649985Y71410D01*
X651447Y72873D01*
Y74941D01*
X651763Y75703D01*
X651447Y76464D01*
Y78533D01*
X649985Y79995D01*
X649669Y80757D01*
X648907Y81073D01*
X647445Y82535D01*
X645376D01*
X644615Y82851D01*
X638497D01*
X638011Y84024D01*
X640471Y86483D01*
Y94834D01*
X634566Y100739D01*
X626976D01*
X626450Y102009D01*
X662369Y137928D01*
X664463Y142983D01*
Y532649D01*
X662369Y537703D01*
X642049Y558023D01*
X636995Y560117D01*
X588227D01*
X583172Y558023D01*
X576376Y551227D01*
X562791D01*
Y553635D01*
X563563Y553955D01*
X579559Y569950D01*
X624041D01*
X629095Y572044D01*
X635445Y578394D01*
X637539Y583449D01*
Y586010D01*
X640471Y588942D01*
Y597292D01*
X634566Y603197D01*
X626215D01*
X620311Y597292D01*
Y588942D01*
X623043Y586210D01*
X621080Y584247D01*
X612035D01*
X611549Y585420D01*
X615071Y588942D01*
Y597292D01*
X609166Y603197D01*
X600815D01*
X594911Y597292D01*
Y588942D01*
X598432Y585420D01*
X597946Y584247D01*
X576598D01*
X571544Y582153D01*
X556340Y566949D01*
X540511D01*
Y551227D01*
X521425D01*
X516370Y549133D01*
X432730Y465493D01*
X420364D01*
Y468791D01*
X419787Y470184D01*
X420493Y471240D01*
X425516D01*
X426352Y470403D01*
X432012D01*
X436015Y474406D01*
Y480066D01*
X432012Y484069D01*
X426352D01*
X425516Y483232D01*
X338353D01*
X334113Y481476D01*
X332357Y477236D01*
Y469955D01*
X331087Y469703D01*
X330421Y471309D01*
X327903Y472352D01*
X325101D01*
X324575Y473622D01*
X342593Y491641D01*
X344350Y495881D01*
Y498927D01*
X345620Y499180D01*
X346285Y497573D01*
X348803Y496530D01*
X353303D01*
X355821Y497573D01*
X356487Y499180D01*
X357757Y498927D01*
Y498296D01*
X359513Y494056D01*
X365038Y488531D01*
X369279Y486774D01*
X423409D01*
X426189Y485623D01*
X431244Y487716D01*
X433530Y490002D01*
X435624Y495057D01*
Y565125D01*
X433530Y570179D01*
X308630Y695079D01*
Y832026D01*
X306537Y837081D01*
X298705Y844913D01*
X293650Y847006D01*
X240119D01*
X239593Y848276D01*
X278514Y887197D01*
X624128D01*
X653906Y857419D01*
X653186Y856342D01*
X648428Y858313D01*
X478184D01*
X477931Y859478D01*
X477931Y859583D01*
Y885558D01*
X451851D01*
Y859583D01*
X451851Y859478D01*
X451598Y858313D01*
X420545D01*
X420397Y859583D01*
X427930Y867117D01*
Y877919D01*
X420292Y885558D01*
X409489D01*
X401851Y877919D01*
Y867117D01*
X409384Y859583D01*
X409236Y858313D01*
X379052D01*
X373998Y856219D01*
X346164Y828385D01*
X344281Y823840D01*
X342897Y823429D01*
X341348Y824977D01*
X335688D01*
X331686Y820975D01*
Y815314D01*
X332522Y814478D01*
Y796204D01*
X331252Y795951D01*
X330586Y797558D01*
X328068Y798601D01*
X323568D01*
X321050Y797558D01*
X320007Y795040D01*
Y786387D01*
X319822Y785939D01*
Y773467D01*
X321578Y769227D01*
X324600Y766205D01*
Y765023D01*
X328602Y761020D01*
X334263D01*
X338265Y765023D01*
Y770683D01*
X336940Y772008D01*
X337466Y773278D01*
X340768D01*
X343286Y774322D01*
X344233Y776608D01*
X344241Y776609D01*
X345496D01*
X345503Y776608D01*
X346450Y774322D01*
X348968Y773278D01*
X353468D01*
X355986Y774322D01*
X356933Y776608D01*
X356941Y776609D01*
X358196D01*
X358203Y776608D01*
X359150Y774322D01*
X361668Y773278D01*
X366168D01*
X368686Y774322D01*
X369633Y776608D01*
X369641Y776609D01*
X370896D01*
X370903Y776608D01*
X371850Y774322D01*
X372448Y774074D01*
Y772804D01*
X370118Y771839D01*
X359678Y761398D01*
X357922Y757158D01*
Y746703D01*
X356652Y746451D01*
X355986Y748057D01*
X353468Y749100D01*
X348968D01*
X346450Y748057D01*
X345503Y745771D01*
X345496Y745770D01*
X344241D01*
X344233Y745771D01*
X343286Y748057D01*
X340768Y749100D01*
X336268D01*
X333750Y748057D01*
X332803Y745771D01*
X332796Y745770D01*
X331541D01*
X331533Y745771D01*
X330586Y748057D01*
X328068Y749100D01*
X323568D01*
X321050Y748057D01*
X320007Y745539D01*
Y737927D01*
X319086Y735704D01*
Y724275D01*
X318250Y723439D01*
Y717778D01*
X322253Y713776D01*
X327913D01*
X331252Y717115D01*
X332522Y716589D01*
Y681505D01*
X331370Y678725D01*
X333464Y673671D01*
X374638Y632496D01*
X375400Y632181D01*
X376862Y630718D01*
X378931D01*
X379693Y630402D01*
X380454Y630718D01*
X382523D01*
X383985Y632181D01*
X384747Y632496D01*
X385063Y633258D01*
X386525Y634720D01*
Y636789D01*
X386841Y637551D01*
X386525Y638312D01*
Y640381D01*
X385063Y641843D01*
X384747Y642605D01*
X344515Y682838D01*
Y717473D01*
X345785Y717726D01*
X346978Y714845D01*
X351218Y713088D01*
X389742D01*
X390578Y712252D01*
X396239D01*
X400241Y716255D01*
Y721915D01*
X399562Y722594D01*
X400174Y723778D01*
X404268D01*
X406786Y724821D01*
X407733Y727108D01*
X407741Y727109D01*
X408996D01*
X409003Y727108D01*
X409950Y724821D01*
X412468Y723778D01*
X413448D01*
Y736440D01*
Y749100D01*
X413039D01*
X412513Y750370D01*
X414719Y752577D01*
Y758237D01*
X410717Y762239D01*
X409534D01*
X399935Y771839D01*
X399292Y772105D01*
X399768Y773278D01*
X404268D01*
X406786Y774322D01*
X407452Y775928D01*
X408722Y775676D01*
Y773949D01*
X410478Y769708D01*
X417730Y762456D01*
X418272Y761150D01*
X422895Y759235D01*
X445359D01*
X472326Y732268D01*
X472936Y730794D01*
X524161Y679569D01*
X529215Y677476D01*
X540511D01*
Y676684D01*
X559743D01*
Y663164D01*
X541120D01*
X531199Y673085D01*
X530437Y673401D01*
X528974Y674863D01*
X526906D01*
X526144Y675179D01*
X525382Y674863D01*
X523314D01*
X521851Y673401D01*
X521090Y673085D01*
X520774Y672324D01*
X519311Y670861D01*
Y668792D01*
X518996Y668031D01*
X519311Y667269D01*
Y665201D01*
X520774Y663738D01*
X521090Y662976D01*
X533896Y650170D01*
X538951Y648076D01*
X540511D01*
Y647284D01*
X559743D01*
Y640018D01*
X549482Y629757D01*
X540511D01*
Y613877D01*
X562791D01*
Y622848D01*
X571945Y632002D01*
X574039Y637057D01*
Y684624D01*
X571945Y689678D01*
X566891Y691772D01*
X562791D01*
Y692564D01*
X540511D01*
Y691772D01*
X532176D01*
X495811Y728138D01*
X496297Y729311D01*
X522020D01*
X524031Y730144D01*
X526119Y730756D01*
X537956Y740284D01*
X540511D01*
Y739492D01*
X562791D01*
Y755372D01*
X542948D01*
Y772899D01*
X558592D01*
X558788Y772425D01*
Y770357D01*
X560251Y768894D01*
X560566Y768132D01*
X561328Y767817D01*
X562790Y766354D01*
X564859D01*
X565621Y766039D01*
X566382Y766354D01*
X568451D01*
X569913Y767817D01*
X570675Y768132D01*
X570991Y768894D01*
X572453Y770357D01*
Y772425D01*
X572769Y773187D01*
Y780839D01*
X570675Y785893D01*
X565621Y787987D01*
X562791D01*
Y788779D01*
X542948D01*
Y802299D01*
X562791D01*
Y803091D01*
X598730D01*
X608932Y792889D01*
X608406Y791619D01*
X600815D01*
X594911Y785714D01*
Y777363D01*
X600815Y771459D01*
X604357D01*
X604399Y771433D01*
X604459Y771376D01*
X604554Y771339D01*
X604649Y771282D01*
X604738Y771268D01*
X604768Y771256D01*
X605076Y771088D01*
X605485Y770818D01*
X606394Y770026D01*
X614130Y762290D01*
X619185Y760197D01*
X638011D01*
X643065Y762290D01*
X648896Y768122D01*
X650166Y767596D01*
Y764210D01*
X634542Y748585D01*
X627696D01*
X622642Y746491D01*
X605921Y729770D01*
X605570Y729508D01*
X605076Y729181D01*
X604768Y729013D01*
X604738Y729002D01*
X604649Y728988D01*
X604554Y728930D01*
X604459Y728894D01*
X604399Y728837D01*
X604357Y728811D01*
X600815D01*
X594911Y722906D01*
Y714556D01*
X600815Y708651D01*
X609166D01*
X615071Y714556D01*
Y718097D01*
X615097Y718140D01*
X615153Y718199D01*
X615190Y718294D01*
X615248Y718389D01*
X615261Y718479D01*
X615273Y718508D01*
X615441Y718816D01*
X615711Y719225D01*
X616503Y720135D01*
X619041Y722672D01*
X620311Y722146D01*
Y714556D01*
X626215Y708651D01*
X634566D01*
X640471Y714556D01*
Y722906D01*
X634566Y728811D01*
X626976D01*
X626450Y730081D01*
X630657Y734288D01*
X637503D01*
X642557Y736382D01*
X662369Y756194D01*
X663145Y758067D01*
X664390Y757819D01*
Y725433D01*
X605921Y666963D01*
X605570Y666701D01*
X605076Y666374D01*
X604768Y666206D01*
X604738Y666195D01*
X604649Y666181D01*
X604554Y666123D01*
X604459Y666087D01*
X604399Y666030D01*
X604357Y666004D01*
X600815D01*
X594911Y660099D01*
Y651749D01*
X600815Y645844D01*
X609166D01*
X615071Y651749D01*
Y655290D01*
X615097Y655333D01*
X615153Y655392D01*
X615190Y655487D01*
X615248Y655582D01*
X615261Y655672D01*
X615273Y655701D01*
X615441Y656009D01*
X615711Y656418D01*
X616503Y657327D01*
X619041Y659865D01*
X620311Y659339D01*
Y651749D01*
X626215Y645844D01*
X634566D01*
X640471Y651749D01*
Y655290D01*
X640497Y655333D01*
X640553Y655392D01*
X640590Y655487D01*
X640648Y655582D01*
X640661Y655672D01*
X640673Y655701D01*
X640841Y656009D01*
X641111Y656418D01*
X641903Y657327D01*
X687090Y702515D01*
X688264Y702031D01*
X690233Y65766D01*
X689336Y64867D01*
X197078D01*
X164762Y235875D01*
X115626Y237240D01*
X4387Y154457D01*
X3252Y155027D01*
Y957690D01*
X3199Y957817D01*
X3242Y957948D01*
X3242Y957948D01*
X2876Y962813D01*
X3740Y963744D01*
X4121Y963744D01*
X4121Y963744D01*
X3996Y964045D01*
X3545Y964554D01*
X5060Y972168D01*
X9832Y979310D01*
X16973Y984081D01*
X24127Y985505D01*
X25397Y985020D01*
X25397Y985020D01*
X25397Y985020D01*
X25434Y985036D01*
X25434Y985079D01*
X26054Y986069D01*
X26195Y986212D01*
X26425Y986342D01*
X37869D01*
X38116Y985097D01*
X30532Y981955D01*
X21379Y972802D01*
X16425Y960842D01*
Y947897D01*
X21379Y935937D01*
X30532Y926783D01*
X42492Y921829D01*
X55437D01*
X67397Y926783D01*
X76551Y935937D01*
X81505Y947897D01*
Y960842D01*
X76551Y972802D01*
X67397Y981955D01*
X59813Y985097D01*
X60061Y986342D01*
X78958D01*
X79214Y986084D01*
D02*
G37*
G36*
X150282Y883737D02*
X144464Y877919D01*
Y867117D01*
X150571Y861010D01*
X150085Y859837D01*
X102735D01*
X92985Y869587D01*
Y884911D01*
X149796D01*
X150282Y883737D01*
D02*
G37*
G36*
X536411Y817387D02*
X531356Y815293D01*
X530018Y812063D01*
X528765Y811769D01*
X528004Y812085D01*
X526541Y813547D01*
X524472D01*
X523711Y813863D01*
X522949Y813547D01*
X520881D01*
X519418Y812085D01*
X518656Y811769D01*
X471158Y764271D01*
X470843Y763510D01*
X469380Y762047D01*
Y759978D01*
X469065Y759217D01*
X469380Y758455D01*
Y756386D01*
X470843Y754924D01*
X471158Y754162D01*
X471920Y753847D01*
X473382Y752384D01*
X475451D01*
X476213Y752069D01*
X476974Y752384D01*
X479043D01*
X480505Y753847D01*
X481267Y754162D01*
X528603Y801498D01*
X529368Y801360D01*
X529873Y801109D01*
Y750562D01*
X519716Y742386D01*
X483508D01*
X483049Y742474D01*
X482009Y742761D01*
X481006Y743128D01*
X480037Y743577D01*
X479099Y744110D01*
X478712Y744373D01*
X452690Y770395D01*
X448067Y772310D01*
X424837D01*
X420715Y776432D01*
Y785939D01*
X420529Y786387D01*
Y795040D01*
X419486Y797558D01*
X416968Y798601D01*
X412468D01*
X409950Y797558D01*
X409003Y795271D01*
X408996Y795270D01*
X407741D01*
X407733Y795271D01*
X406786Y797558D01*
X404268Y798601D01*
X399768D01*
X397250Y797558D01*
X396303Y795271D01*
X396296Y795270D01*
X395041D01*
X395033Y795271D01*
X394086Y797558D01*
X391568Y798601D01*
X387068D01*
X384550Y797558D01*
X383885Y795951D01*
X382615Y796204D01*
Y800675D01*
X400556Y818616D01*
X536314D01*
X536411Y817387D01*
D02*
G37*
G36*
X341518Y809923D02*
X335518D01*
X335513Y815079D01*
X341523D01*
X341518Y809923D01*
D02*
G37*
G36*
X623578Y794116D02*
X628229Y790066D01*
X628887Y789631D01*
X629454Y789322D01*
X629930Y789137D01*
X630315Y789078D01*
X622851Y781614D01*
X622792Y782000D01*
X622608Y782476D01*
X622298Y783043D01*
X621864Y783700D01*
X621304Y784449D01*
X619809Y786218D01*
X616628Y789554D01*
X622376Y795301D01*
X623578Y794116D01*
D02*
G37*
G36*
X612589Y781078D02*
X612774Y780602D01*
X613083Y780035D01*
X613518Y779377D01*
X614077Y778628D01*
X615572Y776859D01*
X618753Y773524D01*
X613006Y767776D01*
X611803Y768962D01*
X607152Y773012D01*
X606495Y773446D01*
X605928Y773756D01*
X605451Y773940D01*
X605066Y773999D01*
X612530Y781463D01*
X612589Y781078D01*
D02*
G37*
G36*
X407844Y759699D02*
X403594Y755450D01*
X399952Y759099D01*
X404195Y763341D01*
X407844Y759699D01*
D02*
G37*
G36*
X383941Y751622D02*
X380292Y747980D01*
X376049Y752223D01*
X379692Y755872D01*
X383941Y751622D01*
D02*
G37*
G36*
X475501Y743358D02*
X476553Y742516D01*
X477645Y741774D01*
X478778Y741131D01*
X479953Y740586D01*
X481169Y740141D01*
X482425Y739794D01*
X483722Y739547D01*
X485061Y739398D01*
X486440Y739349D01*
X494238Y732349D01*
X492966Y732291D01*
X491948Y732119D01*
X491185Y731831D01*
X490678Y731429D01*
X490425Y730912D01*
X490427Y730280D01*
X490684Y729532D01*
X491196Y728670D01*
X491963Y727693D01*
X492985Y726601D01*
X477991Y735849D01*
X474491Y744298D01*
X475501Y743358D01*
D02*
G37*
G36*
X328088Y723674D02*
X322078D01*
X322083Y728830D01*
X328083D01*
X328088Y723674D01*
D02*
G37*
G36*
X618753Y726746D02*
X617568Y725544D01*
X613518Y720893D01*
X613083Y720235D01*
X612774Y719668D01*
X612589Y719192D01*
X612530Y718807D01*
X605066Y726271D01*
X605451Y726330D01*
X605928Y726514D01*
X606495Y726824D01*
X607152Y727258D01*
X607901Y727818D01*
X609670Y729313D01*
X613006Y732494D01*
X618753Y726746D01*
D02*
G37*
G36*
X390343Y716080D02*
X385187Y716085D01*
Y722085D01*
X390343Y722089D01*
Y716080D01*
D02*
G37*
G36*
X644153Y663939D02*
X642968Y662737D01*
X638918Y658086D01*
X638483Y657428D01*
X638174Y656861D01*
X637990Y656385D01*
X637930Y655999D01*
X630466Y663464D01*
X630851Y663523D01*
X631328Y663707D01*
X631895Y664017D01*
X632552Y664451D01*
X633301Y665011D01*
X635070Y666506D01*
X638406Y669686D01*
X644153Y663939D01*
D02*
G37*
G36*
X618753D02*
X617568Y662737D01*
X613518Y658086D01*
X613083Y657428D01*
X612774Y656861D01*
X612589Y656385D01*
X612530Y655999D01*
X605066Y663464D01*
X605451Y663523D01*
X605928Y663707D01*
X606495Y664017D01*
X607152Y664451D01*
X607901Y665011D01*
X609670Y666506D01*
X613006Y669686D01*
X618753Y663939D01*
D02*
G37*
G36*
X565967Y630386D02*
X560190Y624639D01*
X551273Y627156D01*
X557020Y632934D01*
X565967Y630386D01*
D02*
G37*
G36*
X568841Y563595D02*
X560220Y554973D01*
X558131Y564379D01*
X563878Y570126D01*
X568841Y563595D01*
D02*
G37*
G36*
X650166Y529688D02*
Y424702D01*
X648896Y424176D01*
X643065Y430007D01*
X638011Y432101D01*
X580099D01*
X575044Y430007D01*
X569010Y423973D01*
X528147D01*
Y446953D01*
X527342Y448897D01*
X525398Y449702D01*
X464249D01*
X462400Y448936D01*
X460247Y451089D01*
X454586D01*
X453750Y450253D01*
X420590D01*
X420364Y450591D01*
Y453500D01*
X434062D01*
X436843Y452349D01*
X441897Y454442D01*
X524385Y536931D01*
X526177D01*
X526703Y535661D01*
X526022Y534979D01*
X525260Y534664D01*
X524945Y533902D01*
X523482Y532439D01*
Y530371D01*
X523167Y529609D01*
X523482Y528848D01*
Y526779D01*
X524945Y525317D01*
X525260Y524555D01*
X526022Y524239D01*
X527485Y522777D01*
X529553D01*
X530315Y522461D01*
X540511D01*
Y521669D01*
X562791D01*
Y536931D01*
X579337D01*
X584391Y539024D01*
X591188Y545821D01*
X634034D01*
X650166Y529688D01*
D02*
G37*
G36*
X40132Y526494D02*
X38932Y525276D01*
X34833Y520538D01*
X34393Y519860D01*
X34080Y519273D01*
X33894Y518777D01*
X33834Y518370D01*
X26261Y525943D01*
X26668Y526003D01*
X27164Y526189D01*
X27752Y526502D01*
X28429Y526942D01*
X29196Y527509D01*
X31001Y529022D01*
X33167Y531041D01*
X34385Y532242D01*
X40132Y526494D01*
D02*
G37*
G36*
X378509Y518994D02*
X373500Y515579D01*
X373454Y515619D01*
X373108Y515956D01*
X369227Y519822D01*
X374267Y523268D01*
X378509Y518994D01*
D02*
G37*
G36*
X426116Y474231D02*
X420961Y474236D01*
Y480236D01*
X426116Y480241D01*
Y474231D01*
D02*
G37*
G36*
X59294Y467010D02*
X59480Y466514D01*
X59794Y465927D01*
X60233Y465250D01*
X60800Y464482D01*
X62313Y462677D01*
X64332Y460511D01*
X65532Y459293D01*
X59785Y453546D01*
X58567Y454746D01*
X53829Y458845D01*
X53151Y459285D01*
X52565Y459598D01*
X52068Y459784D01*
X51661Y459844D01*
X59234Y467417D01*
X59294Y467010D01*
D02*
G37*
G36*
X354058Y445861D02*
X348048D01*
X348053Y451017D01*
X354053D01*
X354058Y445861D01*
D02*
G37*
G36*
X454351Y441252D02*
X449195Y441257D01*
Y447257D01*
X454351Y447262D01*
Y441252D01*
D02*
G37*
G36*
X525398Y423973D02*
X414911D01*
X399768Y439117D01*
X400661Y440017D01*
X404901Y438260D01*
X453750D01*
X454586Y437424D01*
X460247D01*
X464249Y441427D01*
Y446953D01*
X525398D01*
Y423973D01*
D02*
G37*
G36*
X262563Y425204D02*
Y411657D01*
X251510Y400605D01*
X167884D01*
X167122Y400289D01*
X165054D01*
X163591Y398827D01*
X162830Y398511D01*
X162514Y397749D01*
X161052Y396287D01*
Y394218D01*
X160736Y393457D01*
X161052Y392695D01*
Y390626D01*
X162514Y389164D01*
X162830Y388402D01*
X163591Y388087D01*
X165054Y386624D01*
X167122D01*
X167884Y386309D01*
X254471D01*
X259525Y388402D01*
X274765Y403642D01*
X276057Y406762D01*
X276778Y406863D01*
X277463Y406837D01*
X374672Y309628D01*
X374186Y308455D01*
X368978D01*
X287465Y389968D01*
X286703Y390284D01*
X285241Y391746D01*
X283172D01*
X282411Y392062D01*
X281649Y391746D01*
X279580D01*
X278118Y390284D01*
X277356Y389968D01*
X277041Y389206D01*
X275578Y387744D01*
Y385675D01*
X275263Y384914D01*
Y338722D01*
X229071D01*
X224016Y336628D01*
X221922Y331574D01*
Y308455D01*
X173365D01*
X125779Y356041D01*
X125960Y424663D01*
X160370D01*
X161063Y423392D01*
X160963Y423149D01*
X159500Y421687D01*
Y419618D01*
X159185Y418857D01*
X159500Y418095D01*
Y416026D01*
X160963Y414564D01*
X161278Y413802D01*
X162040Y413487D01*
X163503Y412024D01*
X165571D01*
X166333Y411708D01*
X244311D01*
X249365Y413802D01*
X261292Y425730D01*
X262563Y425204D01*
D02*
G37*
G36*
X344278Y445683D02*
X344221Y445625D01*
Y439965D01*
X348223Y435963D01*
X353883D01*
X356583Y438663D01*
X357757Y438177D01*
Y426655D01*
X356605Y423874D01*
X358699Y418820D01*
X467890Y309628D01*
X467404Y308455D01*
X415165D01*
X414986Y308887D01*
Y310955D01*
X415302Y311717D01*
X414986Y312479D01*
Y314547D01*
X413524Y316010D01*
X413208Y316771D01*
X303202Y426778D01*
Y446953D01*
X306758D01*
Y431557D01*
X307074Y430795D01*
Y428727D01*
X308537Y427264D01*
X308852Y426502D01*
X309614Y426187D01*
X311077Y424724D01*
X313145D01*
X313907Y424408D01*
X314668Y424724D01*
X316737D01*
X317539Y425526D01*
X317838Y425515D01*
X318673Y424213D01*
X318505Y423807D01*
X320599Y418753D01*
X403099Y336252D01*
X403861Y335936D01*
X405324Y334474D01*
X407392D01*
X408154Y334158D01*
X408916Y334474D01*
X410984D01*
X412447Y335936D01*
X413208Y336252D01*
X413524Y337014D01*
X414986Y338476D01*
Y340545D01*
X415302Y341306D01*
X414986Y342068D01*
Y344137D01*
X413524Y345599D01*
X413208Y346361D01*
X331650Y427920D01*
Y446953D01*
X343752D01*
X344278Y445683D01*
D02*
G37*
G36*
X568125Y308799D02*
X570218Y303744D01*
X593952Y280011D01*
X594214Y279660D01*
X594540Y279165D01*
X594708Y278858D01*
X594720Y278828D01*
X594734Y278739D01*
X594791Y278643D01*
X594828Y278549D01*
X594885Y278489D01*
X594911Y278447D01*
Y274905D01*
X600815Y269000D01*
X608406D01*
X608932Y267731D01*
X593323Y252122D01*
X562791D01*
Y252913D01*
X540511D01*
Y238327D01*
X539713Y237283D01*
X538951Y236967D01*
X536883D01*
X535420Y235505D01*
X534658Y235189D01*
X534425Y234625D01*
X533618Y234180D01*
X532383Y234823D01*
Y275089D01*
X533653Y275616D01*
X535942Y273326D01*
X540511Y271434D01*
Y270441D01*
X562791D01*
Y286320D01*
X543166D01*
X542989Y286497D01*
X542228Y286813D01*
X540765Y288275D01*
X538696D01*
X537935Y288591D01*
X537173Y288275D01*
X535104D01*
X534098Y287269D01*
X532845Y287811D01*
X532772Y288778D01*
X534266Y290271D01*
X537401D01*
X542456Y292365D01*
X549085Y298994D01*
X549436Y299840D01*
X562791D01*
Y315720D01*
X551179D01*
Y324485D01*
X552262Y325350D01*
X552352Y325374D01*
X552412Y325349D01*
X553875Y323886D01*
X555943D01*
X556705Y323571D01*
X557467Y323886D01*
X559535D01*
X560998Y325349D01*
X561760Y325664D01*
X562075Y326426D01*
X563538Y327888D01*
Y329957D01*
X563853Y330719D01*
Y341188D01*
X562791Y343753D01*
Y349128D01*
X543559D01*
Y362648D01*
X562791D01*
Y378527D01*
X540511D01*
Y377736D01*
X536411D01*
X531356Y375642D01*
X529263Y370588D01*
Y332681D01*
X531356Y327627D01*
X536883Y322100D01*
Y318647D01*
X535640Y317812D01*
X535612Y317812D01*
X534161Y319263D01*
X532092D01*
X531331Y319579D01*
X478158D01*
X414984Y382752D01*
X415510Y384022D01*
X568125D01*
Y308799D01*
D02*
G37*
G36*
X598178Y291658D02*
X602829Y287608D01*
X603487Y287173D01*
X604054Y286864D01*
X604530Y286679D01*
X604915Y286620D01*
X597451Y279156D01*
X597392Y279541D01*
X597208Y280017D01*
X596898Y280584D01*
X596464Y281242D01*
X595904Y281991D01*
X594409Y283760D01*
X591228Y287096D01*
X596976Y292843D01*
X598178Y291658D01*
D02*
G37*
G36*
X630315Y271541D02*
X629930Y271482D01*
X629454Y271297D01*
X628887Y270988D01*
X628229Y270553D01*
X627480Y269994D01*
X625711Y268499D01*
X622376Y265318D01*
X616628Y271065D01*
X617814Y272268D01*
X621864Y276919D01*
X622298Y277577D01*
X622608Y278144D01*
X622792Y278620D01*
X622851Y279005D01*
X630315Y271541D01*
D02*
G37*
G36*
X618753Y224289D02*
X617568Y223086D01*
X613518Y218435D01*
X613083Y217777D01*
X612774Y217210D01*
X612589Y216734D01*
X612530Y216349D01*
X605066Y223813D01*
X605451Y223872D01*
X605928Y224056D01*
X606495Y224366D01*
X607152Y224800D01*
X607901Y225360D01*
X609670Y226855D01*
X613006Y230036D01*
X618753Y224289D01*
D02*
G37*
G36*
X630315Y208734D02*
X629930Y208675D01*
X629454Y208490D01*
X628887Y208181D01*
X628229Y207746D01*
X627480Y207187D01*
X625711Y205692D01*
X622376Y202511D01*
X616628Y208258D01*
X617814Y209461D01*
X621864Y214112D01*
X622298Y214769D01*
X622608Y215336D01*
X622792Y215813D01*
X622851Y216198D01*
X630315Y208734D01*
D02*
G37*
G36*
Y145926D02*
X629930Y145867D01*
X629454Y145683D01*
X628887Y145373D01*
X628229Y144939D01*
X627480Y144379D01*
X625711Y142884D01*
X622376Y139703D01*
X616628Y145451D01*
X617814Y146653D01*
X621864Y151304D01*
X622298Y151962D01*
X622608Y152529D01*
X622792Y153005D01*
X622851Y153390D01*
X630315Y145926D01*
D02*
G37*
G36*
X163005Y211532D02*
X190729Y65845D01*
X189919Y64867D01*
X109721D01*
X109422Y64940D01*
X109257Y65105D01*
X109248Y65118D01*
X108597Y66035D01*
X108597Y66189D01*
X108597Y66189D01*
X108560Y66174D01*
X108561Y66084D01*
X108506Y65925D01*
X107805Y65091D01*
X107658Y64966D01*
X97693Y62984D01*
X88453Y56810D01*
X82278Y47569D01*
X80296Y37604D01*
X80072Y37341D01*
X79083Y36666D01*
X79073Y36666D01*
X79073Y36666D01*
X79073Y36665D01*
X79082Y36665D01*
X79735Y36279D01*
X80101Y36061D01*
X80395Y35767D01*
Y20103D01*
X80054Y19773D01*
X79266Y19228D01*
X79130Y19233D01*
X79073Y19095D01*
X79073Y19095D01*
X79389Y17949D01*
X78433Y13143D01*
X74776Y7670D01*
X69302Y4012D01*
X62846Y2728D01*
X62428Y2811D01*
X62428Y2811D01*
Y2811D01*
X62332Y2050D01*
X41128Y2050D01*
X24547D01*
X23603Y2831D01*
X23603Y2831D01*
X23603Y2831D01*
X23602Y2830D01*
X22393Y2760D01*
X15578Y4115D01*
X9439Y8217D01*
X5337Y14356D01*
X4150Y20328D01*
X4574Y21598D01*
X4574Y21598D01*
X4559Y21635D01*
X4154Y21632D01*
X3385Y22394D01*
X3252Y22601D01*
Y143779D01*
X40273Y167409D01*
X61741Y181772D01*
X62547Y180791D01*
X44775Y163019D01*
X40080D01*
Y155003D01*
X37999Y149979D01*
X40080Y144955D01*
Y136939D01*
X48096D01*
X53120Y134858D01*
X58144Y136939D01*
X66160D01*
Y141635D01*
X129153Y204628D01*
X149971D01*
X160663Y209056D01*
X161742Y211662D01*
X163005Y211532D01*
D02*
G37*
G36*
X552029Y124698D02*
X543112Y122181D01*
X537334Y127928D01*
X546281Y130476D01*
X552029Y124698D01*
D02*
G37*
G36*
X618753Y98674D02*
X617568Y97471D01*
X613518Y92820D01*
X613083Y92163D01*
X612774Y91596D01*
X612589Y91119D01*
X612530Y90734D01*
X605066Y98198D01*
X605451Y98258D01*
X605928Y98442D01*
X606495Y98751D01*
X607152Y99186D01*
X607901Y99746D01*
X609670Y101240D01*
X613006Y104421D01*
X618753Y98674D01*
D02*
G37*
%LPC*%
G36*
X808191Y796660D02*
X797498Y792231D01*
X793070Y781539D01*
X797498Y770846D01*
X808464Y759881D01*
X819156Y755452D01*
X903441D01*
X908465Y757533D01*
X908842D01*
X909109Y757800D01*
X914133Y759881D01*
X916214Y764905D01*
X916481Y765172D01*
Y765549D01*
X918562Y770574D01*
X916481Y775598D01*
Y775975D01*
X916214Y776242D01*
X914133Y781266D01*
X909109Y783347D01*
X908842Y783614D01*
X908465D01*
X903441Y785695D01*
X825419D01*
X818883Y792231D01*
X808191Y796660D01*
D02*
G37*
G36*
X903441Y735695D02*
X856515D01*
X852067Y733852D01*
X808191D01*
X797498Y729423D01*
X793070Y718731D01*
X797498Y708039D01*
X808191Y703610D01*
X854673D01*
X859121Y705453D01*
X903441D01*
X908465Y707534D01*
X916481D01*
Y715550D01*
X918562Y720574D01*
X916481Y725598D01*
Y733614D01*
X908465D01*
X903441Y735695D01*
D02*
G37*
G36*
X808191Y671045D02*
X797498Y666616D01*
X793070Y655924D01*
X797498Y645232D01*
X806151Y636580D01*
X816843Y632151D01*
X903441D01*
X908465Y634232D01*
X908842D01*
X909109Y634499D01*
X914133Y636580D01*
X916214Y641604D01*
X916481Y641870D01*
Y642248D01*
X918562Y647272D01*
X916481Y652296D01*
Y652673D01*
X916214Y652940D01*
X914133Y657964D01*
X909109Y660045D01*
X908842Y660312D01*
X908465D01*
X903441Y662393D01*
X823106D01*
X818883Y666616D01*
X808191Y671045D01*
D02*
G37*
G36*
X903441Y612392D02*
X857811D01*
X847781Y608238D01*
X808191D01*
X797498Y603809D01*
X793070Y593117D01*
X797498Y582425D01*
X808191Y577996D01*
X853657D01*
X863686Y582150D01*
X903441D01*
X908465Y584231D01*
X916481D01*
Y592247D01*
X918562Y597271D01*
X916481Y602295D01*
Y610311D01*
X908465D01*
X903441Y612392D01*
D02*
G37*
G36*
X853791Y545430D02*
X808191D01*
X797498Y541002D01*
X793070Y530309D01*
X797498Y519617D01*
X808191Y515188D01*
X847527D01*
X849438Y513277D01*
X860131Y508848D01*
X903441D01*
X908465Y510929D01*
X908842D01*
X909109Y511196D01*
X914133Y513277D01*
X916214Y518301D01*
X916481Y518568D01*
Y518945D01*
X918562Y523969D01*
X916481Y528993D01*
Y529371D01*
X916214Y529638D01*
X914133Y534662D01*
X909109Y536743D01*
X908842Y537010D01*
X908465D01*
X903441Y539090D01*
X866394D01*
X864483Y541002D01*
X853791Y545430D01*
D02*
G37*
G36*
X903441Y489091D02*
X855460D01*
X844767Y484662D01*
X842729Y482623D01*
X808191D01*
X797498Y478194D01*
X793070Y467502D01*
X797498Y456810D01*
X808191Y452381D01*
X848992D01*
X859684Y456810D01*
X861723Y458849D01*
X903441D01*
X908465Y460930D01*
X916481D01*
Y468946D01*
X918562Y473970D01*
X916481Y478994D01*
Y487010D01*
X908465D01*
X903441Y489091D01*
D02*
G37*
G36*
X853657Y419816D02*
X808191D01*
X797498Y415387D01*
X793070Y404695D01*
X797498Y394003D01*
X808191Y389574D01*
X847961D01*
X857684Y385547D01*
X903441D01*
X908465Y387628D01*
X908842D01*
X909109Y387895D01*
X914133Y389976D01*
X916214Y395000D01*
X916481Y395266D01*
Y395644D01*
X918562Y400668D01*
X916481Y405692D01*
Y406069D01*
X916214Y406336D01*
X914133Y411360D01*
X909109Y413441D01*
X908842Y413708D01*
X908465D01*
X903441Y415789D01*
X863380D01*
X853657Y419816D01*
D02*
G37*
G36*
X903441Y365789D02*
X816971D01*
X806279Y361360D01*
X797498Y352580D01*
X793070Y341888D01*
X797498Y331195D01*
X808191Y326767D01*
X818883Y331195D01*
X823234Y335547D01*
X903441D01*
X908465Y337628D01*
X916481D01*
Y345644D01*
X918562Y350668D01*
X916481Y355692D01*
Y363708D01*
X908465D01*
X903441Y365789D01*
D02*
G37*
G36*
X854927Y294202D02*
X808191D01*
X797498Y289773D01*
X793070Y279081D01*
X797498Y268388D01*
X808191Y263959D01*
X852501D01*
X856642Y262244D01*
X903441D01*
X908465Y264326D01*
X908842D01*
X909109Y264592D01*
X914133Y266673D01*
X916214Y271697D01*
X916481Y271964D01*
Y272341D01*
X918562Y277365D01*
X916481Y282390D01*
Y282767D01*
X916214Y283034D01*
X914133Y288058D01*
X909109Y290139D01*
X908842Y290406D01*
X908465D01*
X903441Y292486D01*
X859067D01*
X854927Y294202D01*
D02*
G37*
G36*
X903441Y242487D02*
X819283D01*
X808591Y238058D01*
X797498Y226966D01*
X793070Y216273D01*
X797498Y205581D01*
X808191Y201152D01*
X818883Y205581D01*
X825546Y212244D01*
X903441D01*
X908465Y214326D01*
X916481D01*
Y222341D01*
X918562Y227366D01*
X916481Y232390D01*
Y240406D01*
X908465D01*
X903441Y242487D01*
D02*
G37*
G36*
Y169185D02*
X856033D01*
X854589Y168587D01*
X808191D01*
X797498Y164158D01*
X793070Y153466D01*
X797498Y142774D01*
X808191Y138345D01*
X855435D01*
X856878Y138943D01*
X903441D01*
X908465Y141024D01*
X908842D01*
X909109Y141291D01*
X914133Y143371D01*
X916214Y148396D01*
X916481Y148662D01*
Y149040D01*
X918562Y154064D01*
X916481Y159088D01*
Y159465D01*
X916214Y159732D01*
X914133Y164756D01*
X909109Y166837D01*
X908842Y167104D01*
X908465D01*
X903441Y169185D01*
D02*
G37*
G36*
Y119185D02*
X821596D01*
X810904Y114756D01*
X797498Y101351D01*
X793070Y90659D01*
X797498Y79967D01*
X808191Y75538D01*
X818883Y79967D01*
X827859Y88943D01*
X903441D01*
X908465Y91024D01*
X916481D01*
Y99040D01*
X918562Y104064D01*
X916481Y109088D01*
Y117104D01*
X908465D01*
X903441Y119185D01*
D02*
G37*
G36*
Y911356D02*
X896751Y910025D01*
X891080Y906236D01*
X887290Y900565D01*
X885960Y893875D01*
Y861356D01*
X794327D01*
X787638Y860026D01*
X781966Y856236D01*
X719630Y793900D01*
X715840Y788228D01*
X714510Y781539D01*
Y718731D01*
Y655924D01*
Y593117D01*
Y530309D01*
Y467502D01*
Y404695D01*
Y341888D01*
Y279081D01*
Y216273D01*
Y153466D01*
Y90659D01*
X715840Y83969D01*
X719630Y78298D01*
X725301Y74509D01*
X731991Y73178D01*
X738680Y74509D01*
X744352Y78298D01*
X748141Y83969D01*
X749472Y90659D01*
Y153466D01*
Y216273D01*
Y279081D01*
Y341888D01*
Y404695D01*
Y467502D01*
Y530309D01*
Y593117D01*
Y655924D01*
Y718731D01*
Y774298D01*
X801568Y826395D01*
X903441D01*
X910130Y827725D01*
X914785Y830835D01*
X916481D01*
Y832531D01*
X919591Y837186D01*
X920922Y843875D01*
Y893875D01*
X919591Y900565D01*
X915801Y906236D01*
X910130Y910025D01*
X903441Y911356D01*
D02*
G37*
G36*
X914436Y72581D02*
X901491D01*
X889531Y67627D01*
X880378Y58473D01*
X875424Y46513D01*
Y33568D01*
X880378Y21608D01*
X889531Y12455D01*
X901491Y7501D01*
X914436D01*
X926396Y12455D01*
X935550Y21608D01*
X940504Y33568D01*
Y46513D01*
X935550Y58473D01*
X926396Y67627D01*
X914436Y72581D01*
D02*
G37*
G36*
X349237Y885558D02*
X323157D01*
Y859478D01*
X349237D01*
Y885558D01*
D02*
G37*
G36*
X291599D02*
X280796D01*
X273157Y877919D01*
Y867117D01*
X280796Y859478D01*
X291599D01*
X299237Y867117D01*
Y877919D01*
X291599Y885558D01*
D02*
G37*
G36*
X438406Y754812D02*
X433136D01*
Y750042D01*
X438406D01*
Y754812D01*
D02*
G37*
G36*
X430596D02*
X425326D01*
Y750042D01*
X430596D01*
Y754812D01*
D02*
G37*
G36*
X438406Y747502D02*
X433136D01*
Y742732D01*
X438406D01*
Y747502D01*
D02*
G37*
G36*
X430596D02*
X425326D01*
Y742732D01*
X430596D01*
Y747502D01*
D02*
G37*
G36*
X416968Y749100D02*
X415988D01*
Y737710D01*
X420529D01*
Y741679D01*
X417671Y738841D01*
X416649Y746243D01*
X416690Y746290D01*
X417326Y746939D01*
X418746Y748364D01*
X416968Y749100D01*
D02*
G37*
G36*
X420529Y735170D02*
X415988D01*
Y723778D01*
X416968D01*
X419486Y724821D01*
X420529Y727339D01*
Y735170D01*
D02*
G37*
G36*
X562791Y725972D02*
X540511D01*
Y725180D01*
X537681D01*
X536919Y724864D01*
X534851D01*
X533388Y723402D01*
X532626Y723086D01*
X532311Y722324D01*
X530848Y720862D01*
Y718793D01*
X530532Y718032D01*
X530848Y717270D01*
Y715201D01*
X532311Y713739D01*
X532626Y712977D01*
X533388Y712662D01*
X534851Y711199D01*
X536919D01*
X537681Y710883D01*
X540511D01*
Y710092D01*
X562791D01*
Y725972D01*
D02*
G37*
G36*
X235893Y722248D02*
X222685D01*
X215687Y719349D01*
X212788Y712350D01*
X215687Y705352D01*
X222685Y702453D01*
X235893D01*
X242892Y705352D01*
X245791Y712350D01*
X242892Y719349D01*
X235893Y722248D01*
D02*
G37*
G36*
X476213Y694229D02*
X407887D01*
X407125Y693913D01*
X405056D01*
X403594Y692451D01*
X402832Y692135D01*
X402517Y691374D01*
X401054Y689911D01*
Y687842D01*
X400738Y687081D01*
X401054Y686319D01*
Y684250D01*
X402517Y682788D01*
X402832Y682026D01*
X403594Y681711D01*
X405056Y680248D01*
X407125D01*
X407887Y679932D01*
X476213D01*
X476974Y680248D01*
X479043D01*
X480505Y681711D01*
X481267Y682026D01*
X481583Y682788D01*
X483045Y684250D01*
Y686319D01*
X483361Y687081D01*
X483045Y687842D01*
Y689911D01*
X481583Y691374D01*
X481267Y692135D01*
X480505Y692451D01*
X479043Y693913D01*
X476974D01*
X476213Y694229D01*
D02*
G37*
G36*
X235893Y696848D02*
X222685D01*
X215687Y693949D01*
X212788Y686950D01*
X215687Y679952D01*
X222685Y677053D01*
X235893D01*
X242892Y679952D01*
X245791Y686950D01*
X242892Y693949D01*
X235893Y696848D01*
D02*
G37*
G36*
Y671448D02*
X222685D01*
X215687Y668549D01*
X212788Y661550D01*
X215687Y654552D01*
X222685Y651653D01*
X235893D01*
X242892Y654552D01*
X245791Y661550D01*
X242892Y668549D01*
X235893Y671448D01*
D02*
G37*
G36*
X263229Y626973D02*
X257959D01*
Y622203D01*
X263229D01*
Y626973D01*
D02*
G37*
G36*
X255419D02*
X250149D01*
Y622203D01*
X255419D01*
Y626973D01*
D02*
G37*
G36*
X263229Y619663D02*
X257959D01*
Y614893D01*
X263229D01*
Y619663D01*
D02*
G37*
G36*
X255419D02*
X250149D01*
Y614893D01*
X255419D01*
Y619663D01*
D02*
G37*
G36*
X235893Y620648D02*
X222685D01*
X215687Y617749D01*
X212788Y610750D01*
X215687Y603752D01*
X222685Y600853D01*
X235893D01*
X242892Y603752D01*
X245791Y610750D01*
X242892Y617749D01*
X235893Y620648D01*
D02*
G37*
G36*
X256689Y610470D02*
X255487Y609973D01*
X250149D01*
Y597893D01*
X249538Y596876D01*
X245160Y592498D01*
X242531D01*
X235893Y595248D01*
X222685D01*
X215687Y592349D01*
X212788Y585350D01*
X215687Y578352D01*
X222685Y575453D01*
X235893D01*
X242530Y578202D01*
X248121D01*
X253175Y580296D01*
X261743Y588864D01*
X263837Y593918D01*
X263226Y595392D01*
Y597893D01*
X263229D01*
Y609973D01*
X257890D01*
X256689Y610470D01*
D02*
G37*
G36*
X562791Y600357D02*
X540511D01*
Y599565D01*
X533871D01*
X533109Y599249D01*
X531040D01*
X529578Y597787D01*
X528816Y597471D01*
X528501Y596710D01*
X527038Y595247D01*
Y593179D01*
X526722Y592417D01*
X527038Y591655D01*
Y589587D01*
X528501Y588124D01*
X528816Y587362D01*
X529578Y587047D01*
X531040Y585584D01*
X533109D01*
X533871Y585269D01*
X540511D01*
Y584477D01*
X562791D01*
Y600357D01*
D02*
G37*
G36*
X159693Y569848D02*
X146485D01*
X139487Y566949D01*
X136588Y559950D01*
X139487Y552952D01*
X146485Y550053D01*
X159693D01*
X166692Y552952D01*
X169591Y559950D01*
X166692Y566949D01*
X159693Y569848D01*
D02*
G37*
G36*
Y544448D02*
X146485D01*
X139487Y541549D01*
X136588Y534550D01*
X139487Y527552D01*
X146485Y524653D01*
X159693D01*
X166692Y527552D01*
X169591Y534550D01*
X166692Y541549D01*
X159693Y544448D01*
D02*
G37*
G36*
Y519048D02*
X146485D01*
X139487Y516149D01*
X136588Y509150D01*
X139487Y502152D01*
X146485Y499253D01*
X159693D01*
X166692Y502152D01*
X169591Y509150D01*
X166692Y516149D01*
X159693Y519048D01*
D02*
G37*
G36*
X310305Y502898D02*
X305035D01*
Y498128D01*
X310305D01*
Y502898D01*
D02*
G37*
G36*
X302495D02*
X297225D01*
Y498128D01*
X302495D01*
Y502898D01*
D02*
G37*
G36*
X324383Y507921D02*
X319842D01*
Y500091D01*
X320885Y497573D01*
X323403Y496530D01*
X324383D01*
Y507921D01*
D02*
G37*
G36*
X310305Y495588D02*
X305035D01*
Y490818D01*
X310305D01*
Y495588D01*
D02*
G37*
G36*
X302495D02*
X297225D01*
Y490818D01*
X302495D01*
Y495588D01*
D02*
G37*
G36*
X55806Y503084D02*
X47364D01*
X41395Y497114D01*
Y488673D01*
X47364Y482704D01*
X55806D01*
X61775Y488673D01*
Y497114D01*
X55806Y503084D01*
D02*
G37*
G36*
X30405D02*
X21964D01*
X15995Y497114D01*
Y488673D01*
X21964Y482704D01*
X30405D01*
X36375Y488673D01*
Y497114D01*
X30405Y503084D01*
D02*
G37*
G36*
X36375Y477684D02*
X15995D01*
Y457304D01*
X36375D01*
Y477684D01*
D02*
G37*
G36*
X290732Y369232D02*
X290227Y369023D01*
X289680D01*
X288507Y368537D01*
X288120Y368150D01*
X287615Y367941D01*
X287405Y367436D01*
X287019Y367049D01*
Y366502D01*
X286810Y365997D01*
Y332121D01*
X285361Y328623D01*
X281864Y327175D01*
X236219D01*
X234275Y326370D01*
X233470Y324426D01*
Y308455D01*
X234275Y306511D01*
X236219Y305706D01*
X347101D01*
X347606Y305915D01*
X348153D01*
X348540Y306302D01*
X349045Y306511D01*
X349254Y307016D01*
X349641Y307403D01*
X350127Y308576D01*
Y309123D01*
X350336Y309628D01*
X350127Y310134D01*
Y310681D01*
X349740Y311067D01*
X349531Y311572D01*
X292676Y368427D01*
X292171Y368637D01*
X291784Y369023D01*
X291237D01*
X290732Y369232D01*
D02*
G37*
G36*
X490130Y109789D02*
X481812D01*
X475931Y103907D01*
Y95590D01*
X481812Y89709D01*
X490130D01*
X496011Y95590D01*
Y103907D01*
X490130Y109789D01*
D02*
G37*
%LPD*%
G36*
X347587Y309628D02*
X347101Y308455D01*
X236219D01*
Y324426D01*
X282411D01*
X287465Y326519D01*
X289559Y331574D01*
Y365997D01*
X290732Y366483D01*
X347587Y309628D01*
D02*
G37*
%LPC*%
G36*
X634566Y540389D02*
X626215D01*
X620311Y534485D01*
Y526134D01*
X626215Y520229D01*
X634566D01*
X640471Y526134D01*
Y534485D01*
X634566Y540389D01*
D02*
G37*
G36*
X609166D02*
X600815D01*
X594911Y534485D01*
Y526134D01*
X600815Y520229D01*
X609166D01*
X615071Y526134D01*
Y534485D01*
X609166Y540389D01*
D02*
G37*
G36*
X562791Y504142D02*
X540511D01*
Y503350D01*
X531206D01*
X526152Y501257D01*
X518148Y493253D01*
X516054Y488199D01*
Y467879D01*
X518148Y462824D01*
X540511Y440462D01*
Y425455D01*
X562791D01*
Y431124D01*
X566997Y435331D01*
X621247D01*
X626301Y437424D01*
X635445Y446568D01*
X637539Y451623D01*
Y459996D01*
X637554Y460098D01*
X637616Y460384D01*
X637665Y460521D01*
X640471Y463327D01*
Y471678D01*
X634566Y477582D01*
X626215D01*
X620311Y471678D01*
Y463327D01*
X623100Y460538D01*
X623242Y458465D01*
Y454584D01*
X618286Y449627D01*
X564036D01*
X558982Y447533D01*
X556571Y445122D01*
X555943Y445247D01*
X543501Y457689D01*
X543987Y458862D01*
X562791D01*
Y474742D01*
X548740D01*
X543243Y480239D01*
X542481Y480554D01*
X541019Y482017D01*
X538950D01*
X538189Y482332D01*
X537427Y482017D01*
X535359D01*
X533896Y480554D01*
X533134Y480239D01*
X532819Y479477D01*
X531621Y478279D01*
X530351Y478653D01*
Y485238D01*
X534167Y489054D01*
X540511D01*
Y488262D01*
X562791D01*
Y504142D01*
D02*
G37*
G36*
X609166Y477582D02*
X600815D01*
X594911Y471678D01*
Y463327D01*
X600815Y457422D01*
X609166D01*
X615071Y463327D01*
Y471678D01*
X609166Y477582D01*
D02*
G37*
%LPD*%
G36*
X635103Y461523D02*
X634967Y461140D01*
X634847Y460590D01*
X634743Y459875D01*
X634583Y457947D01*
X634463Y453813D01*
X634455Y452103D01*
X626327D01*
X626319Y453813D01*
X625814Y461140D01*
X625678Y461523D01*
X625526Y461741D01*
X635255D01*
X635103Y461523D01*
D02*
G37*
%LPC*%
G36*
X149971Y174870D02*
X139278Y170441D01*
X83937Y115099D01*
X53120D01*
X48096Y113019D01*
X47718D01*
X47452Y112752D01*
X42428Y110671D01*
X40347Y105647D01*
X40080Y105380D01*
Y105002D01*
X37999Y99979D01*
X40080Y94954D01*
Y94577D01*
X40347Y94310D01*
X42428Y89286D01*
X47452Y87205D01*
X47718Y86938D01*
X48096D01*
X53120Y84857D01*
X90200D01*
X100892Y89286D01*
X160663Y149057D01*
X165091Y159749D01*
X160663Y170441D01*
X149971Y174870D01*
D02*
G37*
G36*
X46783Y72339D02*
X33838D01*
X21878Y67385D01*
X12724Y58232D01*
X7771Y46272D01*
Y33327D01*
X12724Y21367D01*
X21878Y12213D01*
X33838Y7259D01*
X46783D01*
X58743Y12213D01*
X67897Y21367D01*
X72851Y33327D01*
Y46272D01*
X67897Y58232D01*
X58743Y67385D01*
X46783Y72339D01*
D02*
G37*
%LPD*%
D16*
X431866Y748772D02*
D03*
Y765772D02*
D03*
X303765Y479858D02*
D03*
Y496858D02*
D03*
X256689Y620933D02*
D03*
Y603933D02*
D03*
D19*
X551651Y780839D02*
D03*
Y810239D02*
D03*
Y718032D02*
D03*
Y747432D02*
D03*
Y655224D02*
D03*
Y684624D02*
D03*
Y592417D02*
D03*
Y621817D02*
D03*
Y529609D02*
D03*
Y559009D02*
D03*
Y466802D02*
D03*
Y496202D02*
D03*
Y403995D02*
D03*
Y433395D02*
D03*
Y341188D02*
D03*
Y370588D02*
D03*
Y278380D02*
D03*
Y307780D02*
D03*
Y215573D02*
D03*
Y244973D02*
D03*
Y152766D02*
D03*
Y182166D02*
D03*
Y89959D02*
D03*
Y119359D02*
D03*
D51*
X731991Y718731D02*
Y781539D01*
Y655924D02*
Y718731D01*
Y593117D02*
Y655924D01*
Y530309D02*
Y593117D01*
Y467502D02*
Y530309D01*
Y404695D02*
Y467502D01*
Y341888D02*
Y404695D01*
Y279081D02*
Y341888D01*
Y216273D02*
Y279081D01*
Y153466D02*
Y216273D01*
Y90659D02*
Y153466D01*
X903441Y843875D02*
Y893875D01*
X731991Y781539D02*
X794327Y843875D01*
X903441D01*
D52*
X644615Y255897D02*
Y418349D01*
X604991Y216273D02*
X644615Y255897D01*
X657315Y142983D02*
Y532649D01*
X550889Y433395D02*
Y440193D01*
X544031Y307780D02*
Y325061D01*
Y304049D02*
Y307780D01*
X477991Y735849D02*
X529215Y684624D01*
X296054Y423817D02*
Y479858D01*
X403418Y707401D02*
X431866Y735849D01*
X51585Y518294D02*
X77433Y492445D01*
X548603Y215573D02*
Y221245D01*
X556705Y330719D02*
Y341188D01*
X551651Y780839D02*
X565621D01*
X536411Y747432D02*
X551651D01*
X536411Y810239D02*
X551651D01*
X536411Y370588D02*
X551651D01*
X536411Y332681D02*
Y370588D01*
X537401Y297419D02*
X544031Y304049D01*
X531305Y297419D02*
X537401D01*
X525235Y291349D02*
X531305Y297419D01*
X536411Y332681D02*
X544031Y325061D01*
X525235Y145775D02*
Y291349D01*
Y145775D02*
X551651Y119359D01*
X407887Y687081D02*
X476213D01*
Y759217D02*
X523711Y806715D01*
X410173Y75703D02*
X644615D01*
X359881Y125995D02*
X410173Y75703D01*
X202207Y269505D02*
X216371D01*
X26185Y445527D02*
X202207Y269505D01*
X387576Y279748D02*
X414661D01*
X282411Y384914D02*
X387576Y279748D01*
X27903Y204735D02*
X68543Y245375D01*
X229071D01*
Y331574D01*
X282411D01*
Y384914D01*
Y411999D02*
X414661Y279748D01*
X288253Y496858D02*
X303765D01*
X282411Y491016D02*
X288253Y496858D01*
X282411Y411999D02*
Y491016D01*
X414661Y279748D02*
X485971D01*
X153089Y636150D02*
X195660D01*
X203925Y644415D01*
X538189Y152766D02*
Y170699D01*
Y152766D02*
X551651D01*
X325653Y423807D02*
X408154Y341306D01*
X296054Y423817D02*
X408154Y311717D01*
X436843Y459497D02*
X521425Y544079D01*
X579337D01*
X588227Y552969D01*
X636995D01*
X657315Y532649D01*
X604991Y90659D02*
X657315Y142983D01*
X551651Y119359D02*
X596283D01*
X630391Y153466D01*
X638011Y424953D02*
X644615Y418349D01*
X580099Y424953D02*
X638011D01*
X571971Y416825D02*
X580099Y424953D01*
X411951Y416825D02*
X571971D01*
X389153Y439622D02*
X411951Y416825D01*
X551651Y182166D02*
X596283D01*
X630391Y216273D01*
X596283Y244973D02*
X630391Y279081D01*
X551651Y244973D02*
X596283D01*
X630391Y451623D02*
Y467502D01*
X621247Y442479D02*
X630391Y451623D01*
X564036Y442479D02*
X621247D01*
X554953Y433395D02*
X564036Y442479D01*
X551651Y433395D02*
X554953D01*
X630391Y583449D02*
Y593117D01*
X624041Y577099D02*
X630391Y583449D01*
X576598Y577099D02*
X624041D01*
X558509Y559009D02*
X576598Y577099D01*
X551651Y559009D02*
X558509D01*
X601691Y810239D02*
X630391Y781539D01*
X551651Y810239D02*
X601691D01*
X630391Y655924D02*
X684239Y709772D01*
Y837195D01*
X627089Y894345D02*
X684239Y837195D01*
X275553Y894345D02*
X627089D01*
X233897Y852689D02*
X275553Y894345D01*
X99774Y852689D02*
X233897D01*
X79945Y872518D02*
X99774Y852689D01*
X550889Y433395D02*
X551651D01*
X523203Y467879D02*
X550889Y440193D01*
X523203Y467879D02*
Y488199D01*
X531206Y496202D01*
X551651D01*
X529215Y684624D02*
X551651D01*
X544031Y307780D02*
X551651D01*
Y684624D02*
X566891D01*
Y637057D02*
Y684624D01*
X551651Y621817D02*
X566891Y637057D01*
X153089Y763150D02*
X173445D01*
Y816490D01*
X184113Y827158D01*
X281017D01*
X287491Y682170D01*
X414553Y555107D01*
X153089Y737750D02*
X178271D01*
X196777Y756257D01*
Y807565D01*
X203671Y814458D01*
X261903D01*
X268087Y808274D01*
Y683613D02*
Y808274D01*
Y683613D02*
X401853Y549846D01*
X153089Y712350D02*
X191225D01*
X209477Y730603D01*
Y794865D01*
X216371Y801758D01*
X241771D01*
X255387Y788142D01*
Y665240D02*
Y788142D01*
Y665240D02*
X389153Y531474D01*
X153089Y686950D02*
X190971D01*
X200049Y431623D02*
X227867D01*
X250007Y453763D01*
Y508434D01*
X284189Y542616D01*
X350675D01*
X133313Y661550D02*
X153089D01*
X132043Y662820D02*
X133313Y661550D01*
X132043Y662820D02*
Y817637D01*
X154264Y839858D01*
X293650D01*
X301482Y832026D01*
Y692118D02*
Y832026D01*
Y692118D02*
X428475Y565125D01*
Y495057D02*
Y565125D01*
X426189Y492771D02*
X428475Y495057D01*
X167884Y393457D02*
X254471D01*
X269711Y408697D01*
Y499883D01*
X295365Y525537D01*
X166333Y418857D02*
X244311D01*
X257011Y431557D01*
X313907D02*
Y471435D01*
X133821Y483750D02*
X153089D01*
X133821D02*
Y495723D01*
X38571Y590973D02*
X133821Y495723D01*
X38571Y590973D02*
Y804429D01*
X62701Y828559D01*
Y892059D01*
X187963D01*
X207504Y872518D01*
X338518Y678725D02*
X379693Y637551D01*
X51585Y467494D02*
X87268Y431811D01*
X170832D01*
X198591Y459570D01*
Y494549D01*
X213192Y509150D01*
X229289D01*
Y534550D02*
X243418D01*
X271489Y562621D01*
X336767D01*
X26185Y518294D02*
X47144Y539253D01*
X67527D01*
X99531Y507249D01*
Y485151D02*
Y507249D01*
Y485151D02*
X140171Y444511D01*
X165571D01*
X185764Y464704D01*
Y539888D01*
X205826Y559950D01*
X229289D01*
X51585Y518294D02*
X62832D01*
X77433Y503693D01*
X23585Y579953D02*
X51585Y551953D01*
X23585Y579953D02*
Y724059D01*
X10991Y736653D02*
X23585Y724059D01*
X153089Y610750D02*
X189421D01*
X214821Y636150D01*
X229289D01*
X235167D01*
X250384Y620933D01*
X256689D01*
X354801Y707401D02*
X403418D01*
X536411Y89959D02*
X551651D01*
X536411D02*
Y110501D01*
X539713Y230135D02*
X548603Y221245D01*
Y215573D02*
X551651D01*
X540997Y278380D02*
X551651D01*
X537935Y281443D02*
X540997Y278380D01*
X551651Y341188D02*
X556705D01*
X516599Y403995D02*
X551651D01*
X546571Y466802D02*
X551651D01*
X538189Y475184D02*
X546571Y466802D01*
X530315Y529609D02*
X551651D01*
X533871Y592417D02*
X551651D01*
X538951Y655224D02*
X551651D01*
X526144Y668031D02*
X538951Y655224D01*
X537681Y718032D02*
X551651D01*
X565621Y773187D02*
Y780839D01*
X575273Y308799D02*
X604991Y279081D01*
X575273Y308799D02*
Y387107D01*
X571209Y391171D02*
X575273Y387107D01*
X414870Y391171D02*
X571209D01*
X376453Y429587D02*
X414870Y391171D01*
X363753Y423874D02*
X475197Y312431D01*
X531331D01*
X351218Y823331D02*
X379052Y851165D01*
X648428D01*
X671539Y828054D01*
Y722472D02*
Y828054D01*
X604991Y655924D02*
X671539Y722472D01*
X604991Y718731D02*
X627696Y741437D01*
X637503D01*
X657315Y761249D01*
Y817193D01*
X636043Y838465D02*
X657315Y817193D01*
X387286Y838465D02*
X636043D01*
X363918Y815097D02*
X387286Y838465D01*
X399224Y825765D02*
X616993D01*
X644615Y798143D01*
Y773949D02*
Y798143D01*
X638011Y767345D02*
X644615Y773949D01*
X619185Y767345D02*
X638011D01*
X604991Y781539D02*
X619185Y767345D01*
X53049Y597419D02*
X91780Y636150D01*
X153089D01*
X229289Y585350D02*
X248121D01*
X256689Y593918D01*
X107281Y585350D02*
X153089D01*
X84545Y608087D02*
X107281Y585350D01*
D53*
X477991Y735849D02*
X522020D01*
X448067Y765772D02*
X477991Y735849D01*
X431866Y765772D02*
X448067D01*
X536411Y747432D02*
Y810239D01*
X522020Y735849D02*
X536411Y747432D01*
X296054Y479858D02*
X303765D01*
X422895Y765772D02*
X431866D01*
Y735849D02*
Y748772D01*
X256689Y593918D02*
Y603933D01*
D54*
X604991Y90659D02*
D03*
X630391D02*
D03*
X731991D02*
D03*
X604991Y781539D02*
D03*
X630391D02*
D03*
X731991D02*
D03*
Y718731D02*
D03*
X630391D02*
D03*
X604991D02*
D03*
X731991Y655924D02*
D03*
X630391D02*
D03*
X604991D02*
D03*
X731991Y593117D02*
D03*
X630391D02*
D03*
X604991D02*
D03*
X731991Y530309D02*
D03*
X630391D02*
D03*
X604991D02*
D03*
X731991Y467502D02*
D03*
X630391D02*
D03*
X604991D02*
D03*
X731991Y404695D02*
D03*
X630391D02*
D03*
X604991D02*
D03*
X731991Y341888D02*
D03*
X630391D02*
D03*
X604991D02*
D03*
X731991Y279081D02*
D03*
X630391D02*
D03*
X604991D02*
D03*
X731991Y216273D02*
D03*
X630391D02*
D03*
X604991D02*
D03*
X731991Y153466D02*
D03*
X630391D02*
D03*
X604991D02*
D03*
D55*
X808191Y90659D02*
D03*
Y781539D02*
D03*
Y718731D02*
D03*
Y655924D02*
D03*
Y593117D02*
D03*
Y530309D02*
D03*
Y467502D02*
D03*
Y404695D02*
D03*
Y341888D02*
D03*
Y279081D02*
D03*
Y216273D02*
D03*
Y153466D02*
D03*
D56*
X229289Y788550D02*
D03*
Y763150D02*
D03*
Y737750D02*
D03*
Y712350D02*
D03*
Y686950D02*
D03*
Y661550D02*
D03*
Y636150D02*
D03*
Y610750D02*
D03*
Y585350D02*
D03*
Y559950D02*
D03*
Y534550D02*
D03*
Y509150D02*
D03*
Y483750D02*
D03*
Y458350D02*
D03*
X153089D02*
D03*
Y483750D02*
D03*
Y509150D02*
D03*
Y534550D02*
D03*
Y559950D02*
D03*
Y585350D02*
D03*
Y610750D02*
D03*
Y636150D02*
D03*
Y661550D02*
D03*
Y686950D02*
D03*
Y712350D02*
D03*
Y737750D02*
D03*
Y763150D02*
D03*
D57*
Y788550D02*
D03*
D58*
X414891Y872518D02*
D03*
X286197D02*
D03*
X157504D02*
D03*
X29945D02*
D03*
X903441Y770574D02*
D03*
Y647272D02*
D03*
Y523969D02*
D03*
Y400668D02*
D03*
Y277365D02*
D03*
Y154064D02*
D03*
Y893875D02*
D03*
X53120Y99979D02*
D03*
D59*
X464891Y872518D02*
D03*
X336197D02*
D03*
X207504D02*
D03*
X79945D02*
D03*
D60*
X903441Y720574D02*
D03*
Y597271D02*
D03*
Y473970D02*
D03*
Y350668D02*
D03*
Y227366D02*
D03*
Y104064D02*
D03*
Y843875D02*
D03*
X53120Y149979D02*
D03*
D61*
X485971Y99749D02*
D03*
Y279748D02*
D03*
X149971Y159749D02*
D03*
D62*
Y219749D02*
D03*
D63*
X40311Y39799D02*
D03*
X48965Y954369D02*
D03*
X908466Y955400D02*
D03*
X907964Y40041D02*
D03*
D64*
X55991Y801652D02*
D03*
X56351Y736133D02*
D03*
X10991Y801652D02*
D03*
D65*
Y736653D02*
D03*
D66*
X26185Y467494D02*
D03*
D67*
Y492894D02*
D03*
Y518294D02*
D03*
X51585Y467494D02*
D03*
Y492894D02*
D03*
Y518294D02*
D03*
D68*
X8580Y637031D02*
D03*
X520607Y90253D02*
D03*
Y106572D02*
D03*
X509315Y489336D02*
D03*
X503038Y583456D02*
D03*
X528139Y621107D02*
D03*
X524375Y711465D02*
D03*
X524374Y761664D02*
D03*
X494255Y754134D02*
D03*
X318559Y698915D02*
D03*
X390090Y652484D02*
D03*
X406407Y611068D02*
D03*
X471666Y535769D02*
D03*
X498018Y326187D02*
D03*
X42466Y327444D02*
D03*
X14856Y371368D02*
D03*
X51251Y696406D02*
D03*
X52506Y624873D02*
D03*
X51251Y651227D02*
D03*
X90155Y459216D02*
D03*
X101447Y452944D02*
D03*
X471663Y626125D02*
D03*
X474176Y653737D02*
D03*
X474173Y567141D02*
D03*
X511825Y597263D02*
D03*
X491743Y488078D02*
D03*
X273381Y617342D02*
D03*
X447821Y799313D02*
D03*
X472921Y790528D02*
D03*
X504295Y912261D02*
D03*
X242004Y934848D02*
D03*
X122784Y932340D02*
D03*
X514335Y931085D02*
D03*
X567041Y929833D02*
D03*
X624770Y928573D02*
D03*
X683756Y869592D02*
D03*
X439034Y580946D02*
D03*
X508060Y557104D02*
D03*
X475431Y474276D02*
D03*
X506802Y473019D02*
D03*
X12346Y301090D02*
D03*
X37443Y303598D02*
D03*
X26151Y336229D02*
D03*
X8582Y352544D02*
D03*
X26151Y387683D02*
D03*
X17364Y421565D02*
D03*
X11091Y602283D02*
D03*
X9837Y678836D02*
D03*
X78860Y685111D02*
D03*
X87645Y712720D02*
D03*
X108979Y720250D02*
D03*
X115254Y747860D02*
D03*
X112744Y803078D02*
D03*
X113999Y829432D02*
D03*
X119019Y872102D02*
D03*
X120274Y909751D02*
D03*
X244516Y887161D02*
D03*
X242004Y907238D02*
D03*
X375033Y911005D02*
D03*
X605948Y869592D02*
D03*
X577083D02*
D03*
X524375Y863317D02*
D03*
X440289Y715232D02*
D03*
X439034Y612320D02*
D03*
Y647459D02*
D03*
X491745Y680091D02*
D03*
X510570Y621107D02*
D03*
X493000Y606048D02*
D03*
X487980Y638677D02*
D03*
X452841Y520710D02*
D03*
X494255Y544554D02*
D03*
X450329Y553337D02*
D03*
X434796Y430270D02*
D03*
X393320Y374348D02*
D03*
X294069Y352941D02*
D03*
X135063Y404663D02*
D03*
X407887Y755407D02*
D03*
Y687081D02*
D03*
X476213D02*
D03*
Y759217D02*
D03*
X523711Y806715D02*
D03*
X644615Y75703D02*
D03*
X359881Y125995D02*
D03*
X216371Y269505D02*
D03*
X26185Y445527D02*
D03*
X27903Y204735D02*
D03*
X282411Y384914D02*
D03*
Y411999D02*
D03*
X203925Y644415D02*
D03*
X538189Y170699D02*
D03*
X408154Y341306D02*
D03*
Y311717D02*
D03*
X190971Y686950D02*
D03*
X200049Y431623D02*
D03*
X167884Y393457D02*
D03*
X166333Y418857D02*
D03*
X257011Y431557D02*
D03*
X313907D02*
D03*
X325083Y720609D02*
D03*
X379693Y637551D02*
D03*
X393409Y719085D02*
D03*
X336767Y562621D02*
D03*
X383984Y755915D02*
D03*
X77433Y492445D02*
D03*
Y503693D02*
D03*
X51585Y551953D02*
D03*
X354801Y707401D02*
D03*
X536411Y110501D02*
D03*
X539713Y230135D02*
D03*
X537935Y281443D02*
D03*
X556705Y330719D02*
D03*
X516599Y403995D02*
D03*
X538189Y475184D02*
D03*
X530315Y529609D02*
D03*
X533871Y592417D02*
D03*
X526144Y668031D02*
D03*
X537681Y718032D02*
D03*
X565621Y773187D02*
D03*
X457417Y444257D02*
D03*
X531331Y312431D02*
D03*
X351053Y442795D02*
D03*
X429182Y477236D02*
D03*
X331433Y767853D02*
D03*
X338518Y818145D02*
D03*
X53049Y597419D02*
D03*
X84545Y608087D02*
D03*
D69*
X414553Y509191D02*
D03*
X401853D02*
D03*
X389153D02*
D03*
X376453D02*
D03*
X363753D02*
D03*
X351053D02*
D03*
X338353D02*
D03*
X325653D02*
D03*
Y459691D02*
D03*
X338353D02*
D03*
X351053D02*
D03*
X363753D02*
D03*
X376453D02*
D03*
X389153D02*
D03*
X401853D02*
D03*
X414553D02*
D03*
X325818Y785939D02*
D03*
X338518D02*
D03*
X351218D02*
D03*
X363918D02*
D03*
X376618D02*
D03*
X389318D02*
D03*
X402018D02*
D03*
X414718D02*
D03*
Y736440D02*
D03*
X402018D02*
D03*
X389318D02*
D03*
X376618D02*
D03*
X363918D02*
D03*
X351218D02*
D03*
X338518D02*
D03*
X325818D02*
D03*
D70*
X860131Y523969D02*
X903441D01*
X808191Y530309D02*
X853791D01*
X860131Y523969D01*
X808191Y467502D02*
X848992D01*
X855460Y473970D02*
X903441D01*
X848992Y467502D02*
X855460Y473970D01*
X853657Y404695D02*
X857684Y400668D01*
X808191Y404695D02*
X853657D01*
X857684Y400668D02*
X903441D01*
X53120Y149979D02*
X122889Y219749D01*
X149971D01*
X53120Y99979D02*
X90200D01*
X149971Y159749D01*
X808191Y90659D02*
X821596Y104064D01*
X903441D01*
X808191Y153466D02*
X855435D01*
X856033Y154064D01*
X903441D01*
X808191Y216273D02*
X819283Y227366D01*
X903441D01*
X808191Y279081D02*
X854927D01*
X856642Y277365D01*
X903441D01*
X808191Y341888D02*
X816971Y350668D01*
X903441D01*
X808191Y593117D02*
X853657D01*
X857811Y597271D01*
X903441D01*
X808191Y655924D02*
X816843Y647272D01*
X903441D01*
X808191Y718731D02*
X854673D01*
X856515Y720574D01*
X903441D01*
X808191Y781539D02*
X819156Y770574D01*
X903441D01*
D71*
X414553Y459497D02*
X436843D01*
X363918Y757158D02*
X374359Y767599D01*
X395695D01*
X407887Y755407D01*
X325653Y423807D02*
Y459691D01*
X414553Y459497D02*
Y459691D01*
X389153Y439622D02*
Y459691D01*
X414718Y773949D02*
X422895Y765772D01*
X414718Y773949D02*
Y785939D01*
X414553Y509191D02*
Y555107D01*
X401853Y509191D02*
Y549846D01*
X389153Y509191D02*
Y531474D01*
X350675Y542616D02*
X376453Y516838D01*
Y509191D02*
Y516838D01*
X369279Y492771D02*
X426189D01*
X363753Y498296D02*
X369279Y492771D01*
X363753Y498296D02*
Y509191D01*
X295365Y525537D02*
X351053D01*
Y509191D02*
Y525537D01*
X313907Y471435D02*
X338353Y495881D01*
Y509191D01*
X325083Y720609D02*
Y735704D01*
X325818Y736440D01*
X338518Y678725D02*
Y736440D01*
X351218Y719085D02*
X393409D01*
X351218D02*
Y736440D01*
X363918D02*
Y757158D01*
X376618Y748549D02*
X383984Y755915D01*
X376618Y736440D02*
Y748549D01*
X303765Y496858D02*
X320939D01*
X325653Y501572D01*
Y509191D01*
X423390Y748772D02*
X431866D01*
X414718Y740100D02*
X423390Y748772D01*
X414718Y736440D02*
Y740100D01*
X401853Y447305D02*
Y459691D01*
Y447305D02*
X404901Y444257D01*
X457417D01*
X376453Y429587D02*
Y459691D01*
X363753Y423874D02*
Y459691D01*
X351053Y442795D02*
Y459691D01*
X338353D02*
Y477236D01*
X429182D01*
X325818Y773467D02*
Y785939D01*
Y773467D02*
X331433Y767853D01*
X338518Y785939D02*
Y818145D01*
X351218Y785939D02*
Y823331D01*
X363918Y785939D02*
Y815097D01*
X376618Y785939D02*
Y803159D01*
X399224Y825765D01*
M02*
