G04*
G04 #@! TF.GenerationSoftware,Altium Limited,Altium Designer,24.0.1 (36)*
G04*
G04 Layer_Color=128*
%FSLAX44Y44*%
%MOMM*%
G71*
G04*
G04 #@! TF.SameCoordinates,71F2B9B8-5446-4F90-8F71-DE05B1429098*
G04*
G04*
G04 #@! TF.FilePolarity,Positive*
G04*
G01*
G75*
%ADD16R,0.8000X0.7000*%
%ADD19R,1.7200X1.0800*%
G04:AMPARAMS|DCode=69|XSize=1.97mm|YSize=0.6mm|CornerRadius=0.075mm|HoleSize=0mm|Usage=FLASHONLY|Rotation=270.000|XOffset=0mm|YOffset=0mm|HoleType=Round|Shape=RoundedRectangle|*
%AMROUNDEDRECTD69*
21,1,1.9700,0.4500,0,0,270.0*
21,1,1.8200,0.6000,0,0,270.0*
1,1,0.1500,-0.2250,-0.9100*
1,1,0.1500,-0.2250,0.9100*
1,1,0.1500,0.2250,0.9100*
1,1,0.1500,0.2250,-0.9100*
%
%ADD69ROUNDEDRECTD69*%
D16*
X431866Y748772D02*
D03*
Y765772D02*
D03*
X303765Y479858D02*
D03*
Y496858D02*
D03*
X256689Y620933D02*
D03*
Y603933D02*
D03*
D19*
X551651Y780839D02*
D03*
Y810239D02*
D03*
Y718032D02*
D03*
Y747432D02*
D03*
Y655224D02*
D03*
Y684624D02*
D03*
Y592417D02*
D03*
Y621817D02*
D03*
Y529609D02*
D03*
Y559009D02*
D03*
Y466802D02*
D03*
Y496202D02*
D03*
Y403995D02*
D03*
Y433395D02*
D03*
Y341188D02*
D03*
Y370588D02*
D03*
Y278380D02*
D03*
Y307780D02*
D03*
Y215573D02*
D03*
Y244973D02*
D03*
Y152766D02*
D03*
Y182166D02*
D03*
Y89959D02*
D03*
Y119359D02*
D03*
D69*
X414553Y509191D02*
D03*
X401853D02*
D03*
X389153D02*
D03*
X376453D02*
D03*
X363753D02*
D03*
X351053D02*
D03*
X338353D02*
D03*
X325653D02*
D03*
Y459691D02*
D03*
X338353D02*
D03*
X351053D02*
D03*
X363753D02*
D03*
X376453D02*
D03*
X389153D02*
D03*
X401853D02*
D03*
X414553D02*
D03*
X325818Y785939D02*
D03*
X338518D02*
D03*
X351218D02*
D03*
X363918D02*
D03*
X376618D02*
D03*
X389318D02*
D03*
X402018D02*
D03*
X414718D02*
D03*
Y736440D02*
D03*
X402018D02*
D03*
X389318D02*
D03*
X376618D02*
D03*
X363918D02*
D03*
X351218D02*
D03*
X338518D02*
D03*
X325818D02*
D03*
M02*
