G04*
G04 #@! TF.GenerationSoftware,Altium Limited,Altium Designer,24.0.1 (36)*
G04*
G04 Layer_Color=8421504*
%FSLAX44Y44*%
%MOMM*%
G71*
G04*
G04 #@! TF.SameCoordinates,71F2B9B8-5446-4F90-8F71-DE05B1429098*
G04*
G04*
G04 #@! TF.FilePolarity,Positive*
G04*
G01*
G75*
%ADD16R,0.8000X0.7000*%
%ADD17R,3.8100X4.2400*%
%ADD18R,1.7500X2.6500*%
%ADD19R,1.7200X1.0800*%
%ADD20R,1.2100X1.4700*%
%ADD21R,1.2000X3.5000*%
%ADD22R,1.1000X0.9000*%
%ADD23R,1.6000X3.5000*%
G04:AMPARAMS|DCode=24|XSize=3.24mm|YSize=1.31mm|CornerRadius=0.0983mm|HoleSize=0mm|Usage=FLASHONLY|Rotation=270.000|XOffset=0mm|YOffset=0mm|HoleType=Round|Shape=RoundedRectangle|*
%AMROUNDEDRECTD24*
21,1,3.2400,1.1135,0,0,270.0*
21,1,3.0435,1.3100,0,0,270.0*
1,1,0.1965,-0.5568,-1.5218*
1,1,0.1965,-0.5568,1.5218*
1,1,0.1965,0.5568,1.5218*
1,1,0.1965,0.5568,-1.5218*
%
%ADD24ROUNDEDRECTD24*%
G04:AMPARAMS|DCode=25|XSize=0.93mm|YSize=1.31mm|CornerRadius=0.0698mm|HoleSize=0mm|Usage=FLASHONLY|Rotation=270.000|XOffset=0mm|YOffset=0mm|HoleType=Round|Shape=RoundedRectangle|*
%AMROUNDEDRECTD25*
21,1,0.9300,1.1705,0,0,270.0*
21,1,0.7905,1.3100,0,0,270.0*
1,1,0.1395,-0.5853,-0.3953*
1,1,0.1395,-0.5853,0.3953*
1,1,0.1395,0.5853,0.3953*
1,1,0.1395,0.5853,-0.3953*
%
%ADD25ROUNDEDRECTD25*%
D16*
X501856Y370514D02*
D03*
Y353514D02*
D03*
X184621Y370514D02*
D03*
Y353514D02*
D03*
D17*
X88101Y221198D02*
D03*
Y284999D02*
D03*
D18*
X57621Y360019D02*
D03*
Y403019D02*
D03*
X99991D02*
D03*
Y360019D02*
D03*
D19*
X87550Y753365D02*
D03*
Y782766D02*
D03*
X42381Y223969D02*
D03*
Y253369D02*
D03*
D20*
X98908Y534370D02*
D03*
X116868D02*
D03*
Y674070D02*
D03*
X98908D02*
D03*
D21*
X107888Y631720D02*
D03*
Y576720D02*
D03*
D22*
X550525Y472002D02*
D03*
Y491002D02*
D03*
Y534810D02*
D03*
Y553809D02*
D03*
Y597617D02*
D03*
Y616617D02*
D03*
Y660424D02*
D03*
Y679424D02*
D03*
Y723232D02*
D03*
Y742231D02*
D03*
Y95159D02*
D03*
Y114159D02*
D03*
Y157966D02*
D03*
Y176966D02*
D03*
Y220773D02*
D03*
Y239774D02*
D03*
Y283580D02*
D03*
Y302581D02*
D03*
Y346388D02*
D03*
Y365388D02*
D03*
Y409195D02*
D03*
Y428195D02*
D03*
Y786039D02*
D03*
Y805039D02*
D03*
X15711Y248169D02*
D03*
Y229168D02*
D03*
D23*
X235421Y390013D02*
D03*
Y334014D02*
D03*
X451321Y390013D02*
D03*
Y334014D02*
D03*
D24*
X376820Y362014D02*
D03*
D25*
X309921Y339114D02*
D03*
Y362014D02*
D03*
Y384914D02*
D03*
M02*
