G04*
G04 #@! TF.GenerationSoftware,Altium Limited,Altium Designer,24.0.1 (36)*
G04*
G04 Layer_Physical_Order=1*
G04 Layer_Color=255*
%FSLAX44Y44*%
%MOMM*%
G71*
G04*
G04 #@! TF.SameCoordinates,71F2B9B8-5446-4F90-8F71-DE05B1429098*
G04*
G04*
G04 #@! TF.FilePolarity,Positive*
G04*
G01*
G75*
%ADD16R,0.8000X0.7000*%
%ADD17R,3.8100X4.2400*%
%ADD18R,1.7500X2.6500*%
%ADD19R,1.7200X1.0800*%
%ADD20R,1.2100X1.4700*%
%ADD21R,1.2000X3.5000*%
%ADD22R,1.1000X0.9000*%
%ADD23R,1.6000X3.5000*%
G04:AMPARAMS|DCode=24|XSize=3.24mm|YSize=1.31mm|CornerRadius=0.0983mm|HoleSize=0mm|Usage=FLASHONLY|Rotation=270.000|XOffset=0mm|YOffset=0mm|HoleType=Round|Shape=RoundedRectangle|*
%AMROUNDEDRECTD24*
21,1,3.2400,1.1135,0,0,270.0*
21,1,3.0435,1.3100,0,0,270.0*
1,1,0.1965,-0.5568,-1.5218*
1,1,0.1965,-0.5568,1.5218*
1,1,0.1965,0.5568,1.5218*
1,1,0.1965,0.5568,-1.5218*
%
%ADD24ROUNDEDRECTD24*%
G04:AMPARAMS|DCode=25|XSize=0.93mm|YSize=1.31mm|CornerRadius=0.0698mm|HoleSize=0mm|Usage=FLASHONLY|Rotation=270.000|XOffset=0mm|YOffset=0mm|HoleType=Round|Shape=RoundedRectangle|*
%AMROUNDEDRECTD25*
21,1,0.9300,1.1705,0,0,270.0*
21,1,0.7905,1.3100,0,0,270.0*
1,1,0.1395,-0.5853,-0.3953*
1,1,0.1395,-0.5853,0.3953*
1,1,0.1395,0.5853,0.3953*
1,1,0.1395,0.5853,-0.3953*
%
%ADD25ROUNDEDRECTD25*%
%ADD51C,2.9210*%
%ADD52C,0.8128*%
%ADD53C,0.7000*%
%ADD54C,1.5080*%
%ADD55R,1.5080X1.5080*%
%ADD56O,2.6416X1.3208*%
%ADD57R,2.6416X1.3208*%
%ADD58C,2.1000*%
%ADD59R,2.1000X2.1000*%
%ADD60R,2.1000X2.1000*%
%ADD61C,1.5000*%
%ADD62R,1.5000X1.5000*%
%ADD63C,6.0000*%
%ADD64C,1.4980*%
%ADD65R,1.4980X1.4980*%
%ADD66R,1.5300X1.5300*%
%ADD67C,1.5300*%
%ADD68C,0.8585*%
G36*
X79214Y986084D02*
X79214Y986084D01*
X79849Y985145D01*
X79848Y985036D01*
X79886Y985020D01*
X79886Y985092D01*
X81156Y985940D01*
X90402Y982110D01*
X94236Y972855D01*
X94649Y971756D01*
X94895Y971106D01*
X94998Y970187D01*
X94979Y969769D01*
X94948Y969472D01*
X94921Y969271D01*
X94946Y969211D01*
X95405Y968103D01*
X95407Y968097D01*
X95520Y967824D01*
X95840Y967052D01*
X95860Y967004D01*
X96664Y966077D01*
X98123Y958741D01*
X104298Y949499D01*
X113540Y943324D01*
X123172Y941408D01*
X124414Y941161D01*
X124405Y940134D01*
X124442Y940119D01*
X124442Y941168D01*
X125566Y941441D01*
X688876Y941441D01*
Y64867D01*
X199775D01*
X194342Y91617D01*
X195145Y92601D01*
X477622D01*
X478001Y92547D01*
X478576Y92431D01*
X478907Y92335D01*
X478929Y92326D01*
X478994Y92278D01*
X479092Y92254D01*
X479205Y92205D01*
X479303Y92203D01*
X479322Y92199D01*
X481812Y89709D01*
X490130D01*
X496011Y95590D01*
Y103907D01*
X490130Y109789D01*
X481812D01*
X479322Y107299D01*
X479303Y107295D01*
X479205Y107292D01*
X479092Y107243D01*
X478994Y107219D01*
X478928Y107172D01*
X478908Y107163D01*
X478576Y107066D01*
X478100Y106971D01*
X477015Y106897D01*
X191238D01*
X164762Y237240D01*
X112896Y238604D01*
X110830Y237011D01*
X109691Y237572D01*
Y244938D01*
X66511D01*
Y202837D01*
X4392Y154938D01*
X3252Y155498D01*
Y957690D01*
X3199Y957817D01*
X3242Y957948D01*
X3242Y957948D01*
X2876Y962813D01*
X3740Y963744D01*
X4121Y963744D01*
X4121Y963744D01*
X3996Y964045D01*
X3545Y964554D01*
X5060Y972168D01*
X9832Y979310D01*
X16973Y984081D01*
X24127Y985505D01*
X25397Y985020D01*
X25397Y985020D01*
X25397Y985020D01*
X25434Y985036D01*
X25434Y985079D01*
X26054Y986069D01*
X26195Y986212D01*
X26425Y986342D01*
X37869D01*
X38116Y985097D01*
X30532Y981955D01*
X21379Y972802D01*
X16425Y960842D01*
Y947897D01*
X21379Y935937D01*
X30532Y926783D01*
X42492Y921829D01*
X55437D01*
X67397Y926783D01*
X76551Y935937D01*
X81505Y947897D01*
Y960842D01*
X76551Y972802D01*
X67397Y981955D01*
X59813Y985097D01*
X60061Y986342D01*
X78958D01*
X79214Y986084D01*
D02*
G37*
G36*
X160823Y230722D02*
X159707Y229789D01*
X139930D01*
Y209709D01*
X160011D01*
Y228189D01*
X161280Y228308D01*
X184102Y107875D01*
X183292Y106897D01*
X166329D01*
X95249Y177978D01*
Y197458D01*
X109691D01*
Y225240D01*
X110267Y225681D01*
X111841Y227256D01*
X115545Y229731D01*
X119660Y231435D01*
X124029Y232304D01*
X126256Y232304D01*
X126256Y232304D01*
X160523D01*
X160823Y230722D01*
D02*
G37*
G36*
X480615Y94499D02*
X480306Y94724D01*
X479845Y94926D01*
X479231Y95104D01*
X478465Y95258D01*
X477547Y95388D01*
X475252Y95578D01*
X470667Y95685D01*
Y103813D01*
X472348Y103825D01*
X478465Y104240D01*
X479231Y104394D01*
X479845Y104572D01*
X480306Y104774D01*
X480615Y104999D01*
Y94499D01*
D02*
G37*
G36*
X80953Y175017D02*
X83046Y169962D01*
X158314Y94694D01*
X163368Y92601D01*
X186997D01*
X192067Y65845D01*
X191257Y64867D01*
X109721D01*
X109422Y64940D01*
X109257Y65105D01*
X109248Y65118D01*
X108597Y66035D01*
X108597Y66189D01*
X108597Y66189D01*
X108560Y66174D01*
X108561Y66084D01*
X108506Y65925D01*
X107805Y65091D01*
X107658Y64966D01*
X97693Y62984D01*
X88453Y56810D01*
X82278Y47569D01*
X80296Y37604D01*
X80072Y37341D01*
X79083Y36666D01*
X79073Y36666D01*
X79073Y36666D01*
X79073Y36665D01*
X79082Y36665D01*
X79735Y36279D01*
X80101Y36061D01*
X80395Y35767D01*
Y20103D01*
X80054Y19773D01*
X79266Y19228D01*
X79130Y19233D01*
X79073Y19095D01*
X79073Y19095D01*
X79389Y17949D01*
X78433Y13143D01*
X74776Y7670D01*
X69302Y4012D01*
X62846Y2728D01*
X62428Y2811D01*
X62428Y2811D01*
Y2811D01*
X62332Y2050D01*
X41128Y2050D01*
X24547D01*
X23603Y2831D01*
X23603Y2831D01*
X23603Y2831D01*
X23602Y2830D01*
X22393Y2760D01*
X15578Y4115D01*
X9439Y8217D01*
X5337Y14356D01*
X4150Y20328D01*
X4574Y21598D01*
X4574Y21598D01*
X4559Y21635D01*
X4154Y21632D01*
X3385Y22394D01*
X3252Y22601D01*
Y144661D01*
X15397Y153025D01*
X17704Y153764D01*
X22048Y155901D01*
X25891Y158844D01*
X29086Y162481D01*
X30401Y164516D01*
X73415Y197458D01*
X80953D01*
Y175017D01*
D02*
G37*
G36*
X875723Y984570D02*
X876535Y984179D01*
X876535D01*
X876535Y984179D01*
X878949Y984043D01*
X886784Y983603D01*
X886960Y983664D01*
X887131Y983593D01*
X888845D01*
X889371Y982323D01*
X880880Y973833D01*
X875926Y961873D01*
Y948928D01*
X880880Y936968D01*
X890034Y927814D01*
X901994Y922860D01*
X914939D01*
X926899Y927814D01*
X936052Y936968D01*
X941006Y948928D01*
Y961873D01*
X936052Y973833D01*
X927562Y982323D01*
X928088Y983593D01*
X932051D01*
X932052Y983593D01*
X939623Y983593D01*
X967294D01*
X970823Y985055D01*
X975718Y984081D01*
X982860Y979310D01*
X987632Y972168D01*
X988605Y967273D01*
X987143Y963744D01*
X987143Y900140D01*
X987143Y86788D01*
X987143Y24649D01*
X988605Y21119D01*
X987632Y16225D01*
X982860Y9083D01*
X975718Y4311D01*
X970823Y3337D01*
X967294Y4799D01*
X932051D01*
X932051Y4800D01*
X882726D01*
X879744Y3564D01*
X877272Y4056D01*
X871218Y8102D01*
X867172Y14156D01*
X866223Y18925D01*
X867915Y23010D01*
X867915Y36666D01*
X866104Y41040D01*
X866103Y41040D01*
X866103Y41040D01*
X864445Y41727D01*
X863283Y47568D01*
X857109Y56810D01*
X847868Y62984D01*
X842028Y64146D01*
X841341Y65804D01*
X836967Y67616D01*
X836965D01*
X836965Y67616D01*
X701749D01*
Y108579D01*
X701889Y108918D01*
X701889Y880718D01*
X701986Y880953D01*
X701749Y881526D01*
Y938692D01*
X838284D01*
X842658Y940504D01*
X843345Y942162D01*
X849185Y943324D01*
X858427Y949499D01*
X864602Y958741D01*
X865764Y964582D01*
X867422Y965268D01*
X869234Y969642D01*
Y969643D01*
X869234Y969643D01*
Y976558D01*
X867978Y979589D01*
X869688Y983716D01*
X873885Y985455D01*
X875723Y984570D01*
D02*
G37*
%LPC*%
G36*
X482055Y896921D02*
X444971D01*
X439916Y894827D01*
X426962Y881873D01*
X426525Y880818D01*
X425280Y880570D01*
X420292Y885558D01*
X409489D01*
X406024Y882093D01*
X405602Y881954D01*
X405032Y881465D01*
X404458Y881107D01*
X403675Y880743D01*
X402683Y880398D01*
X401484Y880088D01*
X400149Y879835D01*
X398203Y879666D01*
X366789D01*
X361735Y877572D01*
X350410Y866248D01*
X349237Y866734D01*
Y885558D01*
X323157D01*
Y869587D01*
X301265Y847695D01*
X299172Y842640D01*
Y817960D01*
X251510Y770298D01*
X242531D01*
X235893Y773048D01*
X222685D01*
X215687Y770149D01*
X212788Y763150D01*
X215687Y756152D01*
X222685Y753253D01*
X235893D01*
X242530Y756002D01*
X254471D01*
X259525Y758096D01*
X310602Y809172D01*
X311872Y808646D01*
Y806406D01*
X280150Y774685D01*
X278057Y769631D01*
Y739187D01*
X244298Y705429D01*
X243222Y706148D01*
X245791Y712350D01*
X242892Y719349D01*
X235893Y722248D01*
X222685D01*
X215687Y719349D01*
X212788Y712350D01*
X215687Y705352D01*
X222685Y702453D01*
X235893D01*
X242096Y705022D01*
X242815Y703945D01*
X235717Y696848D01*
X222685D01*
X215687Y693949D01*
X212788Y686950D01*
X215687Y679952D01*
X222685Y677053D01*
X235893D01*
X242096Y679622D01*
X242815Y678545D01*
X235717Y671448D01*
X222685D01*
X215687Y668549D01*
X212788Y661550D01*
X215687Y654552D01*
X222685Y651653D01*
X235893D01*
X242892Y654552D01*
X245616Y661128D01*
X322517Y738030D01*
X324611Y743084D01*
Y762201D01*
X325881Y763022D01*
X326378Y762798D01*
X327140Y762483D01*
X328602Y761020D01*
X330671D01*
X331433Y760705D01*
X332194Y761020D01*
X334263D01*
X335726Y762483D01*
X336487Y762798D01*
X357761Y784072D01*
X429310D01*
X449506Y763876D01*
Y610627D01*
X451600Y605572D01*
X490462Y566710D01*
X495517Y564617D01*
X560574D01*
X586560Y538631D01*
X586074Y537457D01*
X584357D01*
X581951Y539864D01*
X576896Y541958D01*
X550525D01*
X550264Y541850D01*
X542486D01*
Y527770D01*
X550264D01*
X550525Y527662D01*
X573935D01*
X576342Y525255D01*
X581397Y523161D01*
X596527D01*
X596961Y523099D01*
X597541Y522980D01*
X597878Y522881D01*
X597907Y522868D01*
X597980Y522815D01*
X598088Y522788D01*
X598181Y522747D01*
X598263Y522745D01*
X598311Y522733D01*
X600815Y520229D01*
X609166D01*
X615071Y526134D01*
Y534485D01*
X609166Y540389D01*
X605625D01*
X605582Y540415D01*
X605522Y540472D01*
X605428Y540509D01*
X605332Y540566D01*
X605243Y540580D01*
X605213Y540592D01*
X604906Y540760D01*
X604497Y541030D01*
X603587Y541822D01*
X568590Y576819D01*
X563535Y578913D01*
X498478D01*
X463803Y613587D01*
Y766837D01*
X461709Y771891D01*
X437325Y796275D01*
X432271Y798369D01*
X402647D01*
X402121Y799639D01*
X461960Y859478D01*
X477931D01*
Y882366D01*
X479201Y882517D01*
X500873Y860845D01*
X505134Y645283D01*
X506204Y642837D01*
X507226Y640370D01*
X507296Y640341D01*
X507327Y640271D01*
X509814Y639298D01*
X512281Y638276D01*
X549722D01*
X586560Y601438D01*
X586074Y600265D01*
X582733D01*
X580327Y602671D01*
X575273Y604765D01*
X550525D01*
X550264Y604657D01*
X545512D01*
X544736Y605662D01*
X545735Y609469D01*
X550525D01*
X550787Y609577D01*
X558565D01*
Y623657D01*
X550787D01*
X550525Y623765D01*
X540221D01*
X538481Y623044D01*
X536614Y622789D01*
X536042Y622034D01*
X535166Y621671D01*
X534445Y619931D01*
X533307Y618431D01*
X527289Y595498D01*
X527038Y595247D01*
Y594542D01*
X526957Y594231D01*
X527038Y593636D01*
Y589587D01*
X527681Y588944D01*
X527699Y588811D01*
X528177Y588448D01*
X531040Y585584D01*
X531949D01*
X532056Y585503D01*
X532651Y585584D01*
X536701D01*
X537343Y586227D01*
X537477Y586245D01*
X537840Y586723D01*
X540703Y589587D01*
Y590495D01*
X540785Y590603D01*
X541226Y592284D01*
X542486Y592122D01*
Y590577D01*
X550264D01*
X550525Y590469D01*
X572312D01*
X574718Y588063D01*
X579772Y585969D01*
X596527D01*
X596961Y585906D01*
X597541Y585788D01*
X597878Y585689D01*
X597907Y585676D01*
X597980Y585622D01*
X598088Y585596D01*
X598181Y585555D01*
X598263Y585553D01*
X598311Y585541D01*
X600815Y583037D01*
X609166D01*
X615071Y588942D01*
Y597292D01*
X609166Y603197D01*
X605625D01*
X605582Y603223D01*
X605522Y603280D01*
X605428Y603316D01*
X605332Y603374D01*
X605243Y603388D01*
X605213Y603399D01*
X604906Y603567D01*
X604497Y603837D01*
X603587Y604629D01*
X557737Y650479D01*
X554052Y652006D01*
X554305Y653276D01*
X588096D01*
X590502Y650870D01*
X595557Y648776D01*
X597883D01*
X600815Y645844D01*
X609166D01*
X615071Y651749D01*
Y660099D01*
X609166Y666004D01*
X600815D01*
X598200Y663389D01*
X596111Y665478D01*
X591057Y667572D01*
X550525D01*
X550264Y667464D01*
X542486D01*
Y653843D01*
X542485Y653384D01*
X541551Y652573D01*
X519289D01*
X519089Y662709D01*
X520343Y663511D01*
X521001Y663191D01*
X521090Y662976D01*
X521851Y662661D01*
X523314Y661198D01*
X525382D01*
X526144Y660883D01*
X526906Y661198D01*
X528974D01*
X530437Y662661D01*
X531199Y662976D01*
X540498Y672276D01*
X550525D01*
X550787Y672384D01*
X558565D01*
Y686464D01*
X550787D01*
X550525Y686572D01*
X537537D01*
X532483Y684479D01*
X521090Y673085D01*
X520774Y672324D01*
X520180Y671730D01*
X518900Y672245D01*
X516326Y802476D01*
X517451Y802991D01*
X518382Y802321D01*
X518656Y801660D01*
X519418Y801345D01*
X520881Y799882D01*
X522949D01*
X523711Y799567D01*
X524472Y799882D01*
X526541D01*
X528004Y801345D01*
X528765Y801660D01*
X531715Y804610D01*
X532626Y803743D01*
X530532Y798689D01*
Y773187D01*
X532626Y768132D01*
X537681Y766039D01*
X565621D01*
X566382Y766354D01*
X568451D01*
X569913Y767817D01*
X570675Y768132D01*
X570991Y768894D01*
X572453Y770357D01*
Y772425D01*
X572769Y773187D01*
X572453Y773948D01*
Y776017D01*
X571478Y776992D01*
X571950Y778316D01*
X572800Y778402D01*
X574718Y776484D01*
X579772Y774391D01*
X596527D01*
X596961Y774328D01*
X597541Y774209D01*
X597878Y774110D01*
X597907Y774098D01*
X597980Y774044D01*
X598088Y774018D01*
X598181Y773977D01*
X598263Y773975D01*
X598311Y773963D01*
X600815Y771459D01*
X609166D01*
X615071Y777363D01*
Y785714D01*
X609166Y791619D01*
X600815D01*
X598311Y789115D01*
X598263Y789103D01*
X598181Y789101D01*
X598088Y789060D01*
X597980Y789033D01*
X597907Y788980D01*
X597878Y788967D01*
X597541Y788868D01*
X597061Y788770D01*
X595858Y788687D01*
X582733D01*
X580327Y791093D01*
X575273Y793187D01*
X550525D01*
X550264Y793079D01*
X544829D01*
Y795728D01*
X546992Y797891D01*
X550525D01*
X550787Y797999D01*
X558565D01*
Y811251D01*
X622604D01*
X637467Y796388D01*
Y790377D01*
X636293Y789891D01*
X634566Y791619D01*
X626215D01*
X620311Y785714D01*
Y777363D01*
X622815Y774859D01*
X622827Y774811D01*
X622829Y774728D01*
X622870Y774636D01*
X622896Y774528D01*
X622950Y774455D01*
X622962Y774426D01*
X623061Y774089D01*
X623159Y773609D01*
X623242Y772406D01*
Y727195D01*
X623180Y726761D01*
X623061Y726181D01*
X622962Y725844D01*
X622950Y725815D01*
X622896Y725742D01*
X622870Y725634D01*
X622829Y725541D01*
X622827Y725459D01*
X622815Y725411D01*
X620311Y722906D01*
Y714556D01*
X622815Y712052D01*
X622827Y712003D01*
X622829Y711921D01*
X622870Y711828D01*
X622896Y711720D01*
X622950Y711647D01*
X622962Y711618D01*
X623061Y711282D01*
X623159Y710801D01*
X623242Y709598D01*
Y664388D01*
X623180Y663954D01*
X623061Y663374D01*
X622962Y663037D01*
X622950Y663008D01*
X622896Y662935D01*
X622870Y662827D01*
X622829Y662734D01*
X622827Y662652D01*
X622815Y662604D01*
X620311Y660099D01*
Y651749D01*
X622815Y649245D01*
X622827Y649196D01*
X622829Y649114D01*
X622870Y649021D01*
X622896Y648913D01*
X622950Y648840D01*
X622962Y648811D01*
X623061Y648474D01*
X623159Y647994D01*
X623242Y646791D01*
Y601580D01*
X623180Y601147D01*
X623061Y600566D01*
X622962Y600230D01*
X622950Y600201D01*
X622896Y600128D01*
X622870Y600020D01*
X622829Y599927D01*
X622827Y599845D01*
X622815Y599796D01*
X620311Y597292D01*
Y588942D01*
X622815Y586437D01*
X622827Y586389D01*
X622829Y586307D01*
X622870Y586214D01*
X622896Y586106D01*
X622950Y586033D01*
X622962Y586004D01*
X623061Y585667D01*
X623159Y585187D01*
X623242Y583984D01*
Y538773D01*
X623180Y538339D01*
X623061Y537759D01*
X622962Y537422D01*
X622950Y537393D01*
X622896Y537321D01*
X622870Y537212D01*
X622829Y537119D01*
X622827Y537037D01*
X622815Y536989D01*
X620311Y534485D01*
Y526134D01*
X622815Y523630D01*
X622827Y523582D01*
X622829Y523499D01*
X622870Y523406D01*
X622896Y523298D01*
X622950Y523225D01*
X622962Y523196D01*
X623061Y522860D01*
X623159Y522380D01*
X623242Y521177D01*
Y475966D01*
X623180Y475532D01*
X623061Y474952D01*
X622962Y474615D01*
X622950Y474586D01*
X622896Y474513D01*
X622870Y474405D01*
X622829Y474312D01*
X622827Y474230D01*
X622815Y474182D01*
X620311Y471678D01*
Y463327D01*
X622815Y460823D01*
X622827Y460774D01*
X622829Y460692D01*
X622870Y460599D01*
X622896Y460491D01*
X622950Y460418D01*
X622962Y460389D01*
X623061Y460053D01*
X623159Y459572D01*
X623242Y458370D01*
Y413159D01*
X623180Y412725D01*
X623061Y412145D01*
X622962Y411808D01*
X622950Y411779D01*
X622896Y411706D01*
X622870Y411598D01*
X622829Y411505D01*
X622827Y411423D01*
X622815Y411375D01*
X620311Y408870D01*
Y400520D01*
X622815Y398016D01*
X622827Y397967D01*
X622829Y397885D01*
X622870Y397792D01*
X622896Y397684D01*
X622950Y397611D01*
X622962Y397582D01*
X623061Y397246D01*
X623159Y396765D01*
X623242Y395563D01*
Y350351D01*
X623180Y349918D01*
X623061Y349337D01*
X622962Y349001D01*
X622950Y348972D01*
X622896Y348899D01*
X622870Y348791D01*
X622829Y348698D01*
X622827Y348615D01*
X622815Y348567D01*
X620311Y346063D01*
Y337712D01*
X622815Y335208D01*
X622827Y335160D01*
X622829Y335077D01*
X622870Y334985D01*
X622896Y334876D01*
X622950Y334804D01*
X622962Y334774D01*
X623061Y334438D01*
X623159Y333958D01*
X623242Y332755D01*
Y287544D01*
X623180Y287111D01*
X623061Y286530D01*
X622962Y286194D01*
X622950Y286164D01*
X622896Y286092D01*
X622870Y285984D01*
X622829Y285891D01*
X622827Y285808D01*
X622815Y285760D01*
X620311Y283256D01*
Y274905D01*
X622815Y272401D01*
X622827Y272353D01*
X622829Y272270D01*
X622870Y272177D01*
X622896Y272069D01*
X622950Y271996D01*
X622962Y271967D01*
X623061Y271631D01*
X623159Y271151D01*
X623242Y269948D01*
Y224737D01*
X623180Y224303D01*
X623061Y223723D01*
X622962Y223386D01*
X622950Y223357D01*
X622896Y223284D01*
X622870Y223176D01*
X622829Y223084D01*
X622827Y223001D01*
X622815Y222953D01*
X620311Y220449D01*
Y212098D01*
X622815Y209594D01*
X622827Y209546D01*
X622829Y209463D01*
X622870Y209370D01*
X622896Y209262D01*
X622950Y209189D01*
X622962Y209160D01*
X623061Y208824D01*
X623159Y208344D01*
X623242Y207141D01*
Y161929D01*
X623180Y161496D01*
X623061Y160915D01*
X622962Y160579D01*
X622950Y160550D01*
X622896Y160477D01*
X622870Y160369D01*
X622829Y160276D01*
X622827Y160194D01*
X622815Y160145D01*
X620311Y157641D01*
Y154100D01*
X620285Y154057D01*
X620228Y153997D01*
X620191Y153903D01*
X620134Y153807D01*
X620120Y153718D01*
X620108Y153688D01*
X619940Y153381D01*
X619670Y152972D01*
X618878Y152063D01*
X616341Y149525D01*
X615071Y150051D01*
Y157641D01*
X609166Y163546D01*
X605625D01*
X605582Y163572D01*
X605522Y163629D01*
X605428Y163665D01*
X605332Y163723D01*
X605243Y163737D01*
X605213Y163748D01*
X604906Y163916D01*
X604497Y164186D01*
X603587Y164978D01*
X557760Y210805D01*
X554018Y212355D01*
X554271Y213625D01*
X572312D01*
X574718Y211219D01*
X579772Y209125D01*
X596527D01*
X596961Y209063D01*
X597541Y208944D01*
X597878Y208845D01*
X597907Y208832D01*
X597980Y208779D01*
X598088Y208752D01*
X598181Y208711D01*
X598263Y208709D01*
X598311Y208698D01*
X600815Y206193D01*
X609166D01*
X615071Y212098D01*
Y220449D01*
X609166Y226353D01*
X600815D01*
X598311Y223849D01*
X598263Y223837D01*
X598181Y223835D01*
X598088Y223794D01*
X597980Y223768D01*
X597907Y223714D01*
X597878Y223701D01*
X597541Y223603D01*
X597061Y223505D01*
X595858Y223421D01*
X582733D01*
X580327Y225828D01*
X575273Y227921D01*
X550525D01*
X550264Y227813D01*
X546545D01*
Y229373D01*
X546861Y230135D01*
Y232625D01*
X550525D01*
X550787Y232733D01*
X558565D01*
Y246814D01*
X550787D01*
X550525Y246922D01*
X539713D01*
X534658Y244828D01*
X532565Y239774D01*
Y230135D01*
X532880Y229373D01*
Y227304D01*
X534343Y225842D01*
X534658Y225080D01*
X535420Y224765D01*
X536883Y223302D01*
X538951D01*
X539713Y222987D01*
X540474Y223302D01*
X542486D01*
Y214169D01*
X542485Y213733D01*
X541561Y212899D01*
X525401D01*
X521969Y216332D01*
Y386853D01*
X519875Y391907D01*
X516106Y395677D01*
X516599Y396847D01*
X517360Y397163D01*
X519429D01*
X520891Y398625D01*
X521653Y398941D01*
X543760Y421047D01*
X550525D01*
X550787Y421155D01*
X558565D01*
Y435235D01*
X550787D01*
X550525Y435343D01*
X540799D01*
X535744Y433250D01*
X511544Y409050D01*
X511229Y408288D01*
X509766Y406825D01*
Y404757D01*
X509451Y403995D01*
X508280Y403502D01*
X463244Y448539D01*
X463770Y449809D01*
X549768D01*
X586560Y413017D01*
X586074Y411843D01*
X582733D01*
X580327Y414249D01*
X575273Y416343D01*
X550525D01*
X550264Y416235D01*
X542486D01*
Y402155D01*
X550264D01*
X550525Y402047D01*
X572312D01*
X574718Y399641D01*
X579772Y397547D01*
X596527D01*
X596961Y397485D01*
X597541Y397366D01*
X597878Y397267D01*
X597907Y397254D01*
X597980Y397201D01*
X598088Y397174D01*
X598181Y397133D01*
X598263Y397131D01*
X598311Y397119D01*
X600815Y394615D01*
X609166D01*
X615071Y400520D01*
Y408870D01*
X609166Y414775D01*
X605625D01*
X605582Y414801D01*
X605522Y414858D01*
X605428Y414894D01*
X605332Y414952D01*
X605243Y414966D01*
X605213Y414977D01*
X604906Y415145D01*
X604497Y415415D01*
X603587Y416208D01*
X557784Y462011D01*
X553987Y463584D01*
X554239Y464854D01*
X572312D01*
X574718Y462448D01*
X579772Y460354D01*
X596527D01*
X596961Y460292D01*
X597541Y460173D01*
X597878Y460074D01*
X597907Y460061D01*
X597980Y460008D01*
X598088Y459981D01*
X598181Y459940D01*
X598263Y459938D01*
X598311Y459926D01*
X600815Y457422D01*
X609166D01*
X615071Y463327D01*
Y471678D01*
X609166Y477582D01*
X605625D01*
X605582Y477608D01*
X605522Y477665D01*
X605428Y477702D01*
X605332Y477759D01*
X605243Y477773D01*
X605213Y477785D01*
X604906Y477952D01*
X604497Y478223D01*
X603587Y479015D01*
X573845Y508757D01*
X568791Y510850D01*
X455648D01*
X450594Y508757D01*
X424128Y482290D01*
X423812Y481529D01*
X422349Y480066D01*
Y477998D01*
X422034Y477236D01*
X422349Y476474D01*
Y474406D01*
X423812Y472943D01*
X424128Y472182D01*
X424889Y471866D01*
X426352Y470403D01*
X428420D01*
X429182Y470088D01*
X429944Y470403D01*
X432012D01*
X433475Y471866D01*
X434236Y472182D01*
X458609Y496554D01*
X531972D01*
X532814Y495284D01*
X531040Y491002D01*
Y475184D01*
X531356Y474422D01*
Y472354D01*
X532819Y470891D01*
X533134Y470130D01*
X533896Y469814D01*
X535359Y468352D01*
X537427D01*
X538189Y468036D01*
X538950Y468352D01*
X541019D01*
X541216Y468548D01*
X542486Y468022D01*
X542485Y464962D01*
X541571Y464105D01*
X365215D01*
X360160Y462011D01*
X345999Y447850D01*
X345683Y447088D01*
X345532Y446937D01*
X344221Y447481D01*
X335016D01*
X332931Y449565D01*
X327877Y451659D01*
X315594D01*
X315346Y452904D01*
X316291Y453296D01*
X427165Y564170D01*
X429259Y569225D01*
Y761757D01*
X427165Y766811D01*
X418275Y775701D01*
X413221Y777795D01*
X375121D01*
X370066Y775701D01*
X320028Y725663D01*
X319713Y724902D01*
X318250Y723439D01*
Y721370D01*
X317935Y720609D01*
X318250Y719847D01*
Y717778D01*
X319713Y716316D01*
X320028Y715554D01*
X320790Y715239D01*
X322253Y713776D01*
X324321D01*
X325083Y713461D01*
X325844Y713776D01*
X327913D01*
X329375Y715239D01*
X330137Y715554D01*
X378082Y763499D01*
X380109D01*
X380635Y762228D01*
X379692Y761285D01*
X378930Y760969D01*
X373355Y755394D01*
X371261Y750340D01*
Y696980D01*
X241717Y567435D01*
X235893Y569848D01*
X222685D01*
X217463Y567684D01*
X216407Y568390D01*
Y570074D01*
X222049Y575716D01*
X222685Y575453D01*
X235893D01*
X242892Y578352D01*
X245791Y585350D01*
X242892Y592349D01*
X235893Y595248D01*
X222685D01*
X215687Y592349D01*
X215112Y590962D01*
X213867Y591210D01*
Y604891D01*
X215112Y605138D01*
X215687Y603752D01*
X222685Y600853D01*
X235893D01*
X242892Y603752D01*
X245791Y610750D01*
X242892Y617749D01*
X235893Y620648D01*
X222685D01*
X215687Y617749D01*
X215112Y616362D01*
X213867Y616610D01*
Y641621D01*
X211773Y646676D01*
X208979Y649470D01*
X208218Y649785D01*
X206755Y651248D01*
X204686D01*
X203925Y651563D01*
X203163Y651248D01*
X201094D01*
X199632Y649785D01*
X199389Y649685D01*
X198119Y650378D01*
Y686950D01*
X197803Y687712D01*
Y689780D01*
X196341Y691243D01*
X196025Y692005D01*
X195264Y692320D01*
X193801Y693783D01*
X191732D01*
X190971Y694098D01*
X190209Y693783D01*
X188141D01*
X186678Y692320D01*
X185916Y692005D01*
X185601Y691243D01*
X184657Y690299D01*
X183387Y690825D01*
Y853783D01*
X181293Y858838D01*
X173860Y866271D01*
X173137Y867216D01*
X172336Y868391D01*
X171709Y869458D01*
X171251Y870404D01*
X170954Y871214D01*
X170802Y871873D01*
X170745Y872622D01*
X170544Y873019D01*
Y877919D01*
X162906Y885558D01*
X152103D01*
X144464Y877919D01*
Y867117D01*
X152103Y859478D01*
X157003D01*
X157400Y859277D01*
X158149Y859220D01*
X158808Y859068D01*
X159618Y858771D01*
X160564Y858314D01*
X161631Y857686D01*
X162754Y856920D01*
X164250Y855664D01*
X169090Y850823D01*
Y798859D01*
X168837Y797694D01*
X167820Y797694D01*
X137341D01*
Y795698D01*
X123095D01*
X118041Y793605D01*
X116117Y791681D01*
X115786Y791472D01*
X114832Y790984D01*
X113808Y790566D01*
X112709Y790218D01*
X111530Y789943D01*
X111345Y789914D01*
X98691D01*
Y790705D01*
X79247D01*
Y798674D01*
X84999Y804426D01*
X87093Y809481D01*
Y859478D01*
X92985D01*
Y885558D01*
X66905D01*
Y859478D01*
X72797D01*
Y812442D01*
X67044Y806689D01*
X66985Y806545D01*
X65514Y806313D01*
X60145Y811683D01*
X51836D01*
X45960Y805807D01*
Y797498D01*
X48447Y795012D01*
X48450Y795000D01*
X48451Y794897D01*
X48503Y794780D01*
X48526Y794684D01*
X48572Y794621D01*
X48580Y794602D01*
X48676Y794272D01*
X48771Y793795D01*
X48842Y792741D01*
Y768975D01*
X49202Y768105D01*
Y744452D01*
X49151Y744089D01*
X49036Y743513D01*
X48941Y743184D01*
X48932Y743164D01*
X48886Y743101D01*
X48863Y743005D01*
X48811Y742888D01*
X48810Y742785D01*
X48807Y742773D01*
X46321Y740287D01*
Y731978D01*
X52196Y726103D01*
X56272D01*
X59871Y722504D01*
Y603071D01*
X58601Y602249D01*
X58103Y602473D01*
X57341Y602789D01*
X55879Y604251D01*
X53810D01*
X53049Y604567D01*
X52287Y604251D01*
X50219D01*
X48756Y602789D01*
X47994Y602473D01*
X6846Y561325D01*
X4753Y556271D01*
Y507178D01*
X6846Y502123D01*
X14928Y494041D01*
X15275Y493571D01*
X15606Y493062D01*
X15778Y492739D01*
X15798Y492686D01*
X15815Y492571D01*
X15886Y492452D01*
X15901Y492411D01*
X15927Y492384D01*
X15995Y492270D01*
Y488673D01*
X21964Y482704D01*
X30405D01*
X36375Y488673D01*
Y497114D01*
X30405Y503084D01*
X26808D01*
X26695Y503152D01*
X26667Y503177D01*
X26626Y503192D01*
X26508Y503263D01*
X26392Y503280D01*
X26339Y503300D01*
X26016Y503472D01*
X25596Y503745D01*
X24452Y504735D01*
X22354Y506834D01*
X22880Y508104D01*
X30405D01*
X36375Y514073D01*
Y522514D01*
X30405Y528484D01*
X21964D01*
X20222Y526742D01*
X19049Y527228D01*
Y553310D01*
X58103Y592364D01*
X58601Y592588D01*
X59871Y591767D01*
Y516051D01*
X46530Y502711D01*
X46204Y501924D01*
X41395Y497114D01*
Y488673D01*
X47364Y482704D01*
X55806D01*
X61775Y488673D01*
Y497114D01*
X62332Y498295D01*
X72073Y508036D01*
X74167Y513091D01*
Y725465D01*
X73146Y727928D01*
X73852Y728985D01*
X95751D01*
X100805Y731078D01*
X107887Y738160D01*
X109981Y743215D01*
Y765327D01*
X122365Y777711D01*
X122365Y777711D01*
X126056Y781402D01*
X137341D01*
Y779406D01*
X167820D01*
X168837Y779406D01*
X169090Y778241D01*
Y767613D01*
X167845Y767365D01*
X166692Y770149D01*
X159693Y773048D01*
X146485D01*
X139487Y770149D01*
X136588Y763150D01*
X139487Y756152D01*
X146485Y753253D01*
X159693D01*
X166692Y756152D01*
X167845Y758936D01*
X169090Y758688D01*
Y742213D01*
X167845Y741965D01*
X166692Y744749D01*
X159693Y747648D01*
X146485D01*
X139487Y744749D01*
X136588Y737750D01*
X139487Y730752D01*
X146485Y727853D01*
X159693D01*
X166692Y730752D01*
X167845Y733536D01*
X169090Y733288D01*
Y716813D01*
X167845Y716565D01*
X166692Y719349D01*
X159693Y722248D01*
X146485D01*
X139487Y719349D01*
X136588Y712350D01*
X139487Y705352D01*
X146485Y702453D01*
X159693D01*
X166692Y705352D01*
X167845Y708136D01*
X169090Y707888D01*
Y691413D01*
X167845Y691165D01*
X166692Y693949D01*
X159693Y696848D01*
X146485D01*
X139487Y693949D01*
X136588Y686950D01*
X139487Y679952D01*
X146485Y677053D01*
X159693D01*
X166692Y679952D01*
X167845Y682736D01*
X169090Y682488D01*
Y666012D01*
X167845Y665765D01*
X166692Y668549D01*
X159693Y671448D01*
X146485D01*
X139487Y668549D01*
X136588Y661550D01*
X139487Y654552D01*
X146485Y651653D01*
X159693D01*
X166692Y654552D01*
X167845Y657336D01*
X169090Y657088D01*
Y640612D01*
X167845Y640365D01*
X166692Y643149D01*
X159693Y646048D01*
X146485D01*
X139487Y643149D01*
X136588Y636150D01*
X139487Y629152D01*
X146485Y626253D01*
X159693D01*
X166692Y629152D01*
X167845Y631936D01*
X169090Y631688D01*
Y589813D01*
X167845Y589565D01*
X166692Y592349D01*
X159693Y595248D01*
X146485D01*
X139487Y592349D01*
X136588Y585350D01*
X139487Y578352D01*
X146485Y575453D01*
X159693D01*
X166692Y578352D01*
X167845Y581136D01*
X169090Y580888D01*
Y564412D01*
X167845Y564165D01*
X166692Y566949D01*
X159693Y569848D01*
X146485D01*
X139847Y567098D01*
X118078D01*
X116428Y572861D01*
Y596760D01*
X99348D01*
Y556680D01*
X102095D01*
X102834Y554896D01*
X107220Y553079D01*
X109381Y545530D01*
X108424Y544260D01*
X107498D01*
X107008Y544260D01*
X100178D01*
Y534370D01*
Y524480D01*
X107008D01*
X108278Y524480D01*
X108768Y524480D01*
X119581D01*
X120067Y523307D01*
X115523Y518763D01*
X113429Y513708D01*
Y440764D01*
X115523Y435709D01*
X124876Y426356D01*
X124991Y425962D01*
X124761Y424811D01*
X124552Y424306D01*
X124165Y423919D01*
Y423373D01*
X123956Y422867D01*
Y395017D01*
X124761Y393073D01*
X126705Y392267D01*
X142164D01*
X146208Y390592D01*
X161693Y375107D01*
X161693Y375107D01*
X163637Y374302D01*
X163637Y374302D01*
X178081D01*
Y371784D01*
X183351D01*
Y376554D01*
X181165D01*
X180832Y377052D01*
Y378775D01*
X180623Y379280D01*
Y379827D01*
X180448Y380249D01*
X181897Y383746D01*
X214993Y416842D01*
X219037Y418517D01*
X279744D01*
X283788Y416842D01*
X285134Y415496D01*
X285241Y415239D01*
X285627Y414853D01*
X285837Y414347D01*
X286494Y413690D01*
Y412760D01*
X286703Y412255D01*
Y411742D01*
X286494Y411237D01*
Y410307D01*
X285837Y409650D01*
X285627Y409145D01*
X285265Y408782D01*
X284759Y408573D01*
X284102Y407915D01*
X283172D01*
X282667Y407706D01*
X282154D01*
X281649Y407915D01*
X280719D01*
X280062Y408573D01*
X279557Y408782D01*
X279170Y409169D01*
X278408Y409484D01*
X277898D01*
X277330Y409719D01*
X277330Y409719D01*
X245961D01*
Y410053D01*
X224881D01*
Y369973D01*
X228846D01*
X230366Y366304D01*
X241444Y355227D01*
X240958Y354053D01*
X236691D01*
Y335284D01*
X245961D01*
Y349050D01*
X247134Y349536D01*
X258110Y338560D01*
X258449Y338062D01*
X259086Y336940D01*
X259622Y335782D01*
X260062Y334584D01*
X260404Y333341D01*
X260517Y332749D01*
Y327837D01*
X247231Y314551D01*
X245961Y315077D01*
Y332744D01*
X236691D01*
Y313974D01*
X244857D01*
X245383Y312704D01*
X243877Y311197D01*
X224906D01*
X191158Y344945D01*
Y347474D01*
X191161D01*
Y359554D01*
X185822D01*
X184621Y360051D01*
X147135D01*
X145505Y360727D01*
X111281D01*
Y375809D01*
X88701D01*
Y368627D01*
X68911D01*
Y375809D01*
X46331D01*
Y344229D01*
X50472D01*
Y291349D01*
X52566Y286294D01*
X52592Y286269D01*
X37326Y271003D01*
X35233Y265949D01*
Y261308D01*
X31241D01*
Y251265D01*
X30067Y250779D01*
X27623Y253223D01*
X23751Y254827D01*
Y255209D01*
X22830D01*
X22569Y255317D01*
X15711D01*
X15450Y255209D01*
X7671D01*
Y241129D01*
X15450D01*
X15711Y241021D01*
X19608D01*
X23150Y237478D01*
X22624Y236208D01*
X16981D01*
Y230438D01*
X23751D01*
Y235082D01*
X25021Y235608D01*
X31241Y229388D01*
Y216029D01*
X53521D01*
Y231909D01*
X46573D01*
X45053Y235179D01*
X44113Y236042D01*
X43625Y237221D01*
X36591Y244255D01*
X37077Y245429D01*
X53521D01*
Y261308D01*
X49529D01*
Y262988D01*
X64391Y277850D01*
X66511D01*
Y261259D01*
X109691D01*
Y308739D01*
X69135D01*
X66210Y343293D01*
X67069Y344229D01*
X68911D01*
Y354331D01*
X88701D01*
Y344229D01*
X111281D01*
Y346431D01*
X145413D01*
X145570Y346366D01*
X147044Y346976D01*
X178083D01*
Y342847D01*
X177473Y341373D01*
X179566Y336319D01*
X216891Y298994D01*
X221945Y296901D01*
X246838D01*
X251892Y298994D01*
X272720Y319822D01*
X274814Y324877D01*
Y329431D01*
X274994Y329973D01*
X275325Y330588D01*
X275715Y331064D01*
X276192Y331454D01*
X276807Y331785D01*
X277348Y331966D01*
X303323D01*
X304068Y331657D01*
X315773D01*
X316518Y331966D01*
X319569D01*
X403099Y248435D01*
X403099Y248435D01*
X528816Y122718D01*
X533871Y120625D01*
X535167D01*
X535414Y119379D01*
X535014Y119213D01*
X531356Y115555D01*
X531041Y114794D01*
X529578Y113331D01*
Y111262D01*
X529263Y110501D01*
X529578Y109739D01*
Y107670D01*
X531041Y106208D01*
X531356Y105446D01*
X532118Y105131D01*
X533581Y103668D01*
X535649D01*
X536411Y103353D01*
X537172Y103668D01*
X539241D01*
X540704Y105131D01*
X541465Y105446D01*
X543030Y107011D01*
X550525D01*
X550787Y107119D01*
X558565D01*
Y120625D01*
X604697D01*
X609752Y122718D01*
X622069Y135035D01*
X623242Y134549D01*
Y99122D01*
X623180Y98689D01*
X623061Y98108D01*
X622962Y97772D01*
X622950Y97743D01*
X622896Y97670D01*
X622870Y97562D01*
X622829Y97469D01*
X622827Y97386D01*
X622815Y97338D01*
X620311Y94834D01*
Y86483D01*
X626215Y80579D01*
X634566D01*
X636293Y82306D01*
X637467Y81820D01*
Y75703D01*
X637782Y74941D01*
Y72873D01*
X639245Y71410D01*
X639560Y70648D01*
X640322Y70333D01*
X641785Y68870D01*
X643853D01*
X644615Y68555D01*
X645376Y68870D01*
X647445D01*
X648907Y70333D01*
X649669Y70648D01*
X649985Y71410D01*
X651447Y72873D01*
Y74941D01*
X651763Y75703D01*
Y799349D01*
X649669Y804403D01*
X630619Y823453D01*
X625565Y825547D01*
X535395D01*
X530340Y823453D01*
X518656Y811769D01*
X518341Y811008D01*
X517445Y810112D01*
X516165Y810627D01*
X515109Y864006D01*
X514039Y866451D01*
X513017Y868919D01*
X487109Y894827D01*
X482055Y896921D01*
D02*
G37*
G36*
X220544Y885558D02*
X194464D01*
Y859478D01*
X220544D01*
Y885558D01*
D02*
G37*
G36*
X291599D02*
X280796D01*
X273157Y877919D01*
Y873019D01*
X272957Y872622D01*
X272899Y871873D01*
X272747Y871214D01*
X272451Y870404D01*
X271993Y869458D01*
X271365Y868391D01*
X270599Y867268D01*
X269343Y865772D01*
X238689Y835119D01*
X236596Y830064D01*
Y798917D01*
X235893Y798448D01*
X222685D01*
X215687Y795549D01*
X212788Y788550D01*
X215687Y781552D01*
X222685Y778653D01*
X235893D01*
X242530Y781402D01*
X243744D01*
X248798Y783496D01*
X250892Y788550D01*
Y827104D01*
X279950Y856162D01*
X280895Y856885D01*
X282070Y857686D01*
X283137Y858314D01*
X284083Y858771D01*
X284893Y859068D01*
X285553Y859220D01*
X286302Y859277D01*
X286698Y859478D01*
X291599D01*
X299237Y867117D01*
Y877919D01*
X291599Y885558D01*
D02*
G37*
G36*
X235893Y747648D02*
X222685D01*
X215687Y744749D01*
X212788Y737750D01*
X215687Y730752D01*
X222685Y727853D01*
X235893D01*
X242892Y730752D01*
X245791Y737750D01*
X242892Y744749D01*
X235893Y747648D01*
D02*
G37*
G36*
X550525Y749379D02*
X544063D01*
X543802Y749271D01*
X542486D01*
Y748726D01*
X539009Y747286D01*
X532626Y740903D01*
X530532Y735849D01*
Y718032D01*
X530848Y717270D01*
Y715201D01*
X532311Y713739D01*
X532626Y712977D01*
X533388Y712662D01*
X534851Y711199D01*
X536919D01*
X537681Y710883D01*
X538442Y711199D01*
X540511D01*
X541973Y712662D01*
X542735Y712977D01*
X543051Y713739D01*
X544513Y715201D01*
Y716191D01*
X550264D01*
X550525Y716083D01*
X572312D01*
X574719Y713677D01*
X579773Y711583D01*
X596527D01*
X596961Y711520D01*
X597541Y711402D01*
X597878Y711303D01*
X597907Y711290D01*
X597980Y711237D01*
X598088Y711210D01*
X598181Y711169D01*
X598263Y711167D01*
X598311Y711155D01*
X600815Y708651D01*
X609166D01*
X615071Y714556D01*
Y722906D01*
X609166Y728811D01*
X600815D01*
X598311Y726307D01*
X598263Y726295D01*
X598181Y726293D01*
X598088Y726252D01*
X597980Y726226D01*
X597907Y726172D01*
X597878Y726159D01*
X597541Y726060D01*
X597061Y725962D01*
X595858Y725879D01*
X582734D01*
X580327Y728286D01*
X575273Y730380D01*
X550525D01*
X550264Y730272D01*
X544829D01*
Y732888D01*
X547024Y735083D01*
X550525D01*
X550787Y735191D01*
X558565D01*
Y749271D01*
X550787D01*
X550525Y749379D01*
D02*
G37*
G36*
X476213Y766365D02*
X475451Y766049D01*
X473382D01*
X471920Y764587D01*
X471158Y764271D01*
X470843Y763510D01*
X469380Y762047D01*
Y759978D01*
X469064Y759217D01*
Y687081D01*
X469380Y686319D01*
Y684250D01*
X470843Y682788D01*
X471158Y682026D01*
X471920Y681711D01*
X473382Y680248D01*
X475451D01*
X476213Y679932D01*
X476974Y680248D01*
X479043D01*
X480505Y681711D01*
X481267Y682026D01*
X481583Y682788D01*
X483045Y684250D01*
Y686319D01*
X483361Y687081D01*
Y759217D01*
X483045Y759978D01*
Y762047D01*
X481583Y763510D01*
X481267Y764271D01*
X480505Y764587D01*
X479043Y766049D01*
X476974D01*
X476213Y766365D01*
D02*
G37*
G36*
X118138Y683960D02*
Y675340D01*
X125458D01*
Y683960D01*
X118138D01*
D02*
G37*
G36*
X125458Y672800D02*
X118138D01*
Y664180D01*
X125458D01*
Y672800D01*
D02*
G37*
G36*
X107498Y683960D02*
X107008Y683960D01*
X90318D01*
Y664180D01*
X91760D01*
Y657199D01*
X93854Y652144D01*
X99348Y646650D01*
Y625649D01*
X94959D01*
X89904Y623555D01*
X79490Y613141D01*
X79175Y612379D01*
X77712Y610917D01*
Y608848D01*
X77397Y608087D01*
X77712Y607325D01*
Y605257D01*
X79175Y603794D01*
X79490Y603032D01*
X80252Y602717D01*
X81714Y601254D01*
X83783D01*
X84545Y600939D01*
X85306Y601254D01*
X87375D01*
X88837Y602717D01*
X89599Y603032D01*
X97920Y611353D01*
X107888D01*
X108680Y611680D01*
X116428D01*
Y651760D01*
X113954D01*
X113296Y652421D01*
X112943Y653273D01*
X106056Y660159D01*
Y663282D01*
X106954Y664180D01*
X108278Y664180D01*
X108768Y664180D01*
X115598D01*
Y674070D01*
Y683960D01*
X108768D01*
X107498Y683960D01*
D02*
G37*
G36*
X97638Y544260D02*
X90318D01*
Y535640D01*
X97638D01*
Y544260D01*
D02*
G37*
G36*
Y533100D02*
X90318D01*
Y524480D01*
X97638D01*
Y533100D01*
D02*
G37*
G36*
X550525Y560957D02*
X538775D01*
X533721Y558864D01*
X525260Y550403D01*
X523167Y545349D01*
Y529609D01*
X523482Y528848D01*
Y526779D01*
X524945Y525317D01*
X525260Y524555D01*
X526022Y524239D01*
X527485Y522777D01*
X529553D01*
X530315Y522461D01*
X531076Y522777D01*
X533145D01*
X534608Y524239D01*
X535369Y524555D01*
X535685Y525317D01*
X537147Y526779D01*
Y528848D01*
X537463Y529609D01*
Y542388D01*
X541736Y546661D01*
X550525D01*
X550787Y546769D01*
X558565D01*
Y560849D01*
X550787D01*
X550525Y560957D01*
D02*
G37*
G36*
X55806Y477684D02*
X47364D01*
X41395Y471714D01*
Y463273D01*
X47364Y457304D01*
X55806D01*
X61775Y463273D01*
Y471714D01*
X55806Y477684D01*
D02*
G37*
G36*
X36375D02*
X15995D01*
Y457304D01*
X19037D01*
Y445527D01*
X19352Y444765D01*
Y442696D01*
X20815Y441234D01*
X21130Y440472D01*
X21892Y440157D01*
X23354Y438694D01*
X25423D01*
X26185Y438378D01*
X26946Y438694D01*
X29015D01*
X30477Y440157D01*
X31239Y440472D01*
X31555Y441234D01*
X33017Y442696D01*
Y444765D01*
X33333Y445527D01*
Y457304D01*
X36375D01*
Y477684D01*
D02*
G37*
G36*
X111281Y418809D02*
X101261D01*
Y404289D01*
X111281D01*
Y418809D01*
D02*
G37*
G36*
X68911D02*
X58891D01*
Y404289D01*
X68911D01*
Y418809D01*
D02*
G37*
G36*
X98721D02*
X88701D01*
Y404289D01*
X98721D01*
Y418809D01*
D02*
G37*
G36*
X56351D02*
X46331D01*
Y404289D01*
X56351D01*
Y418809D01*
D02*
G37*
G36*
X111281Y401749D02*
X101261D01*
Y387229D01*
X111281D01*
Y401749D01*
D02*
G37*
G36*
X98721D02*
X88701D01*
Y387229D01*
X98721D01*
Y401749D01*
D02*
G37*
G36*
X68911D02*
X58891D01*
Y387229D01*
X68911D01*
Y401749D01*
D02*
G37*
G36*
X56351D02*
X46331D01*
Y387229D01*
X56351D01*
Y401749D01*
D02*
G37*
G36*
X191161Y376554D02*
X185891D01*
Y371784D01*
X191161D01*
Y376554D01*
D02*
G37*
G36*
Y369244D02*
X185891D01*
Y364474D01*
X191161D01*
Y369244D01*
D02*
G37*
G36*
X183351D02*
X178081D01*
Y364474D01*
X183351D01*
Y369244D01*
D02*
G37*
G36*
X234151Y354053D02*
X226200D01*
X228786Y351453D01*
X227482Y341323D01*
X224881Y343910D01*
Y335284D01*
X234151D01*
Y354053D01*
D02*
G37*
G36*
Y332744D02*
X224881D01*
Y313974D01*
X234151D01*
Y332744D01*
D02*
G37*
G36*
X550525Y372536D02*
X537681D01*
X532626Y370442D01*
X530532Y365388D01*
Y333767D01*
X532626Y328712D01*
X537681Y326618D01*
X541324D01*
X542278Y325664D01*
X543538Y325142D01*
X543290Y323897D01*
X535649D01*
X530594Y321803D01*
X526276Y317485D01*
X525961Y316723D01*
X524498Y315261D01*
Y313192D01*
X524183Y312431D01*
X524498Y311669D01*
Y309601D01*
X525961Y308138D01*
X526276Y307376D01*
X527038Y307061D01*
X528501Y305598D01*
X530569D01*
X531331Y305283D01*
X531645Y305413D01*
X531742Y305344D01*
X532422Y304476D01*
X532466Y304328D01*
X530532Y299661D01*
Y281697D01*
X531102Y280322D01*
Y278612D01*
X532311Y277404D01*
X532626Y276642D01*
X532880Y276388D01*
X533642Y276073D01*
X535104Y274610D01*
X537173D01*
X537935Y274295D01*
X538696Y274610D01*
X540765D01*
X542228Y276073D01*
X542989Y276388D01*
X543052Y276540D01*
X550264D01*
X550525Y276432D01*
X572312D01*
X574718Y274026D01*
X579772Y271932D01*
X596527D01*
X596961Y271870D01*
X597541Y271751D01*
X597878Y271652D01*
X597907Y271639D01*
X597980Y271586D01*
X598088Y271560D01*
X598181Y271518D01*
X598263Y271516D01*
X598311Y271505D01*
X600815Y269000D01*
X609166D01*
X615071Y274905D01*
Y283256D01*
X609166Y289160D01*
X600815D01*
X598311Y286656D01*
X598263Y286644D01*
X598181Y286642D01*
X598088Y286602D01*
X597980Y286575D01*
X597907Y286521D01*
X597878Y286509D01*
X597541Y286410D01*
X597061Y286312D01*
X595858Y286229D01*
X582733D01*
X580327Y288635D01*
X575273Y290728D01*
X550525D01*
X550264Y290620D01*
X544829D01*
Y295432D01*
X550525D01*
X550787Y295541D01*
X558565D01*
Y309601D01*
X579852D01*
X584906Y311694D01*
X604061Y330849D01*
X604411Y331111D01*
X604906Y331437D01*
X605213Y331605D01*
X605243Y331617D01*
X605332Y331631D01*
X605428Y331688D01*
X605522Y331725D01*
X605582Y331782D01*
X605625Y331808D01*
X609166D01*
X615071Y337712D01*
Y346063D01*
X609166Y351968D01*
X600815D01*
X598311Y349463D01*
X598263Y349451D01*
X598181Y349450D01*
X598088Y349408D01*
X597980Y349382D01*
X597907Y349329D01*
X597878Y349316D01*
X597541Y349217D01*
X597061Y349119D01*
X595858Y349036D01*
X582734D01*
X580327Y351442D01*
X575273Y353536D01*
X550525D01*
X550264Y353428D01*
X544829D01*
Y358240D01*
X550525D01*
X550787Y358348D01*
X558565D01*
Y372428D01*
X550787D01*
X550525Y372536D01*
D02*
G37*
G36*
X14441Y236208D02*
X7671D01*
Y230438D01*
X14441D01*
Y236208D01*
D02*
G37*
G36*
X23751Y227899D02*
X16981D01*
Y222129D01*
X23751D01*
Y227899D01*
D02*
G37*
G36*
X14441D02*
X7671D01*
Y222129D01*
X14441D01*
Y227899D01*
D02*
G37*
G36*
X216371Y276653D02*
X215609Y276337D01*
X213540D01*
X212078Y274875D01*
X211316Y274559D01*
X211001Y273797D01*
X209538Y272335D01*
Y270266D01*
X209223Y269505D01*
X209538Y268743D01*
Y266674D01*
X211001Y265212D01*
X211316Y264450D01*
X354826Y120940D01*
X355588Y120625D01*
X357051Y119162D01*
X359119D01*
X359881Y118847D01*
X360642Y119162D01*
X362711D01*
X364173Y120625D01*
X364935Y120940D01*
X365251Y121702D01*
X366713Y123165D01*
Y125233D01*
X367029Y125995D01*
X366713Y126756D01*
Y128825D01*
X365251Y130287D01*
X364935Y131049D01*
X221425Y274559D01*
X220664Y274875D01*
X219201Y276337D01*
X217132D01*
X216371Y276653D01*
D02*
G37*
G36*
X571978Y102307D02*
X550525D01*
X550264Y102199D01*
X542486D01*
Y88119D01*
X550264D01*
X550525Y88010D01*
X569017D01*
X571423Y85604D01*
X576478Y83511D01*
X596527D01*
X596961Y83448D01*
X597541Y83329D01*
X597878Y83230D01*
X597907Y83218D01*
X597980Y83164D01*
X598088Y83138D01*
X598181Y83097D01*
X598263Y83095D01*
X598311Y83083D01*
X600815Y80579D01*
X609166D01*
X615071Y86483D01*
Y94834D01*
X609166Y100739D01*
X600815D01*
X598311Y98235D01*
X598263Y98223D01*
X598181Y98221D01*
X598088Y98180D01*
X597980Y98153D01*
X597907Y98100D01*
X597878Y98087D01*
X597541Y97988D01*
X597061Y97890D01*
X595858Y97807D01*
X579439D01*
X577032Y100213D01*
X571978Y102307D01*
D02*
G37*
%LPD*%
G36*
X407392Y865168D02*
X406664Y865792D01*
X405770Y866351D01*
X404709Y866844D01*
X403481Y867271D01*
X402086Y867632D01*
X400524Y867928D01*
X398795Y868158D01*
X394838Y868421D01*
X392609Y868454D01*
Y876582D01*
X394838Y876615D01*
X400524Y877108D01*
X402086Y877403D01*
X403481Y877765D01*
X404709Y878192D01*
X405770Y878685D01*
X406664Y879244D01*
X407392Y879868D01*
Y865168D01*
D02*
G37*
G36*
X168077Y871457D02*
X168314Y870430D01*
X168716Y869331D01*
X169282Y868160D01*
X170013Y866918D01*
X170908Y865605D01*
X171968Y864220D01*
X174580Y861236D01*
X176133Y859636D01*
X170386Y853889D01*
X168787Y855442D01*
X164417Y859114D01*
X163104Y860009D01*
X161862Y860740D01*
X160692Y861306D01*
X159593Y861708D01*
X158565Y861945D01*
X157609Y862019D01*
X168004Y872413D01*
X168077Y871457D01*
D02*
G37*
G36*
X61009Y795996D02*
X60809Y795536D01*
X60632Y794924D01*
X60479Y794160D01*
X60349Y793243D01*
X60161Y790952D01*
X60054Y786373D01*
X51926D01*
X51915Y788052D01*
X51502Y794160D01*
X51349Y794924D01*
X51172Y795536D01*
X50971Y795996D01*
X50747Y796303D01*
X61234D01*
X61009Y795996D01*
D02*
G37*
G36*
X599606Y776261D02*
X599292Y776491D01*
X598825Y776698D01*
X598205Y776880D01*
X597433Y777038D01*
X596507Y777171D01*
X594199Y777365D01*
X589592Y777475D01*
Y785603D01*
X591280Y785615D01*
X597433Y786040D01*
X598205Y786198D01*
X598825Y786380D01*
X599292Y786586D01*
X599606Y786817D01*
Y776261D01*
D02*
G37*
G36*
X117311Y782766D02*
X101752Y772954D01*
X102763Y774046D01*
X103496Y775023D01*
X103952Y775885D01*
X104130Y776633D01*
X104030Y777265D01*
X103654Y777782D01*
X102999Y778184D01*
X102067Y778472D01*
X100858Y778644D01*
X99371Y778701D01*
X107499Y786830D01*
X109090Y786876D01*
X110609Y787013D01*
X112058Y787243D01*
X113436Y787565D01*
X114744Y787978D01*
X115981Y788484D01*
X117147Y789081D01*
X118243Y789770D01*
X119267Y790551D01*
X120222Y791424D01*
X117311Y782766D01*
D02*
G37*
G36*
X635438Y775840D02*
X635232Y775373D01*
X635050Y774753D01*
X634892Y773981D01*
X634758Y773055D01*
X634564Y770747D01*
X634455Y766140D01*
X626327D01*
X626315Y767828D01*
X625890Y773981D01*
X625732Y774753D01*
X625550Y775373D01*
X625343Y775840D01*
X625113Y776154D01*
X635669D01*
X635438Y775840D01*
D02*
G37*
G36*
X60426Y749733D02*
X60839Y743625D01*
X60992Y742861D01*
X61169Y742249D01*
X61370Y741789D01*
X61594Y741482D01*
X51108D01*
X51332Y741789D01*
X51532Y742249D01*
X51709Y742861D01*
X51862Y743625D01*
X51992Y744542D01*
X52181Y746833D01*
X52287Y751412D01*
X60415D01*
X60426Y749733D01*
D02*
G37*
G36*
X634467Y732442D02*
X634892Y726289D01*
X635050Y725517D01*
X635232Y724897D01*
X635438Y724430D01*
X635669Y724116D01*
X625113D01*
X625343Y724430D01*
X625550Y724897D01*
X625732Y725517D01*
X625890Y726289D01*
X626023Y727214D01*
X626217Y729523D01*
X626327Y734130D01*
X634455D01*
X634467Y732442D01*
D02*
G37*
G36*
X62007Y741152D02*
X62467Y740951D01*
X63079Y740774D01*
X63843Y740621D01*
X64760Y740491D01*
X67051Y740303D01*
X71630Y740197D01*
Y732069D01*
X69951Y732057D01*
X66502Y731824D01*
X69892Y728338D01*
X64145Y722591D01*
X57487Y728729D01*
X61700Y732942D01*
Y741376D01*
X62007Y741152D01*
D02*
G37*
G36*
X635438Y713032D02*
X635232Y712565D01*
X635050Y711945D01*
X634892Y711173D01*
X634758Y710248D01*
X634564Y707940D01*
X634455Y703332D01*
X626327D01*
X626315Y705021D01*
X625890Y711173D01*
X625732Y711945D01*
X625550Y712565D01*
X625343Y713032D01*
X625113Y713346D01*
X635669D01*
X635438Y713032D01*
D02*
G37*
G36*
X634467Y669634D02*
X634892Y663482D01*
X635050Y662710D01*
X635232Y662090D01*
X635438Y661623D01*
X635669Y661309D01*
X625113D01*
X625343Y661623D01*
X625550Y662090D01*
X625732Y662710D01*
X625890Y663482D01*
X626023Y664407D01*
X626217Y666715D01*
X626327Y671323D01*
X634455D01*
X634467Y669634D01*
D02*
G37*
G36*
X635438Y650225D02*
X635232Y649758D01*
X635050Y649138D01*
X634892Y648366D01*
X634758Y647441D01*
X634564Y645133D01*
X634455Y640525D01*
X626327D01*
X626315Y642214D01*
X625890Y648366D01*
X625732Y649138D01*
X625550Y649758D01*
X625343Y650225D01*
X625113Y650539D01*
X635669D01*
X635438Y650225D01*
D02*
G37*
G36*
X634467Y606827D02*
X634892Y600675D01*
X635050Y599903D01*
X635232Y599283D01*
X635438Y598816D01*
X635669Y598502D01*
X625113D01*
X625343Y598816D01*
X625550Y599283D01*
X625732Y599903D01*
X625890Y600675D01*
X626023Y601600D01*
X626217Y603908D01*
X626327Y608516D01*
X634455D01*
X634467Y606827D01*
D02*
G37*
G36*
X598178Y605694D02*
X602829Y601644D01*
X603487Y601209D01*
X604054Y600900D01*
X604530Y600716D01*
X604915Y600657D01*
X599606Y595347D01*
Y587839D01*
X599292Y588070D01*
X598825Y588276D01*
X598205Y588458D01*
X597433Y588616D01*
X596507Y588749D01*
X594199Y588944D01*
X589592Y589053D01*
Y597181D01*
X591280Y597193D01*
X594718Y597430D01*
X594409Y597797D01*
X591228Y601132D01*
X596976Y606879D01*
X598178Y605694D01*
D02*
G37*
G36*
X635438Y587418D02*
X635232Y586951D01*
X635050Y586331D01*
X634892Y585559D01*
X634758Y584634D01*
X634564Y582326D01*
X634455Y577718D01*
X626327D01*
X626315Y579406D01*
X625890Y585559D01*
X625732Y586331D01*
X625550Y586951D01*
X625343Y587418D01*
X625113Y587732D01*
X635669D01*
X635438Y587418D01*
D02*
G37*
G36*
X220981Y579030D02*
X215225Y573253D01*
X210360Y579883D01*
X216138Y585628D01*
X220981Y579030D01*
D02*
G37*
G36*
X119033Y552555D02*
X111219Y550318D01*
X108662Y559281D01*
X113827Y570634D01*
X119033Y552555D01*
D02*
G37*
G36*
X634467Y544020D02*
X634892Y537868D01*
X635050Y537095D01*
X635232Y536475D01*
X635438Y536008D01*
X635669Y535694D01*
X625113D01*
X625343Y536008D01*
X625550Y536475D01*
X625732Y537095D01*
X625890Y537868D01*
X626023Y538792D01*
X626217Y541101D01*
X626327Y545708D01*
X634455D01*
X634467Y544020D01*
D02*
G37*
G36*
X598178Y542886D02*
X602829Y538836D01*
X603487Y538402D01*
X604054Y538092D01*
X604530Y537908D01*
X604915Y537849D01*
X599606Y532540D01*
Y525031D01*
X599292Y525262D01*
X598825Y525468D01*
X598205Y525650D01*
X597433Y525808D01*
X596507Y525942D01*
X594199Y526136D01*
X589592Y526245D01*
Y534373D01*
X591280Y534385D01*
X594718Y534623D01*
X594409Y534989D01*
X591228Y538324D01*
X596976Y544072D01*
X598178Y542886D01*
D02*
G37*
G36*
X635438Y524610D02*
X635232Y524143D01*
X635050Y523524D01*
X634892Y522751D01*
X634758Y521826D01*
X634564Y519518D01*
X634455Y514910D01*
X626327D01*
X626315Y516599D01*
X625890Y522751D01*
X625732Y523524D01*
X625550Y524143D01*
X625343Y524610D01*
X625113Y524925D01*
X635669D01*
X635438Y524610D01*
D02*
G37*
G36*
X143094Y503544D02*
X137332Y497770D01*
X131781Y503713D01*
X140383Y511678D01*
X143094Y503544D01*
D02*
G37*
G36*
X63955Y504280D02*
X62758Y503058D01*
X59399Y499121D01*
X58917Y498373D01*
X58578Y497720D01*
X58382Y497162D01*
X58329Y496699D01*
X58419Y496330D01*
X49144Y500144D01*
X57678Y509497D01*
X63955Y504280D01*
D02*
G37*
G36*
X19202Y505642D02*
X23941Y501542D01*
X24618Y501102D01*
X25205Y500789D01*
X25701Y500603D01*
X26108Y500543D01*
X18535Y492970D01*
X18475Y493377D01*
X18289Y493873D01*
X17976Y494460D01*
X17536Y495138D01*
X16969Y495905D01*
X15457Y497710D01*
X13437Y499876D01*
X12237Y501094D01*
X17984Y506842D01*
X19202Y505642D01*
D02*
G37*
G36*
X400738Y675819D02*
Y636702D01*
X331712Y567675D01*
X331397Y566913D01*
X329934Y565451D01*
Y563382D01*
X329619Y562621D01*
X329934Y561859D01*
Y559790D01*
X331397Y558328D01*
X331712Y557566D01*
X332474Y557251D01*
X333937Y555788D01*
X336005D01*
X336767Y555473D01*
X337528Y555788D01*
X339597D01*
X341059Y557251D01*
X341821Y557566D01*
X412941Y628686D01*
X413717Y630559D01*
X414963Y630311D01*
Y572186D01*
X308275Y465498D01*
X242531D01*
X235893Y468248D01*
X222685D01*
X217463Y466084D01*
X216407Y466790D01*
Y475311D01*
X217463Y476016D01*
X222685Y473853D01*
X235893D01*
X242530Y476602D01*
X248752D01*
X253807Y478696D01*
X274765Y499654D01*
X276859Y504709D01*
Y524608D01*
X384747Y632496D01*
X385063Y633258D01*
X386525Y634720D01*
Y636789D01*
X386841Y637551D01*
X386525Y638312D01*
Y640381D01*
X385063Y641843D01*
X384747Y642605D01*
X383985Y642921D01*
X382523Y644383D01*
X380454D01*
X379693Y644699D01*
X378931Y644383D01*
X376862D01*
X375400Y642921D01*
X374638Y642605D01*
X265429Y533396D01*
X264159Y533922D01*
Y539340D01*
X398463Y673644D01*
X399468Y676071D01*
X400738Y675819D01*
D02*
G37*
G36*
X634467Y481213D02*
X634892Y475060D01*
X635050Y474288D01*
X635232Y473668D01*
X635438Y473201D01*
X635669Y472887D01*
X625113D01*
X625343Y473201D01*
X625550Y473668D01*
X625732Y474288D01*
X625890Y475060D01*
X626023Y475985D01*
X626217Y478294D01*
X626327Y482901D01*
X634455D01*
X634467Y481213D01*
D02*
G37*
G36*
X598178Y480079D02*
X602829Y476029D01*
X603487Y475595D01*
X604054Y475285D01*
X604530Y475101D01*
X604915Y475042D01*
X599606Y469733D01*
Y462224D01*
X599292Y462455D01*
X598825Y462661D01*
X598205Y462843D01*
X597433Y463001D01*
X596507Y463135D01*
X594199Y463329D01*
X589592Y463438D01*
Y471566D01*
X591280Y471578D01*
X594718Y471816D01*
X594409Y472182D01*
X591228Y475517D01*
X596976Y481265D01*
X598178Y480079D01*
D02*
G37*
G36*
X635438Y461803D02*
X635232Y461336D01*
X635050Y460717D01*
X634892Y459944D01*
X634758Y459019D01*
X634564Y456711D01*
X634455Y452103D01*
X626327D01*
X626315Y453792D01*
X625890Y459944D01*
X625732Y460717D01*
X625550Y461336D01*
X625343Y461803D01*
X625113Y462118D01*
X635669D01*
X635438Y461803D01*
D02*
G37*
G36*
X450269Y444257D02*
X450584Y443495D01*
Y441427D01*
X452047Y439964D01*
X452362Y439202D01*
X507673Y383892D01*
Y376554D01*
X503125D01*
Y370514D01*
Y364474D01*
X507673D01*
Y359554D01*
X503057D01*
X501856Y360051D01*
X500654Y359554D01*
X495316D01*
Y351204D01*
X490360Y346249D01*
X461861D01*
Y354053D01*
X440781D01*
Y313974D01*
X444349D01*
X445370Y311507D01*
X444665Y310451D01*
X415302D01*
Y341306D01*
X414986Y342068D01*
Y344137D01*
X413524Y345599D01*
X413208Y346361D01*
X412447Y346676D01*
X410984Y348139D01*
X408916D01*
X408154Y348455D01*
X407392Y348139D01*
X405324D01*
X403861Y346676D01*
X403099Y346361D01*
X402784Y345599D01*
X401321Y344137D01*
Y342068D01*
X401006Y341306D01*
Y310451D01*
X361301D01*
X327584Y344168D01*
X322529Y346262D01*
X316518D01*
X315773Y346571D01*
X304068D01*
X303323Y346262D01*
X274030D01*
X273438Y346375D01*
X272195Y346718D01*
X270997Y347157D01*
X269839Y347694D01*
X268718Y348330D01*
X268219Y348669D01*
X245961Y370928D01*
Y406970D01*
X277330D01*
X277356Y406944D01*
X278118Y406629D01*
X279580Y405166D01*
X281649D01*
X282411Y404851D01*
X283172Y405166D01*
X285241D01*
X286703Y406629D01*
X287465Y406944D01*
X287781Y407706D01*
X289243Y409169D01*
Y411237D01*
X289559Y411999D01*
X289243Y412760D01*
Y414829D01*
X287781Y416292D01*
X287465Y417053D01*
X285346Y419173D01*
X280291Y421266D01*
X218490D01*
X213436Y419173D01*
X179566Y385303D01*
X177473Y380249D01*
X178083Y378775D01*
Y377052D01*
X163637D01*
X147765Y392923D01*
X142711Y395017D01*
X126705D01*
Y422867D01*
X127878Y423353D01*
X162830Y388402D01*
X163591Y388087D01*
X165054Y386624D01*
X167122D01*
X167884Y386309D01*
X168646Y386624D01*
X170714D01*
X172177Y388087D01*
X172939Y388402D01*
X173254Y389164D01*
X174717Y390626D01*
Y392695D01*
X175032Y393457D01*
X174717Y394218D01*
Y396287D01*
X173254Y397749D01*
X172939Y398511D01*
X127988Y443461D01*
X128360Y444731D01*
X130349D01*
X161278Y413802D01*
X162040Y413487D01*
X163503Y412024D01*
X165571D01*
X166333Y411708D01*
X167094Y412024D01*
X169163D01*
X170625Y413487D01*
X171387Y413802D01*
X171703Y414564D01*
X173165Y416026D01*
Y418095D01*
X173481Y418857D01*
X173165Y419618D01*
Y421687D01*
X171703Y423149D01*
X171387Y423911D01*
X151740Y443558D01*
X152226Y444731D01*
X183822D01*
Y440701D01*
X185916Y435646D01*
X194994Y426568D01*
X195756Y426253D01*
X197218Y424790D01*
X199287D01*
X200049Y424475D01*
X200810Y424790D01*
X202879D01*
X204341Y426253D01*
X205103Y426568D01*
X205419Y427330D01*
X206881Y428792D01*
Y430861D01*
X207197Y431623D01*
X206881Y432384D01*
Y434453D01*
X205419Y435915D01*
X205103Y436677D01*
X198319Y443461D01*
X198602Y444731D01*
X344221D01*
Y443557D01*
X343905Y442795D01*
X344221Y442034D01*
Y439965D01*
X345683Y438502D01*
X345999Y437741D01*
X346760Y437425D01*
X348223Y435963D01*
X350291D01*
X351053Y435647D01*
X351815Y435963D01*
X353883D01*
X355346Y437425D01*
X356108Y437741D01*
X363098Y444731D01*
X449951D01*
X450269Y444257D01*
D02*
G37*
G36*
X634467Y418406D02*
X634892Y412253D01*
X635050Y411481D01*
X635232Y410861D01*
X635438Y410394D01*
X635669Y410080D01*
X625113D01*
X625343Y410394D01*
X625550Y410861D01*
X625732Y411481D01*
X625890Y412253D01*
X626023Y413178D01*
X626217Y415487D01*
X626327Y420094D01*
X634455D01*
X634467Y418406D01*
D02*
G37*
G36*
X598178Y417272D02*
X602829Y413222D01*
X603487Y412788D01*
X604054Y412478D01*
X604530Y412294D01*
X604915Y412235D01*
X599606Y406926D01*
Y399417D01*
X599292Y399648D01*
X598825Y399854D01*
X598205Y400036D01*
X597433Y400194D01*
X596507Y400328D01*
X594199Y400522D01*
X589592Y400631D01*
Y408759D01*
X591280Y408771D01*
X594718Y409009D01*
X594409Y409375D01*
X591228Y412710D01*
X596976Y418458D01*
X598178Y417272D01*
D02*
G37*
G36*
X635438Y398996D02*
X635232Y398529D01*
X635050Y397909D01*
X634892Y397137D01*
X634758Y396212D01*
X634564Y393904D01*
X634455Y389296D01*
X626327D01*
X626315Y390985D01*
X625890Y397137D01*
X625732Y397909D01*
X625550Y398529D01*
X625343Y398996D01*
X625113Y399310D01*
X635669D01*
X635438Y398996D01*
D02*
G37*
G36*
X634467Y355598D02*
X634892Y349446D01*
X635050Y348673D01*
X635232Y348054D01*
X635438Y347587D01*
X635669Y347272D01*
X625113D01*
X625343Y347587D01*
X625550Y348054D01*
X625732Y348673D01*
X625890Y349446D01*
X626023Y350371D01*
X626217Y352679D01*
X626327Y357287D01*
X634455D01*
X634467Y355598D01*
D02*
G37*
G36*
X63504Y338700D02*
X55347D01*
X54661Y346830D01*
X62818D01*
X63504Y338700D01*
D02*
G37*
G36*
X264775Y347833D02*
X265996Y346856D01*
X267264Y345994D01*
X268580Y345247D01*
X269944Y344615D01*
X271355Y344098D01*
X272814Y343695D01*
X274321Y343408D01*
X275875Y343235D01*
X277477Y343178D01*
X279858Y335050D01*
X278313Y334969D01*
X276931Y334725D01*
X275712Y334318D01*
X274655Y333749D01*
X273762Y333018D01*
X273030Y332124D01*
X272461Y331067D01*
X272055Y329848D01*
X271811Y328466D01*
X271730Y326922D01*
X263601Y329302D01*
X263544Y330904D01*
X263372Y332458D01*
X263084Y333965D01*
X262682Y335424D01*
X262165Y336835D01*
X261532Y338199D01*
X260785Y339515D01*
X259923Y340784D01*
X258946Y342005D01*
X257854Y343178D01*
X263601Y348925D01*
X264775Y347833D01*
D02*
G37*
G36*
X635438Y336189D02*
X635232Y335722D01*
X635050Y335102D01*
X634892Y334329D01*
X634758Y333404D01*
X634564Y331096D01*
X634455Y326488D01*
X626327D01*
X626315Y328177D01*
X625890Y334329D01*
X625732Y335102D01*
X625550Y335722D01*
X625343Y336189D01*
X625113Y336503D01*
X635669D01*
X635438Y336189D01*
D02*
G37*
G36*
X503125Y347474D02*
X507673D01*
Y213371D01*
X509766Y208316D01*
X517386Y200696D01*
X522441Y198603D01*
X549745D01*
X583120Y165228D01*
X582547Y164094D01*
X576343Y165034D01*
X575795Y164898D01*
X575273Y165114D01*
X556709D01*
X555886Y166384D01*
X557353Y169926D01*
X558565D01*
Y184006D01*
X550787D01*
X550525Y184114D01*
X550264Y184006D01*
X542486D01*
Y177847D01*
X538189D01*
X537427Y177531D01*
X535359D01*
X533896Y176069D01*
X533134Y175753D01*
X532819Y174991D01*
X531356Y173529D01*
Y171460D01*
X531040Y170699D01*
X531356Y169937D01*
Y167868D01*
X532819Y166406D01*
X533134Y165644D01*
X533896Y165329D01*
X535359Y163866D01*
X537427D01*
X538189Y163550D01*
X542486D01*
Y150926D01*
X550264D01*
X550525Y150818D01*
X574734D01*
X595552Y147665D01*
X595971Y147539D01*
X596528Y147334D01*
X596845Y147186D01*
X596872Y147169D01*
X596936Y147106D01*
X597039Y147063D01*
X597125Y147009D01*
X597206Y146994D01*
X597207Y146994D01*
X600815Y143386D01*
X608406D01*
X608932Y142116D01*
X601737Y134921D01*
X536832D01*
X417709Y254043D01*
X417370Y254542D01*
X416734Y255663D01*
X416197Y256821D01*
X415758Y258019D01*
X415415Y259262D01*
X415302Y259855D01*
Y307702D01*
X444665D01*
X444925Y307810D01*
X445201Y307754D01*
X445868Y308200D01*
X446609Y308507D01*
X446717Y308767D01*
X446951Y308924D01*
X447656Y309979D01*
X447711Y310256D01*
X447910Y310455D01*
X447910Y311257D01*
X448067Y312043D01*
X447910Y312278D01*
Y312559D01*
X447762Y312918D01*
X448467Y313974D01*
X450051D01*
Y334014D01*
X451321D01*
Y335284D01*
X461861D01*
Y343499D01*
X490360D01*
X492304Y344305D01*
X492304Y344305D01*
X495473Y347474D01*
X500586D01*
Y353514D01*
X503125D01*
Y347474D01*
D02*
G37*
G36*
X67231Y295623D02*
X67592Y294246D01*
X68101Y293031D01*
X68759Y291978D01*
X69566Y291087D01*
X70522Y290359D01*
X71626Y289792D01*
X72880Y289387D01*
X74282Y289144D01*
X75833Y289063D01*
X63971Y284999D01*
X67020Y297162D01*
X67231Y295623D01*
D02*
G37*
G36*
X634467Y292791D02*
X634892Y286639D01*
X635050Y285866D01*
X635232Y285247D01*
X635438Y284779D01*
X635669Y284465D01*
X625113D01*
X625343Y284779D01*
X625550Y285247D01*
X625732Y285866D01*
X625890Y286639D01*
X626023Y287564D01*
X626217Y289872D01*
X626327Y294480D01*
X634455D01*
X634467Y292791D01*
D02*
G37*
G36*
X412218Y263301D02*
X412275Y261699D01*
X412448Y260145D01*
X412735Y258638D01*
X413138Y257179D01*
X413655Y255768D01*
X414287Y254404D01*
X415034Y253088D01*
X415896Y251820D01*
X416873Y250599D01*
X417965Y249426D01*
X405280Y250616D01*
X398343Y269048D01*
X399435Y268037D01*
X400412Y267304D01*
X401274Y266849D01*
X402021Y266670D01*
X402653Y266770D01*
X403170Y267146D01*
X403573Y267801D01*
X403860Y268733D01*
X404032Y269942D01*
X404090Y271429D01*
X412218Y263301D01*
D02*
G37*
G36*
X635438Y273382D02*
X635232Y272915D01*
X635050Y272295D01*
X634892Y271522D01*
X634758Y270597D01*
X634564Y268289D01*
X634455Y263681D01*
X626327D01*
X626315Y265370D01*
X625890Y271522D01*
X625732Y272295D01*
X625550Y272915D01*
X625343Y273382D01*
X625113Y273696D01*
X635669D01*
X635438Y273382D01*
D02*
G37*
G36*
X634467Y229984D02*
X634892Y223832D01*
X635050Y223059D01*
X635232Y222439D01*
X635438Y221972D01*
X635669Y221658D01*
X625113D01*
X625343Y221972D01*
X625550Y222439D01*
X625732Y223059D01*
X625890Y223832D01*
X626023Y224757D01*
X626217Y227065D01*
X626327Y231672D01*
X634455D01*
X634467Y229984D01*
D02*
G37*
G36*
X599606Y210995D02*
X599292Y211226D01*
X598825Y211432D01*
X598205Y211614D01*
X597433Y211772D01*
X596507Y211906D01*
X594199Y212100D01*
X589592Y212209D01*
Y220337D01*
X591280Y220350D01*
X597433Y220774D01*
X598205Y220932D01*
X598825Y221114D01*
X599292Y221321D01*
X599606Y221551D01*
Y210995D01*
D02*
G37*
G36*
X635438Y210574D02*
X635232Y210107D01*
X635050Y209488D01*
X634892Y208715D01*
X634758Y207790D01*
X634564Y205482D01*
X634455Y200874D01*
X626327D01*
X626315Y202563D01*
X625890Y208715D01*
X625732Y209488D01*
X625550Y210107D01*
X625343Y210574D01*
X625113Y210889D01*
X635669D01*
X635438Y210574D01*
D02*
G37*
G36*
X598178Y166043D02*
X602829Y161993D01*
X603487Y161558D01*
X604054Y161249D01*
X604530Y161065D01*
X604915Y161005D01*
X599932Y156022D01*
X598876Y149053D01*
X598600Y149329D01*
X598169Y149603D01*
X597584Y149875D01*
X596844Y150147D01*
X595949Y150418D01*
X593696Y150955D01*
X589157Y151753D01*
X590374Y159790D01*
X592045Y159549D01*
X593157Y159458D01*
X591228Y161481D01*
X596976Y167228D01*
X598178Y166043D01*
D02*
G37*
G36*
X634467Y167176D02*
X634892Y161024D01*
X635050Y160252D01*
X635232Y159632D01*
X635438Y159165D01*
X635669Y158850D01*
X625113D01*
X625343Y159165D01*
X625550Y159632D01*
X625732Y160252D01*
X625890Y161024D01*
X626023Y161949D01*
X626217Y164257D01*
X626327Y168865D01*
X634455D01*
X634467Y167176D01*
D02*
G37*
G36*
X628160Y148081D02*
X635669D01*
X635438Y147767D01*
X635232Y147300D01*
X635050Y146680D01*
X634892Y145908D01*
X634758Y144983D01*
X634564Y142674D01*
X634455Y138067D01*
X626327D01*
X626315Y139755D01*
X626077Y143194D01*
X625711Y142884D01*
X622376Y139703D01*
X616628Y145451D01*
X617814Y146653D01*
X621864Y151304D01*
X622298Y151962D01*
X622608Y152529D01*
X622792Y153005D01*
X622851Y153390D01*
X628160Y148081D01*
D02*
G37*
G36*
X634467Y104369D02*
X634892Y98217D01*
X635050Y97444D01*
X635232Y96825D01*
X635438Y96358D01*
X635669Y96043D01*
X625113D01*
X625343Y96358D01*
X625550Y96825D01*
X625732Y97444D01*
X625890Y98217D01*
X626023Y99142D01*
X626217Y101450D01*
X626327Y106058D01*
X634455D01*
X634467Y104369D01*
D02*
G37*
%LPC*%
G36*
X313907Y438705D02*
X257011D01*
X256249Y438389D01*
X254181D01*
X252718Y436927D01*
X251956Y436611D01*
X251641Y435849D01*
X250178Y434387D01*
Y432318D01*
X249862Y431557D01*
X250178Y430795D01*
Y428727D01*
X251641Y427264D01*
X251956Y426502D01*
X252718Y426187D01*
X254181Y424724D01*
X256249D01*
X257011Y424408D01*
X313907D01*
X314668Y424724D01*
X316737D01*
X318200Y426187D01*
X318961Y426502D01*
X319277Y427264D01*
X320739Y428727D01*
Y430795D01*
X321055Y431557D01*
X320739Y432318D01*
Y434387D01*
X319277Y435849D01*
X318961Y436611D01*
X318200Y436927D01*
X316737Y438389D01*
X314668D01*
X313907Y438705D01*
D02*
G37*
G36*
X461861Y410053D02*
X452591D01*
Y391283D01*
X461861D01*
Y410053D01*
D02*
G37*
G36*
X450051D02*
X440781D01*
Y391283D01*
X450051D01*
Y410053D01*
D02*
G37*
G36*
X315773Y392370D02*
X304068D01*
X303323Y392062D01*
X282411D01*
X281649Y391746D01*
X279580D01*
X278118Y390284D01*
X277356Y389968D01*
X277041Y389206D01*
X275578Y387744D01*
Y385675D01*
X275263Y384914D01*
X275578Y384152D01*
Y382084D01*
X277041Y380621D01*
X277356Y379859D01*
X278118Y379544D01*
X279580Y378081D01*
X281649D01*
X282411Y377766D01*
X303323D01*
X304068Y377457D01*
X315773D01*
X318251Y378483D01*
X319278Y380961D01*
Y388866D01*
X318251Y391344D01*
X315773Y392370D01*
D02*
G37*
G36*
X500586Y376554D02*
X495316D01*
Y371784D01*
X500586D01*
Y376554D01*
D02*
G37*
G36*
X461861Y388743D02*
X452591D01*
Y369973D01*
X461861D01*
Y388743D01*
D02*
G37*
G36*
X450051D02*
X440781D01*
Y369973D01*
X442716D01*
X443351Y372544D01*
X450051Y372569D01*
Y388743D01*
D02*
G37*
G36*
X500586Y369244D02*
X495316D01*
Y364474D01*
X500586D01*
Y369244D01*
D02*
G37*
G36*
X382388Y381044D02*
X378090D01*
Y363284D01*
X386201D01*
Y377231D01*
X385084Y379927D01*
X382388Y381044D01*
D02*
G37*
G36*
X315773Y369470D02*
X311191D01*
Y363284D01*
X319278D01*
Y365966D01*
X318251Y368444D01*
X315773Y369470D01*
D02*
G37*
G36*
X308651D02*
X304068D01*
X301590Y368444D01*
X300564Y365966D01*
Y363284D01*
X308651D01*
Y369470D01*
D02*
G37*
G36*
X375550Y381044D02*
X371253D01*
X368557Y379927D01*
X367440Y377231D01*
Y363284D01*
X375550D01*
Y381044D01*
D02*
G37*
G36*
X319278Y360743D02*
X311191D01*
Y354557D01*
X315773D01*
X318251Y355583D01*
X319278Y358061D01*
Y360743D01*
D02*
G37*
G36*
X308651D02*
X300564D01*
Y358061D01*
X301590Y355583D01*
X304068Y354557D01*
X308651D01*
Y360743D01*
D02*
G37*
G36*
X386201D02*
X378090D01*
Y342983D01*
X382388D01*
X385084Y344100D01*
X386201Y346796D01*
Y360743D01*
D02*
G37*
G36*
X375550D02*
X367440D01*
Y346796D01*
X368557Y344100D01*
X371253Y342983D01*
X375550D01*
Y360743D01*
D02*
G37*
%LPD*%
G36*
X300564Y388866D02*
Y386184D01*
X309921D01*
Y383644D01*
X300564D01*
Y380961D01*
X300266Y380515D01*
X282958D01*
X282701Y380621D01*
X282154D01*
X281649Y380830D01*
X280719D01*
X280062Y381488D01*
X279557Y381697D01*
X279194Y382060D01*
X278985Y382565D01*
X278327Y383222D01*
Y384152D01*
X278118Y384657D01*
Y385170D01*
X278327Y385675D01*
Y386605D01*
X278985Y387262D01*
X279194Y387768D01*
X279557Y388130D01*
X280062Y388340D01*
X280719Y388997D01*
X281649D01*
X282154Y389206D01*
X282701D01*
X282958Y389313D01*
X300266D01*
X300564Y388866D01*
D02*
G37*
%LPC*%
G36*
X461861Y332744D02*
X452591D01*
Y313974D01*
X461861D01*
Y332744D01*
D02*
G37*
%LPD*%
G36*
X286092Y862019D02*
X285136Y861945D01*
X284109Y861708D01*
X283010Y861306D01*
X281840Y860740D01*
X280597Y860009D01*
X279284Y859114D01*
X277899Y858054D01*
X274915Y855442D01*
X273316Y853889D01*
X267568Y859636D01*
X269121Y861236D01*
X272793Y865605D01*
X273688Y866918D01*
X274419Y868160D01*
X274986Y869331D01*
X275387Y870430D01*
X275625Y871457D01*
X275698Y872413D01*
X286092Y862019D01*
D02*
G37*
G36*
X599606Y713453D02*
X599292Y713684D01*
X598825Y713890D01*
X598205Y714072D01*
X597433Y714230D01*
X596507Y714364D01*
X594199Y714558D01*
X589592Y714667D01*
Y722795D01*
X591280Y722807D01*
X597433Y723232D01*
X598205Y723390D01*
X598825Y723572D01*
X599292Y723778D01*
X599606Y724009D01*
Y713453D01*
D02*
G37*
G36*
X112664Y649159D02*
X101949Y648441D01*
X96171Y654188D01*
X104043Y657811D01*
X112664Y649159D01*
D02*
G37*
G36*
X599606Y339657D02*
X604915Y334348D01*
X604530Y334289D01*
X604054Y334104D01*
X603487Y333795D01*
X602829Y333360D01*
X602080Y332801D01*
X600311Y331306D01*
X596976Y328125D01*
X591228Y333872D01*
X592414Y335075D01*
X594677Y337674D01*
X594199Y337714D01*
X589592Y337824D01*
Y345952D01*
X591280Y345964D01*
X597433Y346389D01*
X598205Y346546D01*
X598825Y346729D01*
X599292Y346935D01*
X599606Y347165D01*
Y339657D01*
D02*
G37*
G36*
Y273803D02*
X599292Y274033D01*
X598825Y274240D01*
X598205Y274422D01*
X597433Y274579D01*
X596507Y274713D01*
X594199Y274907D01*
X589592Y275016D01*
Y283144D01*
X591280Y283157D01*
X597433Y283582D01*
X598205Y283739D01*
X598825Y283921D01*
X599292Y284128D01*
X599606Y284359D01*
Y273803D01*
D02*
G37*
G36*
Y85381D02*
X599292Y85611D01*
X598825Y85818D01*
X598205Y86000D01*
X597433Y86158D01*
X596507Y86291D01*
X594199Y86485D01*
X589592Y86595D01*
Y94723D01*
X591280Y94735D01*
X597433Y95160D01*
X598205Y95318D01*
X598825Y95500D01*
X599292Y95706D01*
X599606Y95937D01*
Y85381D01*
D02*
G37*
%LPC*%
G36*
X154129Y169789D02*
X145812D01*
X139930Y163907D01*
Y155590D01*
X145812Y149709D01*
X154129D01*
X160011Y155590D01*
Y163907D01*
X154129Y169789D01*
D02*
G37*
G36*
X66160Y163019D02*
X40080D01*
Y136939D01*
X66160D01*
Y163019D01*
D02*
G37*
G36*
X58521Y113019D02*
X47718D01*
X40080Y105380D01*
Y94577D01*
X47718Y86938D01*
X58521D01*
X66160Y94577D01*
Y105380D01*
X58521Y113019D01*
D02*
G37*
G36*
X46783Y72339D02*
X33838D01*
X21878Y67385D01*
X12724Y58232D01*
X7771Y46272D01*
Y33327D01*
X12724Y21367D01*
X21878Y12213D01*
X33838Y7259D01*
X46783D01*
X58743Y12213D01*
X67897Y21367D01*
X72851Y33327D01*
Y46272D01*
X67897Y58232D01*
X58743Y67385D01*
X46783Y72339D01*
D02*
G37*
G36*
X818271Y791619D02*
X798111D01*
Y771459D01*
X818271D01*
Y791619D01*
D02*
G37*
G36*
X908842Y783614D02*
X898039D01*
X890401Y775975D01*
Y765172D01*
X898039Y757533D01*
X908842D01*
X916481Y765172D01*
Y775975D01*
X908842Y783614D01*
D02*
G37*
G36*
X818271Y728811D02*
X798111D01*
Y708651D01*
X818271D01*
Y728811D01*
D02*
G37*
G36*
X916481Y733614D02*
X890401D01*
Y707534D01*
X916481D01*
Y733614D01*
D02*
G37*
G36*
X818271Y666004D02*
X798111D01*
Y645844D01*
X818271D01*
Y666004D01*
D02*
G37*
G36*
X908842Y660312D02*
X898039D01*
X890401Y652673D01*
Y641870D01*
X898039Y634232D01*
X908842D01*
X916481Y641870D01*
Y652673D01*
X908842Y660312D01*
D02*
G37*
G36*
X916481Y610311D02*
X890401D01*
Y584231D01*
X916481D01*
Y610311D01*
D02*
G37*
G36*
X818271Y603197D02*
X798111D01*
Y583037D01*
X818271D01*
Y603197D01*
D02*
G37*
G36*
Y540389D02*
X798111D01*
Y520229D01*
X818271D01*
Y540389D01*
D02*
G37*
G36*
X908842Y537010D02*
X898039D01*
X890401Y529371D01*
Y518568D01*
X898039Y510929D01*
X908842D01*
X916481Y518568D01*
Y529371D01*
X908842Y537010D01*
D02*
G37*
G36*
X916481Y487010D02*
X890401D01*
Y460930D01*
X916481D01*
Y487010D01*
D02*
G37*
G36*
X818271Y477582D02*
X798111D01*
Y457422D01*
X818271D01*
Y477582D01*
D02*
G37*
G36*
Y414775D02*
X798111D01*
Y394615D01*
X818271D01*
Y414775D01*
D02*
G37*
G36*
X908842Y413708D02*
X898039D01*
X890401Y406069D01*
Y395266D01*
X898039Y387628D01*
X908842D01*
X916481Y395266D01*
Y406069D01*
X908842Y413708D01*
D02*
G37*
G36*
X916481Y363708D02*
X890401D01*
Y337628D01*
X916481D01*
Y363708D01*
D02*
G37*
G36*
X818271Y351968D02*
X798111D01*
Y331808D01*
X818271D01*
Y351968D01*
D02*
G37*
G36*
Y289160D02*
X798111D01*
Y269000D01*
X818271D01*
Y289160D01*
D02*
G37*
G36*
X908842Y290406D02*
X898039D01*
X890401Y282767D01*
Y271964D01*
X898039Y264326D01*
X908842D01*
X916481Y271964D01*
Y282767D01*
X908842Y290406D01*
D02*
G37*
G36*
X916481Y240406D02*
X890401D01*
Y214326D01*
X916481D01*
Y240406D01*
D02*
G37*
G36*
X818271Y226353D02*
X798111D01*
Y206193D01*
X818271D01*
Y226353D01*
D02*
G37*
G36*
Y163546D02*
X798111D01*
Y143386D01*
X818271D01*
Y163546D01*
D02*
G37*
G36*
X908842Y167104D02*
X898039D01*
X890401Y159465D01*
Y148662D01*
X898039Y141024D01*
X908842D01*
X916481Y148662D01*
Y159465D01*
X908842Y167104D01*
D02*
G37*
G36*
X916481Y117104D02*
X890401D01*
Y91024D01*
X916481D01*
Y117104D01*
D02*
G37*
G36*
X818271Y100739D02*
X798111D01*
Y80579D01*
X818271D01*
Y100739D01*
D02*
G37*
G36*
X903441Y913946D02*
X895760Y912418D01*
X889249Y908067D01*
X884898Y901556D01*
X883370Y893875D01*
Y863946D01*
X794327D01*
X786647Y862418D01*
X780135Y858067D01*
X717799Y795731D01*
X713448Y789219D01*
X711920Y781539D01*
Y718731D01*
Y655924D01*
Y593117D01*
Y530309D01*
Y467502D01*
Y404695D01*
Y341888D01*
Y279081D01*
Y216273D01*
Y153466D01*
Y90659D01*
X713448Y82978D01*
X717799Y76467D01*
X724310Y72116D01*
X731991Y70588D01*
X739671Y72116D01*
X746183Y76467D01*
X750534Y82978D01*
X752061Y90659D01*
Y153466D01*
Y216273D01*
Y279081D01*
Y341888D01*
Y404695D01*
Y467502D01*
Y530309D01*
Y593117D01*
Y655924D01*
Y718731D01*
Y773225D01*
X802641Y823805D01*
X903441D01*
X911121Y825332D01*
X917633Y829683D01*
X921983Y836195D01*
X923511Y843875D01*
Y893875D01*
X921983Y901556D01*
X917633Y908067D01*
X911121Y912418D01*
X903441Y913946D01*
D02*
G37*
G36*
X914436Y72581D02*
X901491D01*
X889531Y67627D01*
X880378Y58473D01*
X875424Y46513D01*
Y33568D01*
X880378Y21608D01*
X889531Y12455D01*
X901491Y7501D01*
X914436D01*
X926396Y12455D01*
X935550Y21608D01*
X940504Y33568D01*
Y46513D01*
X935550Y58473D01*
X926396Y67627D01*
X914436Y72581D01*
D02*
G37*
%LPD*%
D16*
X501856Y370514D02*
D03*
Y353514D02*
D03*
X184621Y370514D02*
D03*
Y353514D02*
D03*
D17*
X88101Y221198D02*
D03*
Y284999D02*
D03*
D18*
X57621Y360019D02*
D03*
Y403019D02*
D03*
X99991D02*
D03*
Y360019D02*
D03*
D19*
X87550Y753365D02*
D03*
Y782766D02*
D03*
X42381Y223969D02*
D03*
Y253369D02*
D03*
D20*
X98908Y534370D02*
D03*
X116868D02*
D03*
Y674070D02*
D03*
X98908D02*
D03*
D21*
X107888Y631720D02*
D03*
Y576720D02*
D03*
D22*
X550525Y472002D02*
D03*
Y491002D02*
D03*
Y534810D02*
D03*
Y553809D02*
D03*
Y597617D02*
D03*
Y616617D02*
D03*
Y660424D02*
D03*
Y679424D02*
D03*
Y723232D02*
D03*
Y742231D02*
D03*
Y95159D02*
D03*
Y114159D02*
D03*
Y157966D02*
D03*
Y176966D02*
D03*
Y220773D02*
D03*
Y239774D02*
D03*
Y283580D02*
D03*
Y302581D02*
D03*
Y346388D02*
D03*
Y365388D02*
D03*
Y409195D02*
D03*
Y428195D02*
D03*
Y786039D02*
D03*
Y805039D02*
D03*
X15711Y248169D02*
D03*
Y229168D02*
D03*
D23*
X235421Y390013D02*
D03*
Y334014D02*
D03*
X451321Y390013D02*
D03*
Y334014D02*
D03*
D24*
X376820Y362014D02*
D03*
D25*
X309921Y339114D02*
D03*
Y362014D02*
D03*
Y384914D02*
D03*
D51*
X731991Y781539D02*
X794327Y843875D01*
X903441D01*
X731991Y341888D02*
Y404695D01*
Y279081D02*
Y341888D01*
Y404695D02*
Y467502D01*
Y216273D02*
Y279081D01*
Y467502D02*
Y530309D01*
Y153466D02*
Y216273D01*
Y530309D02*
Y593117D01*
Y90659D02*
Y153466D01*
Y593117D02*
Y655924D01*
Y718731D01*
Y781539D01*
X903441Y843875D02*
Y893875D01*
D52*
X57621Y361479D02*
X99991D01*
Y353579D02*
X145505D01*
X408154Y311717D02*
Y341306D01*
Y253489D02*
X533871Y127773D01*
X322529Y339114D02*
X408154Y253489D01*
X57621Y291349D02*
X62701Y286269D01*
X63971Y284999D01*
X407887Y633741D02*
Y687081D01*
X243744Y788550D02*
Y830064D01*
X451321Y339101D02*
X492458D01*
X218490Y414118D02*
X220689D01*
X99991Y387869D02*
X142711D01*
X538189Y170699D02*
X550525D01*
X117311Y782766D02*
X123095Y788550D01*
X102833Y768288D02*
X117311Y782766D01*
X376820Y361961D02*
X444971D01*
X209259Y454163D02*
Y573035D01*
X94959Y618501D02*
X107888D01*
X112689Y559950D02*
X153089D01*
X107888D02*
X112689D01*
X107888Y576720D02*
X112689Y559950D01*
X116868Y545349D01*
X63971Y284999D02*
X88101D01*
X57621Y291349D02*
Y360019D01*
X42381Y253369D02*
Y265949D01*
X62701Y286269D01*
X57621Y360019D02*
X63971Y284999D01*
X309921Y339114D02*
X322529D01*
X407887Y687081D02*
Y755407D01*
X476213Y687081D02*
Y759217D01*
X523711Y806715D02*
X535395Y818399D01*
X625565D01*
X644615Y799349D01*
Y75703D02*
Y799349D01*
X216371Y269505D02*
X359881Y125995D01*
X26185Y445527D02*
Y467494D01*
X184621Y380249D02*
X218490Y414118D01*
X15711Y216927D02*
Y229168D01*
Y216927D02*
X27903Y204735D01*
X282411Y384914D02*
X309921D01*
X235421Y334014D02*
Y339101D01*
X220689Y353833D02*
X235421Y339101D01*
X220689Y353833D02*
Y414118D01*
X280291D01*
X282411Y411999D01*
X15711Y248169D02*
X22569D01*
X38571Y232167D01*
X42381Y223969D01*
X203925Y644415D02*
X206719Y641621D01*
Y454163D02*
Y641621D01*
Y454163D02*
X209259D01*
Y451623D02*
Y454163D01*
Y451623D02*
X216371Y444511D01*
X327877D01*
X376820Y395567D01*
Y362014D02*
Y395567D01*
Y361961D02*
Y362014D01*
X444971Y361961D02*
X451321Y390013D01*
X453524Y370514D02*
X501856D01*
X451321Y390013D02*
X453524Y370514D01*
X116868Y534370D02*
Y545349D01*
X107888Y559950D02*
Y576720D01*
X550525Y170699D02*
Y176966D01*
X408154Y253489D02*
Y311717D01*
X533871Y127773D02*
X604697D01*
X630391Y153466D01*
X57621Y360019D02*
Y361479D01*
X99991Y360019D02*
Y361479D01*
Y353579D02*
Y360019D01*
X145505Y353579D02*
X145570Y353514D01*
X184621Y341373D02*
X221945Y304049D01*
X246838D01*
X267666Y324877D01*
Y339114D01*
X235421Y371359D02*
X267666Y339114D01*
X309921D01*
X235421Y371359D02*
Y390013D01*
X630391Y90659D02*
Y153466D01*
Y216273D01*
Y279081D01*
Y341888D01*
Y404695D01*
Y467502D01*
Y530309D01*
Y593117D01*
Y655924D01*
Y718731D01*
Y781539D01*
X79945Y809481D02*
Y872518D01*
X72099Y801635D02*
X79945Y809481D01*
X72099Y753365D02*
Y801635D01*
Y753365D02*
X87550D01*
X190971Y440701D02*
Y686950D01*
Y440701D02*
X200049Y431623D01*
X139786Y534550D02*
X153089D01*
X131535Y526299D02*
X139786Y534550D01*
X131535Y524666D02*
Y526299D01*
X120577Y513708D02*
X131535Y524666D01*
X120577Y440764D02*
Y513708D01*
Y440764D02*
X167884Y393457D01*
X142965Y509150D02*
X153089D01*
X133277Y499463D02*
X142965Y509150D01*
X133277Y451912D02*
Y499463D01*
Y451912D02*
X166333Y418857D01*
X257011Y431557D02*
X313907D01*
X153089Y458350D02*
X176239D01*
Y853783D01*
X157504Y872518D02*
X176239Y853783D01*
X229289Y458350D02*
X311236D01*
X422111Y569225D01*
Y761757D01*
X413221Y770647D02*
X422111Y761757D01*
X375121Y770647D02*
X413221D01*
X325083Y720609D02*
X375121Y770647D01*
X229289Y483750D02*
X248752D01*
X269711Y504709D01*
Y527569D01*
X379693Y637551D01*
X229289Y509150D02*
X246343D01*
X257011Y519818D01*
Y542301D01*
X393409Y678699D01*
Y719085D01*
X336767Y562621D02*
X407887Y633741D01*
X229289Y559950D02*
X244341D01*
X378410Y694019D01*
Y750340D01*
X383984Y755915D01*
X229289Y661550D02*
X235929D01*
X317463Y743084D01*
Y781061D01*
X340323Y803921D01*
X396294D01*
X464891Y872518D01*
X229289Y686950D02*
X235929D01*
X285205Y736226D01*
Y769631D01*
X319020Y803446D01*
Y824749D01*
X366789Y872518D01*
X414891D01*
X229289Y763150D02*
X254471D01*
X306320Y814999D01*
Y842640D01*
X336197Y872518D01*
X229289Y788550D02*
X243744D01*
Y830064D02*
X286197Y872518D01*
X57621Y403019D02*
X99991D01*
X57621D02*
Y453147D01*
X77433Y472959D01*
Y492445D01*
X99991Y387869D02*
Y403019D01*
X142711Y387869D02*
X160065Y370514D01*
X77433Y503693D02*
X98908Y525168D01*
Y534370D01*
X51585Y518294D02*
Y551953D01*
X10991Y736653D02*
Y801652D01*
X29945Y820606D01*
Y872518D01*
X87593Y534370D02*
X98908D01*
X87593D02*
Y589799D01*
X102071Y604277D01*
X127347D01*
X133821Y610750D01*
X153089D01*
X451321Y314399D02*
X485971Y279748D01*
X451321Y314399D02*
Y334014D01*
X127471Y617100D02*
X153089Y610750D01*
X127471Y617100D02*
Y648981D01*
X116868Y659583D02*
X127471Y648981D01*
X116868Y659583D02*
Y674070D01*
X451321Y334014D02*
Y339101D01*
X229289Y636150D02*
X283550D01*
X354801Y707401D01*
X536411Y110501D02*
X540069Y114159D01*
X550525D01*
X539713Y239774D02*
X550525D01*
X539713Y230135D02*
Y239774D01*
X537681Y281697D02*
X537935Y281443D01*
X537681Y281697D02*
Y299661D01*
X540600Y302581D01*
X550525D01*
X537681Y365388D02*
X550525D01*
X537681Y333767D02*
Y365388D01*
Y333767D02*
X544285D01*
X547333Y330719D01*
X556705D01*
X516599Y403995D02*
X540799Y428195D01*
X550525D01*
X538189Y475184D02*
Y491002D01*
X550525D01*
X530315Y529609D02*
Y545349D01*
X538775Y553809D01*
X550525D01*
X533871Y592417D02*
X540221Y616617D01*
X550525D01*
X526144Y668031D02*
X537537Y679424D01*
X550525D01*
X537681Y718032D02*
Y735849D01*
X544063Y742231D01*
X550525D01*
X544031Y805039D02*
X550525D01*
X537681Y798689D02*
X544031Y805039D01*
X537681Y773187D02*
Y798689D01*
Y773187D02*
X565621D01*
X88101Y175017D02*
Y221198D01*
Y175017D02*
X163368Y99749D01*
X485971D01*
X576478Y90659D02*
X604991D01*
X571978Y95159D02*
X576478Y90659D01*
X550525Y95159D02*
X571978D01*
X457417Y444257D02*
X514821Y386853D01*
Y213371D02*
Y386853D01*
Y213371D02*
X522441Y205751D01*
X552706D01*
X604991Y153466D01*
X575273Y157966D02*
X604991Y153466D01*
X550525Y157966D02*
X575273D01*
X550525Y220773D02*
X575273D01*
X579772Y216273D01*
X604991D01*
X550525Y283580D02*
X575273D01*
X579772Y279081D01*
X604991D01*
X531331Y312431D02*
X535649Y316749D01*
X579852D01*
X604991Y341888D01*
X579773D02*
X604991D01*
X575273Y346388D02*
X579773Y341888D01*
X550525Y346388D02*
X575273D01*
X351053Y442795D02*
X365215Y456957D01*
X552729D01*
X604991Y404695D01*
X579772D02*
X604991D01*
X575273Y409195D02*
X579772Y404695D01*
X550525Y409195D02*
X575273D01*
X429182Y477236D02*
X455648Y503702D01*
X568791D01*
X604991Y467502D01*
X579772D02*
X604991D01*
X575273Y472002D02*
X579772Y467502D01*
X550525Y472002D02*
X575273D01*
X331433Y767853D02*
X354801Y791221D01*
X432271D01*
X456655Y766837D01*
Y610627D02*
Y766837D01*
Y610627D02*
X495517Y571765D01*
X563535D01*
X604991Y530309D01*
X581397D02*
X604991D01*
X576896Y534810D02*
X581397Y530309D01*
X550525Y534810D02*
X576896D01*
X338518Y818145D02*
X375602Y855229D01*
X424397D01*
X432017Y862849D01*
Y876819D01*
X444971Y889773D01*
X482055D01*
X507963Y863865D01*
X512281Y645425D01*
X552683D01*
X604991Y593117D01*
X579772D02*
X604991D01*
X575273Y597617D02*
X579772Y593117D01*
X550525Y597617D02*
X575273D01*
X595557Y655924D02*
X604991D01*
X591057Y660424D02*
X595557Y655924D01*
X550525Y660424D02*
X591057D01*
X550525Y723232D02*
X575273D01*
X579773Y718731D01*
X604991D01*
X579772Y781539D02*
X604991D01*
X575273Y786039D02*
X579772Y781539D01*
X550525Y786039D02*
X575273D01*
X51585Y492894D02*
Y497657D01*
X67019Y513091D01*
Y725465D01*
X56351Y736133D02*
X67019Y725465D01*
X56351Y736133D02*
Y768615D01*
X55991Y768975D02*
X56351Y768615D01*
X55991Y768975D02*
Y801652D01*
X56351Y736133D02*
X95751D01*
X102833Y743215D01*
Y768288D01*
X123095Y788550D02*
X153089D01*
X87550Y782766D02*
X117311D01*
X11901Y507178D02*
X26185Y492894D01*
X11901Y507178D02*
Y556271D01*
X53049Y597419D01*
X221574Y585350D02*
X229289D01*
X209259Y573035D02*
X221574Y585350D01*
X309921Y362014D02*
X376820D01*
X84545Y608087D02*
X94959Y618501D01*
X107888D02*
Y631720D01*
Y648219D01*
X98908Y657199D02*
X107888Y648219D01*
X98908Y657199D02*
Y674070D01*
D53*
X184621Y370514D02*
Y380249D01*
X145570Y353514D02*
X184621D01*
Y341373D02*
Y353514D01*
X160065Y370514D02*
X184621D01*
X492458Y339101D02*
X501856Y348499D01*
Y353514D01*
D54*
X604991Y90659D02*
D03*
X630391D02*
D03*
X731991D02*
D03*
X604991Y781539D02*
D03*
X630391D02*
D03*
X731991D02*
D03*
Y718731D02*
D03*
X630391D02*
D03*
X604991D02*
D03*
X731991Y655924D02*
D03*
X630391D02*
D03*
X604991D02*
D03*
X731991Y593117D02*
D03*
X630391D02*
D03*
X604991D02*
D03*
X731991Y530309D02*
D03*
X630391D02*
D03*
X604991D02*
D03*
X731991Y467502D02*
D03*
X630391D02*
D03*
X604991D02*
D03*
X731991Y404695D02*
D03*
X630391D02*
D03*
X604991D02*
D03*
X731991Y341888D02*
D03*
X630391D02*
D03*
X604991D02*
D03*
X731991Y279081D02*
D03*
X630391D02*
D03*
X604991D02*
D03*
X731991Y216273D02*
D03*
X630391D02*
D03*
X604991D02*
D03*
X731991Y153466D02*
D03*
X630391D02*
D03*
X604991D02*
D03*
D55*
X808191Y90659D02*
D03*
Y781539D02*
D03*
Y718731D02*
D03*
Y655924D02*
D03*
Y593117D02*
D03*
Y530309D02*
D03*
Y467502D02*
D03*
Y404695D02*
D03*
Y341888D02*
D03*
Y279081D02*
D03*
Y216273D02*
D03*
Y153466D02*
D03*
D56*
X229289Y788550D02*
D03*
Y763150D02*
D03*
Y737750D02*
D03*
Y712350D02*
D03*
Y686950D02*
D03*
Y661550D02*
D03*
Y636150D02*
D03*
Y610750D02*
D03*
Y585350D02*
D03*
Y559950D02*
D03*
Y534550D02*
D03*
Y509150D02*
D03*
Y483750D02*
D03*
Y458350D02*
D03*
X153089D02*
D03*
Y483750D02*
D03*
Y509150D02*
D03*
Y534550D02*
D03*
Y559950D02*
D03*
Y585350D02*
D03*
Y610750D02*
D03*
Y636150D02*
D03*
Y661550D02*
D03*
Y686950D02*
D03*
Y712350D02*
D03*
Y737750D02*
D03*
Y763150D02*
D03*
D57*
Y788550D02*
D03*
D58*
X414891Y872518D02*
D03*
X286197D02*
D03*
X157504D02*
D03*
X29945D02*
D03*
X903441Y770574D02*
D03*
Y647272D02*
D03*
Y523969D02*
D03*
Y400668D02*
D03*
Y277365D02*
D03*
Y154064D02*
D03*
Y893875D02*
D03*
X53120Y99979D02*
D03*
D59*
X464891Y872518D02*
D03*
X336197D02*
D03*
X207504D02*
D03*
X79945D02*
D03*
D60*
X903441Y720574D02*
D03*
Y597271D02*
D03*
Y473970D02*
D03*
Y350668D02*
D03*
Y227366D02*
D03*
Y104064D02*
D03*
Y843875D02*
D03*
X53120Y149979D02*
D03*
D61*
X485971Y99749D02*
D03*
Y279748D02*
D03*
X149971Y159749D02*
D03*
D62*
Y219749D02*
D03*
D63*
X40311Y39799D02*
D03*
X48965Y954369D02*
D03*
X908466Y955400D02*
D03*
X907964Y40041D02*
D03*
D64*
X55991Y801652D02*
D03*
X56351Y736133D02*
D03*
X10991Y801652D02*
D03*
D65*
Y736653D02*
D03*
D66*
X26185Y467494D02*
D03*
D67*
Y492894D02*
D03*
Y518294D02*
D03*
X51585Y467494D02*
D03*
Y492894D02*
D03*
Y518294D02*
D03*
D68*
X8580Y637031D02*
D03*
X520607Y90253D02*
D03*
Y106572D02*
D03*
X509315Y489336D02*
D03*
X503038Y583456D02*
D03*
X528139Y621107D02*
D03*
X524375Y711465D02*
D03*
X524374Y761664D02*
D03*
X494255Y754134D02*
D03*
X318559Y698915D02*
D03*
X390090Y652484D02*
D03*
X406407Y611068D02*
D03*
X471666Y535769D02*
D03*
X498018Y326187D02*
D03*
X42466Y327444D02*
D03*
X14856Y371368D02*
D03*
X51251Y696406D02*
D03*
X52506Y624873D02*
D03*
X51251Y651227D02*
D03*
X90155Y459216D02*
D03*
X101447Y452944D02*
D03*
X471663Y626125D02*
D03*
X474176Y653737D02*
D03*
X474173Y567141D02*
D03*
X511825Y597263D02*
D03*
X491743Y488078D02*
D03*
X273381Y617342D02*
D03*
X447821Y799313D02*
D03*
X472921Y790528D02*
D03*
X504295Y912261D02*
D03*
X242004Y934848D02*
D03*
X122784Y932340D02*
D03*
X514335Y931085D02*
D03*
X567041Y929833D02*
D03*
X624770Y928573D02*
D03*
X683756Y869592D02*
D03*
X439034Y580946D02*
D03*
X508060Y557104D02*
D03*
X475431Y474276D02*
D03*
X506802Y473019D02*
D03*
X12346Y301090D02*
D03*
X37443Y303598D02*
D03*
X26151Y336229D02*
D03*
X8582Y352544D02*
D03*
X26151Y387683D02*
D03*
X17364Y421565D02*
D03*
X11091Y602283D02*
D03*
X9837Y678836D02*
D03*
X78860Y685111D02*
D03*
X87645Y712720D02*
D03*
X108979Y720250D02*
D03*
X115254Y747860D02*
D03*
X112744Y803078D02*
D03*
X113999Y829432D02*
D03*
X119019Y872102D02*
D03*
X120274Y909751D02*
D03*
X244516Y887161D02*
D03*
X242004Y907238D02*
D03*
X375033Y911005D02*
D03*
X605948Y869592D02*
D03*
X577083D02*
D03*
X524375Y863317D02*
D03*
X440289Y715232D02*
D03*
X439034Y612320D02*
D03*
Y647459D02*
D03*
X491745Y680091D02*
D03*
X510570Y621107D02*
D03*
X493000Y606048D02*
D03*
X487980Y638677D02*
D03*
X452841Y520710D02*
D03*
X494255Y544554D02*
D03*
X450329Y553337D02*
D03*
X434796Y430270D02*
D03*
X393320Y374348D02*
D03*
X294069Y352941D02*
D03*
X135063Y404663D02*
D03*
X407887Y755407D02*
D03*
Y687081D02*
D03*
X476213D02*
D03*
Y759217D02*
D03*
X523711Y806715D02*
D03*
X644615Y75703D02*
D03*
X359881Y125995D02*
D03*
X216371Y269505D02*
D03*
X26185Y445527D02*
D03*
X27903Y204735D02*
D03*
X282411Y384914D02*
D03*
Y411999D02*
D03*
X203925Y644415D02*
D03*
X538189Y170699D02*
D03*
X408154Y341306D02*
D03*
Y311717D02*
D03*
X190971Y686950D02*
D03*
X200049Y431623D02*
D03*
X167884Y393457D02*
D03*
X166333Y418857D02*
D03*
X257011Y431557D02*
D03*
X313907D02*
D03*
X325083Y720609D02*
D03*
X379693Y637551D02*
D03*
X393409Y719085D02*
D03*
X336767Y562621D02*
D03*
X383984Y755915D02*
D03*
X77433Y492445D02*
D03*
Y503693D02*
D03*
X51585Y551953D02*
D03*
X354801Y707401D02*
D03*
X536411Y110501D02*
D03*
X539713Y230135D02*
D03*
X537935Y281443D02*
D03*
X556705Y330719D02*
D03*
X516599Y403995D02*
D03*
X538189Y475184D02*
D03*
X530315Y529609D02*
D03*
X533871Y592417D02*
D03*
X526144Y668031D02*
D03*
X537681Y718032D02*
D03*
X565621Y773187D02*
D03*
X457417Y444257D02*
D03*
X531331Y312431D02*
D03*
X351053Y442795D02*
D03*
X429182Y477236D02*
D03*
X331433Y767853D02*
D03*
X338518Y818145D02*
D03*
X53049Y597419D02*
D03*
X84545Y608087D02*
D03*
M02*
