M48
;Layer_Color=9474304
;FILE_FORMAT=4:4
METRIC,LZ
;TYPE=PLATED
T01F00S00C0.6096
T02F00S00C0.8000
T03F00S00C0.8128
T04F00S00C0.9900
T05F00S00C1.0000
T06F00S00C1.0200
T07F00S00C1.4000
T08F00S00C3.5000
%
T01
X00359881Y00125995
X00536411Y00110501
X00644615Y00075703
X00556705Y00330719
X00531331Y00312431
X00537935Y00281443
X00539713Y00230135
X00538189Y00170699
X00516599Y00403995
X00538189Y00475184
X00530315Y00529609
X00429182Y00477236
X00457417Y00444257
X00351053Y00442795
X00313907Y00431557
X00282411Y00411999
Y00384914
X00257011Y00431557
X00200049Y00431623
X00166333Y00418857
X00167884Y00393457
X00216371Y00269505
X00408154Y00311717
Y00341306
X00077433Y00492445
Y00503693
X00026185Y00445527
X00027903Y00204735
X00051585Y00551953
X00053049Y00597419
X00084545Y00608087
X00203925Y00644415
X00190971Y0068695
X00325083Y00720609
X00354801Y00707401
X00393409Y00719085
X00383984Y00755915
X00407887Y00755407
Y00687081
X00476213
X00526144Y00668031
X00537681Y00718032
X00476213Y00759217
X00523711Y00806715
X00338518Y00818145
X00331433Y00767853
X00379693Y00637551
X00336767Y00562621
X00533871Y00592417
X00565621Y00773187
T02
X00520607Y00090253
Y00106572
X00498018Y00326187
X0039332Y00374348
X00434796Y0043027
X00475431Y00474276
X00491743Y00488078
X00509315Y00489336
X00506802Y00473019
X00471666Y00535769
X00452841Y0052071
X00294069Y00352941
X00135063Y00404663
X00101447Y00452944
X00090155Y00459216
X00017364Y00421565
X00026151Y00387683
X00014856Y00371368
X00008582Y00352544
X00026151Y00336229
X00042466Y00327444
X00037443Y00303598
X00012346Y0030109
X00011091Y00602283
X0000858Y00637031
X00009837Y00678836
X00051251Y00696406
X0007886Y00685111
X00087645Y0071272
X00108979Y0072025
X00115254Y0074786
X00112744Y00803078
X00113999Y00829432
X00119019Y00872102
X00120274Y00909751
X00122784Y0093234
X00051251Y00651227
X00052506Y00624873
X00273381Y00617342
X00318559Y00698915
X0039009Y00652484
X00439034Y00647459
Y0061232
Y00580946
X00450329Y00553337
X00474173Y00567141
X00494255Y00544554
X0050806Y00557104
X00503038Y00583456
X00511825Y00597263
X0051057Y00621107
X00528139
X00493Y00606048
X0048798Y00638677
X00474176Y00653737
X00471663Y00626125
X00491745Y00680091
X00524375Y00711465
X00524374Y00761664
X00494255Y00754134
X00472921Y00790528
X00447821Y00799313
X00440289Y00715232
X00406407Y00611068
X00375033Y00911005
X00504295Y00912261
X00514335Y00931085
X00524375Y00863317
X00244516Y00887161
X00242004Y00907238
Y00934848
X00567041Y00929833
X0062477Y00928573
X00605948Y00869592
X00577083
X00683756
T03
X00153089Y0045835
Y0048375
Y0050915
Y0053455
X00229289
Y0050915
Y0048375
Y0045835
Y0055995
Y0058535
Y0061075
Y0063615
Y0066155
Y0068695
Y0071235
Y0073775
Y0076315
Y0078855
X00153089
Y0076315
Y0073775
Y0071235
Y0068695
Y0066155
Y0063615
Y0061075
Y0058535
Y0055995
T04
X00010991Y00736653
X00056351Y00736133
X00055991Y00801652
X00010991
T05
X00485971Y00099749
X00604991Y00090659
X00630391
X00731991
X00808191
Y00153466
Y00216273
Y00279081
Y00341888
Y00404695
Y00467502
Y00530309
X00731991
Y00467502
Y00404695
Y00341888
Y00279081
Y00216273
Y00153466
X00630391
X00604991
Y00216273
X00630391
Y00279081
X00604991
Y00341888
X00630391
Y00404695
X00604991
Y00467502
X00630391
Y00530309
X00604991
X00485971Y00279748
X00149971Y00219749
Y00159749
X00604991Y00593117
X00630391
Y00655924
X00604991
Y00718731
X00630391
Y00781539
X00604991
X00731991
Y00718731
Y00655924
Y00593117
X00808191
Y00655924
Y00718731
Y00781539
T06
X00026185Y00467494
Y00492894
Y00518294
X00051585
Y00492894
Y00467494
T07
X0005312Y00099979
X00903441Y00104064
Y00154064
Y00227366
Y00277365
Y00350668
Y00400668
Y0047397
Y00523969
X0005312Y00149979
X00029945Y00872518
X00079945
X00157504
X00207504
X00286197
X00336197
X00414891
X00464891
X00903441Y00893875
Y00843875
Y00770574
Y00720574
Y00647272
Y00597271
T08
X00040311Y00039799
X00907964Y00040041
X00908466Y009554
X00048965Y00954369
M30
